<svg xmlns="http://www.w3.org/2000/svg" viewBox="0 0 480.99 463.18"><defs><style>.cls-1{fill:#92e3a9;}.cls-2{fill:#be1622;opacity:0.5;}.cls-3{opacity:0.3;}.cls-12,.cls-15,.cls-4,.cls-5,.cls-7,.cls-8{fill:none;}.cls-4{stroke:#000;}.cls-12,.cls-13,.cls-15,.cls-16,.cls-17,.cls-18,.cls-19,.cls-4,.cls-6,.cls-7,.cls-8,.cls-9{stroke-miterlimit:10;}.cls-12,.cls-13,.cls-15,.cls-16,.cls-17,.cls-18,.cls-19,.cls-5,.cls-6,.cls-7,.cls-9{stroke:#263238;}.cls-12,.cls-5{stroke-linecap:round;}.cls-5{stroke-linejoin:round;}.cls-6{fill:#c9c9c9;}.cls-8{stroke:#fff;}.cls-9{fill:#858585;}.cls-10,.cls-19{fill:#020c4d;}.cls-11{opacity:0.2;}.cls-12{stroke-width:4px;}.cls-13,.cls-20{fill:#fff;}.cls-14,.cls-16{fill:#263238;}.cls-15{stroke-width:2px;}.cls-17{fill:#969696;}.cls-18{fill:#c2c2c2;}</style></defs><g id="Character"><path class="cls-1" d="M467.56,119.31q-2.37-4-5-7.9C439.39,77.06,399.51,53.57,360.26,43a231.78,231.78,0,0,0-52.71-7.69c-116.61-4-163.06,87.95-201.6,111.67S8.11,211.17,12.06,296.16s65.23,165,183.82,170S322.38,417.71,388.59,398c43.82-13.08,75-57.26,90.2-98.09C499.56,244.22,498.58,171.94,467.56,119.31Z" transform="translate(-11.88 -7)"/><path class="cls-2" d="M467.56,119.31q-2.37-4-5-7.9C439.39,77.06,399.51,53.57,360.26,43a231.78,231.78,0,0,0-52.71-7.69c-116.61-4-163.06,87.95-201.6,111.67S8.11,211.17,12.06,296.16s65.23,165,183.82,170S322.38,417.71,388.59,398c43.82-13.08,75-57.26,90.2-98.09C499.56,244.22,498.58,171.94,467.56,119.31Z" transform="translate(-11.88 -7)"/><g class="cls-3"><polyline class="cls-4" points="19.12 428 19.12 168 461.12 168 461.12 428"/><rect class="cls-4" x="391.99" y="175" width="47.13" height="26"/><rect class="cls-4" x="321.82" y="175" width="47.13" height="26"/><rect class="cls-4" x="251.64" y="175" width="47.13" height="26"/><rect class="cls-4" x="181.47" y="175" width="47.13" height="26"/><rect class="cls-4" x="111.3" y="175" width="47.13" height="26"/><rect class="cls-4" x="41.12" y="175" width="47.13" height="26"/></g><path class="cls-5" d="M430.26,45.45c-2.54-2.64-7-5.07-14.62-5.26C398.42,39.77,403,52,398.42,54.89s-5.88-1.68-10.5,1.26-2.52,8.82-6.29,9.66S372.81,62,368.19,65s-4.62,5.46-6.72,5.46-6.3-1.68-8.82,0-5.46,3.78-5.46,3.78h45.09" transform="translate(-11.88 -7)"/><path class="cls-5" d="M435,53c-.41-.2-.84-.4-1.3-.6a11.39,11.39,0,0,0-1.55-4.43" transform="translate(-11.88 -7)"/><path class="cls-5" d="M398.05,74.21h55.38s1.26-3.78-3.36-6.3-6.71-.42-8.39-2.52c-1.5-1.87,3.33-6.4-4.49-11.23" transform="translate(-11.88 -7)"/><path class="cls-5" d="M147.11,105.51c-2.54-2.64-7-5.07-14.62-5.26-17.22-.42-12.6,11.76-17.22,14.7s-5.88-1.68-10.5,1.26-2.52,8.82-6.29,9.66S89.66,122.09,85,125s-4.62,5.46-6.72,5.46-6.3-1.68-8.82,0S64,134.26,64,134.26h45.09" transform="translate(-11.88 -7)"/><path class="cls-5" d="M151.85,113c-.41-.2-.84-.4-1.3-.6A11.39,11.39,0,0,0,149,108" transform="translate(-11.88 -7)"/><path class="cls-5" d="M114.9,134.26h55.38s1.26-3.77-3.36-6.29-6.71-.42-8.39-2.52c-1.5-1.87,3.33-6.41-4.49-11.23" transform="translate(-11.88 -7)"/><path class="cls-5" d="M90.57,40.26c-1-1-2.7-2-5.68-2-6.68-.16-4.89,4.56-6.68,5.7s-2.28-.65-4.08.49-1,3.43-2.44,3.75-3.42-1.46-5.22-.32S64.68,50,63.86,50s-2.44-.66-3.42,0-2.12,1.46-2.12,1.46h17.5" transform="translate(-11.88 -7)"/><path class="cls-5" d="M92.41,43.18c-.16-.08-.33-.16-.51-.23a4.26,4.26,0,0,0-.6-1.72" transform="translate(-11.88 -7)"/><path class="cls-5" d="M78.07,51.42H99.56A2.1,2.1,0,0,0,98.26,49c-1.79-1-2.61-.17-3.26-1s1.29-2.49-1.74-4.36" transform="translate(-11.88 -7)"/><path class="cls-5" d="M440.31,88.62c-1-1-2.7-2-5.68-2-6.68-.16-4.89,4.56-6.68,5.7s-2.28-.65-4.07.49-1,3.43-2.45,3.75-3.42-1.46-5.22-.32-1.79,2.12-2.61,2.12-2.44-.66-3.42,0-2.12,1.46-2.12,1.46h17.51" transform="translate(-11.88 -7)"/><path class="cls-5" d="M442.15,91.54c-.16-.08-.33-.16-.51-.23a4.26,4.26,0,0,0-.6-1.72" transform="translate(-11.88 -7)"/><path class="cls-5" d="M427.81,99.78h21.5A2.11,2.11,0,0,0,448,97.34c-1.79-1-2.61-.17-3.26-1S446,93.87,443,92" transform="translate(-11.88 -7)"/><rect class="cls-6" x="106.23" y="214.84" width="103.52" height="110.86"/><line class="cls-7" x1="113.22" y1="219.09" x2="113.22" y2="320.88"/><line class="cls-8" x1="110.61" y1="219.09" x2="110.61" y2="320.88"/><line class="cls-7" x1="123.03" y1="219.09" x2="123.03" y2="320.88"/><line class="cls-8" x1="120.41" y1="219.09" x2="120.41" y2="320.88"/><line class="cls-7" x1="132.83" y1="219.09" x2="132.83" y2="320.88"/><line class="cls-8" x1="130.22" y1="219.09" x2="130.22" y2="320.88"/><line class="cls-7" x1="142.64" y1="219.09" x2="142.64" y2="320.88"/><line class="cls-8" x1="140.02" y1="219.09" x2="140.02" y2="320.88"/><line class="cls-7" x1="152.44" y1="219.09" x2="152.44" y2="320.88"/><line class="cls-8" x1="149.83" y1="219.09" x2="149.83" y2="320.88"/><line class="cls-7" x1="162.24" y1="219.09" x2="162.24" y2="320.88"/><line class="cls-8" x1="159.63" y1="219.09" x2="159.63" y2="320.88"/><line class="cls-7" x1="172.05" y1="219.09" x2="172.05" y2="320.88"/><line class="cls-8" x1="169.43" y1="219.09" x2="169.43" y2="320.88"/><rect class="cls-9" x="178.34" y="214.84" width="62.82" height="110.86"/><rect class="cls-10" x="81.12" y="326.01" width="103.52" height="110.86"/><rect class="cls-10" x="153.22" y="326.01" width="62.82" height="110.86"/><rect class="cls-11" x="153.42" y="326.01" width="62.82" height="110.86"/><rect class="cls-7" x="80.7" y="326.01" width="135.34" height="110.86"/><rect class="cls-7" x="153.22" y="326.01" width="62.82" height="110.86"/><line class="cls-7" x1="89.73" y1="330.52" x2="89.73" y2="432.32"/><line class="cls-8" x1="87.12" y1="330.52" x2="87.12" y2="432.32"/><line class="cls-7" x1="99.54" y1="330.52" x2="99.54" y2="432.32"/><line class="cls-8" x1="96.92" y1="330.52" x2="96.92" y2="432.32"/><line class="cls-7" x1="109.34" y1="330.52" x2="109.34" y2="432.32"/><line class="cls-8" x1="106.73" y1="330.52" x2="106.73" y2="432.32"/><line class="cls-7" x1="119.15" y1="330.52" x2="119.15" y2="432.32"/><line class="cls-8" x1="116.53" y1="330.52" x2="116.53" y2="432.32"/><line class="cls-7" x1="128.95" y1="330.52" x2="128.95" y2="432.32"/><line class="cls-8" x1="126.33" y1="330.52" x2="126.33" y2="432.32"/><line class="cls-7" x1="138.75" y1="330.52" x2="138.75" y2="432.32"/><line class="cls-8" x1="136.14" y1="330.52" x2="136.14" y2="432.32"/><line class="cls-7" x1="148.56" y1="330.52" x2="148.56" y2="432.32"/><line class="cls-8" x1="145.94" y1="330.52" x2="145.94" y2="432.32"/><rect class="cls-6" x="157.03" y="326.01" width="103.52" height="110.86"/><rect class="cls-9" x="229.14" y="326.01" width="62.82" height="110.86"/><line class="cls-7" x1="165.22" y1="331.15" x2="165.22" y2="432.94"/><line class="cls-8" x1="162.61" y1="331.15" x2="162.61" y2="432.94"/><line class="cls-7" x1="175.02" y1="331.15" x2="175.02" y2="432.94"/><line class="cls-8" x1="172.41" y1="331.15" x2="172.41" y2="432.94"/><line class="cls-7" x1="184.83" y1="331.15" x2="184.83" y2="432.94"/><line class="cls-8" x1="182.21" y1="331.15" x2="182.21" y2="432.94"/><line class="cls-7" x1="194.63" y1="331.15" x2="194.63" y2="432.94"/><line class="cls-8" x1="192.02" y1="331.15" x2="192.02" y2="432.94"/><line class="cls-7" x1="204.44" y1="331.15" x2="204.44" y2="432.94"/><line class="cls-8" x1="201.82" y1="331.15" x2="201.82" y2="432.94"/><line class="cls-7" x1="214.24" y1="331.15" x2="214.24" y2="432.94"/><line class="cls-8" x1="211.63" y1="331.15" x2="211.63" y2="432.94"/><line class="cls-7" x1="224.04" y1="331.15" x2="224.04" y2="432.94"/><line class="cls-8" x1="221.43" y1="331.15" x2="221.43" y2="432.94"/><rect class="cls-10" x="231.85" y="326.01" width="103.52" height="110.86"/><rect class="cls-10" x="303.96" y="326.01" width="62.82" height="110.86"/><rect class="cls-11" x="303.96" y="325.99" width="62.82" height="110.86"/><rect class="cls-7" x="231.43" y="326.01" width="135.34" height="110.86"/><rect class="cls-7" x="303.96" y="326.01" width="62.82" height="110.86"/><line class="cls-7" x1="239.11" y1="330.52" x2="239.11" y2="432.32"/><line class="cls-8" x1="236.5" y1="330.52" x2="236.5" y2="432.32"/><line class="cls-7" x1="248.92" y1="330.52" x2="248.92" y2="432.32"/><line class="cls-8" x1="246.3" y1="330.52" x2="246.3" y2="432.32"/><line class="cls-7" x1="258.72" y1="330.52" x2="258.72" y2="432.32"/><line class="cls-8" x1="256.11" y1="330.52" x2="256.11" y2="432.32"/><line class="cls-7" x1="268.52" y1="330.52" x2="268.52" y2="432.32"/><line class="cls-8" x1="265.91" y1="330.52" x2="265.91" y2="432.32"/><line class="cls-7" x1="278.33" y1="330.52" x2="278.33" y2="432.32"/><line class="cls-8" x1="275.71" y1="330.52" x2="275.71" y2="432.32"/><line class="cls-7" x1="288.13" y1="330.52" x2="288.13" y2="432.32"/><line class="cls-8" x1="285.52" y1="330.52" x2="285.52" y2="432.32"/><line class="cls-7" x1="297.94" y1="330.52" x2="297.94" y2="432.32"/><line class="cls-8" x1="295.32" y1="330.52" x2="295.32" y2="432.32"/><rect class="cls-6" x="307.12" y="326.01" width="103.52" height="110.86"/><line class="cls-7" x1="315.01" y1="331.12" x2="315.01" y2="432.92"/><line class="cls-8" x1="312.39" y1="331.12" x2="312.39" y2="432.92"/><line class="cls-7" x1="324.81" y1="331.12" x2="324.81" y2="432.92"/><line class="cls-8" x1="322.2" y1="331.12" x2="322.2" y2="432.92"/><line class="cls-7" x1="334.62" y1="331.12" x2="334.62" y2="432.92"/><line class="cls-8" x1="332" y1="331.12" x2="332" y2="432.92"/><line class="cls-7" x1="344.42" y1="331.12" x2="344.42" y2="432.92"/><line class="cls-8" x1="341.8" y1="331.12" x2="341.8" y2="432.92"/><line class="cls-7" x1="354.22" y1="331.12" x2="354.22" y2="432.92"/><line class="cls-8" x1="351.61" y1="331.12" x2="351.61" y2="432.92"/><line class="cls-7" x1="364.03" y1="331.12" x2="364.03" y2="432.92"/><line class="cls-8" x1="361.41" y1="331.12" x2="361.41" y2="432.92"/><line class="cls-7" x1="373.83" y1="331.12" x2="373.83" y2="432.92"/><line class="cls-8" x1="371.22" y1="331.12" x2="371.22" y2="432.92"/><rect class="cls-9" x="379.23" y="326.01" width="62.82" height="110.86"/><rect class="cls-10" x="182.64" y="136.38" width="103.52" height="110.86"/><rect class="cls-10" x="254.75" y="136.38" width="62.82" height="110.86"/><rect class="cls-11" x="254.75" y="136.38" width="62.82" height="110.86"/><rect class="cls-7" x="182.23" y="136.38" width="135.34" height="110.86"/><rect class="cls-7" x="254.75" y="136.38" width="62.82" height="110.86"/><line class="cls-7" x1="190.32" y1="140.18" x2="190.32" y2="241.98"/><line class="cls-8" x1="187.71" y1="140.18" x2="187.71" y2="241.98"/><line class="cls-7" x1="200.13" y1="140.18" x2="200.13" y2="241.98"/><line class="cls-8" x1="197.51" y1="140.18" x2="197.51" y2="241.98"/><line class="cls-7" x1="209.93" y1="140.18" x2="209.93" y2="241.98"/><line class="cls-8" x1="207.32" y1="140.18" x2="207.32" y2="241.98"/><line class="cls-7" x1="219.74" y1="140.18" x2="219.74" y2="241.98"/><line class="cls-8" x1="217.12" y1="140.18" x2="217.12" y2="241.98"/><line class="cls-7" x1="229.54" y1="140.18" x2="229.54" y2="241.98"/><line class="cls-8" x1="226.93" y1="140.18" x2="226.93" y2="241.98"/><line class="cls-7" x1="239.34" y1="140.18" x2="239.34" y2="241.98"/><line class="cls-8" x1="236.73" y1="140.18" x2="236.73" y2="241.98"/><line class="cls-7" x1="249.15" y1="140.18" x2="249.15" y2="241.98"/><line class="cls-8" x1="246.53" y1="140.18" x2="246.53" y2="241.98"/><polyline class="cls-7" points="205.13 136.1 248.47 81.57 290.5 136.63 290.5 245.72"/><path class="cls-12" d="M259.1,70.51l-.31,5.29-3.32,6.25a4.9,4.9,0,0,0,1.4,6.23l.52.39a4.9,4.9,0,0,0,6.17-.26h0a4.9,4.9,0,0,0,.4-7l-1.2-1.34" transform="translate(-11.88 -7)"/><path class="cls-13" d="M265.59,72.94H254.53L251,54.32a9.18,9.18,0,0,1,9-10.87h0a9.18,9.18,0,0,1,9,10.87Z" transform="translate(-11.88 -7)"/><path class="cls-13" d="M263.18,72.94H252.12l-3.49-18.62a9.18,9.18,0,0,1,9-10.87h0a9.18,9.18,0,0,1,9,10.87Z" transform="translate(-11.88 -7)"/><path class="cls-14" d="M249.2,49.06l15.93,13.46.59-3.17-15-12.7A9.07,9.07,0,0,0,249.2,49.06Z" transform="translate(-11.88 -7)"/><path class="cls-14" d="M266.69,54.14a9.17,9.17,0,0,0-.16-3.81l-8.09-6.83a7,7,0,0,0-.79,0,9.06,9.06,0,0,0-3,.51Z" transform="translate(-11.88 -7)"/><polygon class="cls-14" points="246.97 65.94 238.97 59.19 239.79 63.55 242.62 65.94 246.97 65.94"/><polygon class="cls-14" points="237.63 52.02 251.68 63.89 252.28 60.73 236.81 47.66 237.63 52.02"/><line class="cls-15" x1="246.56" y1="36.5" x2="246.56"/><line class="cls-7" x1="241.45" y1="38" x2="241.45"/><line class="cls-7" x1="251.43" y1="38" x2="251.43"/><rect class="cls-6" x="264.51" y="214.84" width="103.52" height="110.86"/><line class="cls-7" x1="271.64" y1="219.09" x2="271.64" y2="320.88"/><line class="cls-8" x1="269.02" y1="219.09" x2="269.02" y2="320.88"/><line class="cls-7" x1="281.44" y1="219.09" x2="281.44" y2="320.88"/><line class="cls-8" x1="278.83" y1="219.09" x2="278.83" y2="320.88"/><line class="cls-7" x1="291.25" y1="219.09" x2="291.25" y2="320.88"/><line class="cls-8" x1="288.63" y1="219.09" x2="288.63" y2="320.88"/><line class="cls-7" x1="301.05" y1="219.09" x2="301.05" y2="320.88"/><line class="cls-8" x1="298.44" y1="219.09" x2="298.44" y2="320.88"/><line class="cls-7" x1="310.85" y1="219.09" x2="310.85" y2="320.88"/><line class="cls-8" x1="308.24" y1="219.09" x2="308.24" y2="320.88"/><line class="cls-7" x1="320.66" y1="219.09" x2="320.66" y2="320.88"/><line class="cls-8" x1="318.04" y1="219.09" x2="318.04" y2="320.88"/><line class="cls-7" x1="330.46" y1="219.09" x2="330.46" y2="320.88"/><line class="cls-8" x1="327.85" y1="219.09" x2="327.85" y2="320.88"/><rect class="cls-9" x="336.62" y="214.84" width="62.82" height="110.86"/><rect class="cls-16" x="327.67" y="390.07" width="139.63" height="28.64"/><ellipse class="cls-16" cx="446.41" cy="412.78" rx="16.5" ry="23.4"/><path class="cls-16" d="M466.78,429.63l0-2.44a32.29,32.29,0,0,0,.85-7.41,31.8,31.8,0,0,0-1.11-8.43l0-2L462,398l-3.71-1.62h-7.2c-9.12,0-16.5,10.48-16.5,23.41s7.38,23.4,16.5,23.4h7.2l3.53-5.62a23.43,23.43,0,0,0,3-4.79Z" transform="translate(-11.88 -7)"/><ellipse class="cls-17" cx="446.41" cy="412.78" rx="6.75" ry="9.58"/><ellipse class="cls-16" cx="409.42" cy="412.78" rx="16.5" ry="23.4"/><path class="cls-16" d="M429.79,429.63l0-2.44a32.64,32.64,0,0,0-.26-15.84l0-2L425,398l-3.71-1.62h-7.21c-9.11,0-16.5,10.48-16.5,23.41s7.39,23.4,16.5,23.4h7.21l3.52-5.62a23,23,0,0,0,3-4.79Z" transform="translate(-11.88 -7)"/><ellipse class="cls-17" cx="409.42" cy="412.78" rx="6.75" ry="9.58"/><rect class="cls-17" x="371.23" y="347.71" width="108" height="42.36"/><rect class="cls-17" x="371.23" y="384.11" width="108" height="5.97"/><rect class="cls-17" x="473.26" y="343.53" width="5.97" height="46.54"/><rect class="cls-16" x="325.29" y="328.62" width="47.14" height="74.59"/><rect class="cls-16" x="261.44" y="406.18" width="42.96" height="13.72"/><rect class="cls-16" x="222.06" y="385.9" width="105.61" height="25.06"/><ellipse class="cls-16" cx="324.09" cy="412.78" rx="16.5" ry="23.4"/><path class="cls-16" d="M344.46,429.63l0-2.44a32.29,32.29,0,0,0,.85-7.41,31.8,31.8,0,0,0-1.11-8.43l0-2L339.68,398,336,396.37h-7.2c-9.12,0-16.51,10.48-16.51,23.41s7.39,23.4,16.51,23.4H336l3.53-5.62a23.87,23.87,0,0,0,3-4.79Z" transform="translate(-11.88 -7)"/><ellipse class="cls-17" cx="324.09" cy="412.78" rx="6.75" ry="9.58"/><ellipse class="cls-16" cx="260.84" cy="412.78" rx="16.5" ry="23.4"/><path class="cls-16" d="M281.21,429.63l0-2.44a32.29,32.29,0,0,0,.85-7.41,31.8,31.8,0,0,0-1.11-8.43l0-2L276.43,398l-3.71-1.62h-7.2c-9.12,0-16.5,10.48-16.5,23.41s7.38,23.4,16.5,23.4h7.2l3.53-5.62a23.43,23.43,0,0,0,3-4.79Z" transform="translate(-11.88 -7)"/><polygon class="cls-13" points="221.46 390.07 286.5 390.07 286.5 354.87 293.56 316.68 228.52 316.68 221.46 354.31 221.46 390.07"/><polygon class="cls-13" points="293.56 316.68 329.7 316.68 329.7 389.89 286.45 389.89 286.5 354.87 293.56 316.68"/><polygon class="cls-18" points="297.65 322.65 326.48 322.65 326.48 347.71 310.37 347.71 302.61 354.27 302.61 366.21 291.87 366.21 291.87 350.1 297.65 322.65"/><rect class="cls-16" x="304.2" y="334.18" width="7.56" height="20.29"/><path class="cls-12" d="M319.66,361.87v3.38a2.19,2.19,0,0,1-2.19,2.19H306.53" transform="translate(-11.88 -7)"/><polygon class="cls-18" points="229.74 322.05 224.29 351.89 285.15 351.89 290.61 322.05 229.74 322.05"/><line class="cls-7" x1="250.65" y1="346" x2="248.66" y2="347.99"/><line class="cls-7" x1="272.69" y1="323.97" x2="252.47" y2="344.18"/><line class="cls-7" x1="251.81" y1="335.9" x2="239.71" y2="347.99"/><polygon class="cls-17" points="291.14 322.82 228 322.82 229.24 317.34 292.39 317.34 291.14 322.82"/><polygon class="cls-17" points="289 322.82 225.86 322.82 227.1 317.34 290.24 317.34 289 322.82"/><rect class="cls-17" x="217.88" y="393.06" width="72.8" height="19.69"/><rect class="cls-17" x="285.31" y="404.99" width="25.66" height="7.76"/><path class="cls-17" d="M319.86,419.6h-6V405.13a14.64,14.64,0,0,1,14.62-14.62h15.81v6H328.51a8.66,8.66,0,0,0-8.65,8.65Z" transform="translate(-11.88 -7)"/><path class="cls-17" d="M321.77,419.6h-6V405.13a14.63,14.63,0,0,1,14.62-14.62h15.81v6H330.43a8.67,8.67,0,0,0-8.66,8.65Z" transform="translate(-11.88 -7)"/><rect class="cls-16" x="223.74" y="375.57" width="58.21" height="2.4"/><rect class="cls-16" x="223.74" y="383.37" width="58.21" height="2.4"/><rect class="cls-16" x="233.34" y="354.57" width="6.6" height="2.4"/><rect class="cls-16" x="260.64" y="354.57" width="6.6" height="2.4"/><polyline class="cls-7" points="374.81 351.89 378.39 351.89 378.39 379.33"/><polyline class="cls-7" points="383.17 351.89 386.75 351.89 386.75 379.33"/><polyline class="cls-7" points="391.52 351.89 395.1 351.89 395.1 379.33"/><polyline class="cls-7" points="399.87 351.89 403.45 351.89 403.45 379.33"/><polyline class="cls-7" points="408.23 351.89 411.81 351.89 411.81 379.33"/><polyline class="cls-7" points="416.58 351.89 420.16 351.89 420.16 379.33"/><polyline class="cls-7" points="424.93 351.89 428.51 351.89 428.51 379.33"/><polyline class="cls-7" points="433.29 351.89 436.87 351.89 436.87 379.33"/><polyline class="cls-7" points="441.64 351.89 445.22 351.89 445.22 379.33"/><polyline class="cls-7" points="449.99 351.89 453.57 351.89 453.57 379.33"/><polyline class="cls-7" points="458.35 351.89 461.93 351.89 461.93 379.33"/><polyline class="cls-7" points="466.7 351.89 470.28 351.89 470.28 379.33"/><line class="cls-7" x1="5.87" y1="436.87" x2="477.12" y2="436.87"/><path class="cls-13" d="M111.14,197.15s-4.57,2.17-4.81,4.34-.73,9.87,1.68,12,6.5,3.86,9.15,4.82,7.46-1,7.46-1l-6-14.21a47.34,47.34,0,0,0-4.33-5.29A4.74,4.74,0,0,0,111.14,197.15Z" transform="translate(-11.88 -7)"/><polygon class="cls-16" points="98.3 174.75 96.86 193.04 100.47 191.84 99.75 174.75 98.3 174.75"/><path class="cls-16" d="M111.14,197.15s-4.09.24-5.54,2.89,0,12,.48,13,7.71.72,8.67-2.41-.48-12.75-.48-12.75S111.86,196.91,111.14,197.15Z" transform="translate(-11.88 -7)"/><path class="cls-13" d="M124.38,215.21a73.63,73.63,0,0,1-4.09-10.35c-1-3.85-1.45-6.26-4.09-7.47s-3.37-4.81-4.58-5-3.13,3.85-2.65,5,3.37,2.41,3.37,2.41a21.78,21.78,0,0,0-.48,8.19c.72,3.61,2.89,4.57,2.89,4.57" transform="translate(-11.88 -7)"/><path class="cls-19" d="M111.09,255.28s5.73,42.68,3.43,49.27-6.87,8-8.88,7.74-6-61.6-6-61.6Z" transform="translate(-11.88 -7)"/><path class="cls-13" d="M118.12,232.78,115,221.23s0-4.58,4.33-5.78a14.47,14.47,0,0,1,7.47-.24s20,32,21.66,33.7,0,12.28-2.16,15.65-6.74-2.89-12-11.07S118.12,232.78,118.12,232.78Z" transform="translate(-11.88 -7)"/><path class="cls-13" d="M62,200.52l-1.44,10.84,27.2,1.44v-8.91L83.94,185.6S69,200.28,65.88,200.28A16.15,16.15,0,0,0,62,200.52Z" transform="translate(-11.88 -7)"/><path class="cls-13" d="M89,172.6s2.17,2.89,2.17,4.09-1.2,1.2.24,2.17,5.54,1.92,5.06,3.37-3.37,6.5-3.37,6.5l2.64,6.74s1.45,5.78.24,6.5-5,1.44-6,.72-4.34-11.55-4.82-15.17-1.92-9.87-1.92-9.87Z" transform="translate(-11.88 -7)"/><path class="cls-16" d="M51.2,188.49s5.53,12,6.74,13.48,2.65,3.37,9.39,3.37,11.79-4.09,12.51-6.5,1-6.26,1.45-8.43,2.17.48,2.17.48,2.16,14,3.61,15.65,11.31.48,12-2.89-3.85-9.14-3.85-9.14l-1-1s.72,5.3-1.69,4.34-6.5-13.49-6.74-14.21a9.28,9.28,0,0,1,.48-4.33c.49-1,2.65-3.61,3.13-4.82a6.31,6.31,0,0,0,.49-2.16L52.16,185.6Z" transform="translate(-11.88 -7)"/><path class="cls-13" d="M77.68,178.38s-8.19,14-13.48,16.85-10.84-1.69-10.84-1.69a7.75,7.75,0,0,0,1.45,6c2.17,2.65,9.63,3.61,17.09-1.44s7.46-12.28,8.19-14.45,1.68-7,1.68-7Z" transform="translate(-11.88 -7)"/><path class="cls-13" d="M54.09,157.91s-7,4.1-7.47,12.28,3.61,14.69,3.61,16.37a7.88,7.88,0,0,1-1,3.37S93.81,172.6,95,172.36s-.72-1.69-.72-1.69L88.51,170s-4.09-10.83-8.67-14S69,152.14,62.51,154.06,54.09,157.91,54.09,157.91Z" transform="translate(-11.88 -7)"/><path class="cls-13" d="M84.18,193.06s-.48-5.54-2.65-6.5-3.13,2.89-2.17,6.5,5.3,3.37,5.3,3.37Z" transform="translate(-11.88 -7)"/><path class="cls-13" d="M53.36,214.73s3.13-4.58,7-6.74,13.48-3.13,20.7-1,9.63,4.34,9.87,5.06.48,1.68.48,1.68-20.7-1-27.93.49-10.35,2.16-10.35,2.16Z" transform="translate(-11.88 -7)"/><path class="cls-13" d="M31.7,228.69s-4.09,23.83-8.19,40-2.89,21.43,2.89,21.43,17.09-1.45,17.09-1.45L34.35,228Z" transform="translate(-11.88 -7)"/><line class="cls-13" x1="27.77" y1="265.98" x2="21.27" y2="273.93"/><path class="cls-13" d="M112.76,454.47s5.65,5.32,10,6.32,6.31,3,6.31,4c0,4.58-29.37,6.52-32.57,3.32-2-2-.66-12.63-.66-12.63Z" transform="translate(-11.88 -7)"/><path class="cls-13" d="M95.53,465.3a5,5,0,0,0,.94,2.8c3.2,3.2,32.57,1.26,32.57-3.32,0-.56-.64-1.42-1.93-2.25a54.58,54.58,0,0,1-14.35,3.25A56.42,56.42,0,0,1,95.53,465.3Z" transform="translate(-11.88 -7)"/><path class="cls-13" d="M75.86,454.14s.67,4.32,3.66,5.32,5,1.66,5,4.32-4.65,4.32-9,4.65-15.29.67-17,.34-1-13.63-1-13.63S71.87,456.8,75.86,454.14Z" transform="translate(-11.88 -7)"/><path class="cls-13" d="M57.53,464.17c.12,2.45.41,4.47,1,4.6,1.66.33,12.63,0,17-.34s9-2,9-4.65a3.22,3.22,0,0,0-.65-2.07,59.4,59.4,0,0,1-13.64,2.74A76.47,76.47,0,0,1,57.53,464.17Z" transform="translate(-11.88 -7)"/><path class="cls-16" d="M106.77,286s3,26.93,4,36.9,5.45,46.71,4.78,57.35-1.33,20.27-1.33,20.27-2.12,36.39-2.78,41.71-1,7.64-1,7.64l3,2.33.67,3.32s-10.64,2.66-12.3,2.66-6.32-.66-6.32-.66-2.66-36.57-2.66-38.23-2.32-31.58-2.32-33.57S88.83,375,88.83,375l-9.64-38.55S74.87,401,74.87,404.62s-1,44.2-1,44.2l2,3.66.33,2.66s-8,3.32-11.63,3.32-8.31-2-8.31-2-3.32-25.26-3.32-28.59V380.35c0-5.65.33-27.25.33-27.25l-5.32-31.58-.66-11.63s24.59-2.33,30.24-6.32,9-13.63,11.64-15.95S106.77,286,106.77,286Z" transform="translate(-11.88 -7)"/><path class="cls-13" d="M98.62,213.76s7,3.37,10.11,7.71,35.15,29.13,37.32,33.94,1.68,10.35-.73,13.48-14.68.24-18.29-1.2-20.46-12-20.46-12,3.77,37.22,3.77,40.35-13.52,3.78-13.52,3.78S95.49,275.63,96,266,98.62,213.76,98.62,213.76Z" transform="translate(-11.88 -7)"/><polygon class="cls-16" points="94.69 248.65 90.06 245.62 95.37 258.63 94.69 248.65"/><path class="cls-19" d="M53.12,216.41S31,226.28,31,228.21s12,81.85,16.37,85.46,10.59,8.18,25.51,6.26,25.28-6.74,28.41-17.09-.72-53.21.24-66.45a160.07,160.07,0,0,0,.24-22.14l-10.35-.49S68.53,211.36,53.12,216.41Z" transform="translate(-11.88 -7)"/><polygon class="cls-20" points="30.89 239.26 31.38 246.24 80.49 242.87 80 236.13 30.89 239.26"/><polygon class="cls-20" points="34.75 268.15 36.19 276.1 80.73 272.48 80.25 264.3 34.75 268.15"/></g></svg>