<svg id="Calque_1" data-name="Calque 1" xmlns="http://www.w3.org/2000/svg" viewBox="0 0 3000 2000.4"><defs><style>.cls-1{fill:transparent;}.cls-2{fill:#e3eefd;}.cls-3{fill:#ccdffe;}.cls-4{fill:#f85c3d;}.cls-5{fill:transparent;}.cls-6{fill:#a7bd38;}.cls-7{fill:#3f550a;}.cls-8{fill:transparent;}.cls-9{fill:#eecd76;}.cls-10{fill:#eda26a;}.cls-11{fill:#fff;}.cls-12{fill:#ffb6a5;}.cls-13{fill:#c7ddfd;}.cls-14{fill:#b9d4fd;}.cls-15{fill:#739afa;}.cls-16{fill:#8faffc;}</style></defs><path class="cls-1" d="M1797.89-576.69a8.52,8.52,0,0,0-4-1c-2,.11-4,0-6,0H-1198.72c-1.23,1.91-.75,3.75-.84,5.51-.06,1.2,0,2.4,0,3.6q0,990.2,0,1980.39c0,3.2-.58,6.52,1.41,9.43-2,0-4.64.75-3.63-3a9.16,9.16,0,0,0,0-2.4V-579.09H1792.49c1.4,0,2.8.06,4.2,0C1799.06-579.24,1797.39-577.44,1797.89-576.69Z" transform="translate(1202 579.11)"/><path class="cls-2" d="M-27.11-261.23c5.38-2.16,11.14-2.48,16.76-3.42,7.42-1.24,14.89-2.21,22.34-3.28a137.4,137.4,0,0,1,14.21-1.3c9.74-.38,19.41-1.93,29.22-1.56,10.37.39,20.77.18,31.16.06,12.76-.14,25.39,1.31,38.08,2.27,22.22,1.69,44.07,5.68,65.8,10.19a565.06,565.06,0,0,1,72.87,20.58c17.86,6.28,35.37,13.39,52.72,20.94,17,7.41,33.57,15.8,49.91,24.52A807.07,807.07,0,0,1,446.44-143c12.24,8.51,24.12,17.54,36.08,26.44a59.08,59.08,0,0,1,6.07,5.78Q502-97.41,515.29-84c4.79,4.79,8.6,10.49,13.74,15a5,5,0,0,1,1.5,5.44c-2.24-1.63-4.44-3.32-6.75-4.86-1-.67-2.33-1-3.28,0s-.21,2.22.63,3.08a30.66,30.66,0,0,0,8.71,6.19c2.6,1.28,3-.52,3.14-2.56,4.37.2,5,3.41,5.47,6.77,1.48,5.28,7.23,9.69,12.66,9.7.07,3.45,1.4,5.86,5.16,6.27l6,6.06c-.56,2.57.42,4.45,2.06,6.5,9.81,12.26,19.41,24.69,29.13,37S613,35.13,622.75,47.43c7.54,9.49,14.85,19.18,22.74,28.38,5.83,6.79,11.68,13.6,17.44,20.44,13.92,16.52,29.45,31.44,44.6,46.76,13.19,13.35,27.84,25,42.8,36.23,2.07,1.55,4.29,2.92,6.28,4.55a6.58,6.58,0,0,0,5.63,1.28c.92,1.27,1.8,2.56,2.77,3.79,1.11,1.41,2.29,2.78,4.41,2.08.77,2.41,4.29,3,4.06,6.05-.92,1.18-1.42,2.35-.33,3.74,2.44,3.1,3.36,7.39,7.06,9.44,1.31.73,2.28-.5,2.21-1.86-.07-1.64-1.17-2.92-2-4.26-1.4-2.16-3.44-3.89-4.23-6.46a4.46,4.46,0,0,1,3.4.7,277.6,277.6,0,0,0,48.92,22.29,236.52,236.52,0,0,0,40.43,10.18,302.5,302.5,0,0,0,44.5,3.77c9.2,0,18.18-1.73,27.21-3,4.71-.65,9.47-1,14.17-1.63,11-1.4,22.06-2.76,33.12-3.54,7.32-.51,14.75-.77,22-1.69,11.5-1.45,23.12.18,34.52-2.09a24.65,24.65,0,0,1,4.79-.09c16.59,0,33.19-.37,49.76.12,10.9.32,21.84.63,32.7,2.12,5.1.7,10.29.66,15.44,1.15a500.68,500.68,0,0,1,61.64,10,346.13,346.13,0,0,1,64.12,20.63,313.38,313.38,0,0,1,60.55,34.67c15.51,11.45,29.08,24.94,42.13,38.91,12.67,13.55,23.08,28.93,32.43,44.95a363.42,363.42,0,0,1,28.71,62.34,494.19,494.19,0,0,1,18.93,72,138.92,138.92,0,0,1,2.75,29c-.22,9.76,1.88,19.43,1.18,29.24-.87,12.09-1.09,24.21-2.17,36.3-.5,5.52-1.29,11-1.45,16.62,0,1.39.14,2.83-1.13,3.85h-262c-8.78,0-8-.69-8,8.1q0,54.85,0,109.72c0,5.69-.07,5.77-5.56,5.77q-36.56,0-73.13-.09c.64-7.15,1.3-14.29,1.93-21.44,1.3-14.73,1-29.46.32-44.23-.57-13.18-1.53-26.27-4-39.23-6.88-36.7-22.08-69.33-47.37-97.09-7.27-8-15.51-14.89-23.48-22.1,0-1.6.08-3.19.08-4.79v-172c0-7,0-7-7.36-7H856c-2.67-2.93-2.67-2.93-4.86,0H676.77c-8.8,0-7.93-.6-7.93,8.19q0,60.53,0,121.05c-1.6,1.51-3.22,3-4.79,4.52-8.9,8.73-15.3,18.9-17.75,31.29-1.39,7.05-2.63,14.12-3.92,21.19a8.47,8.47,0,0,1-1.78,4.45c-1.32-1.88-2.35-3.32-3.36-4.78L546.36,394.3c-14.52-21-28.93-42.16-43.57-63.12-11.62-16.62-27.6-22.82-47.49-19-4.11.79-8.21,1.66-12.32,2.48L226.44,358.12c-5.87-7.26-11.75-14.51-16.31-22.71,6.76-.52,13.52-1,20.27-1.59,11.5-1.07,23-2.28,34.49-3.39,9.32-.9,18.65-1.7,28-2.6,11.5-1.11,23-2.3,34.49-3.4,9.72-.92,19.45-1.7,29.17-2.66,14.26-1.42,28.51-3,42.78-4.4,9.92-1,19.85-1.8,29.78-2.56,2.55-.19,3.58-1.31,3.43-3.77-.06-1,0-2,0-3V22c0-6.68,0-6.68-7-7.19-1-.08-2-.16-3-.28-12.66-1.48-25.31-3-38-4.44-12.08-1.36-24.17-2.53-36.24-4-10.48-1.24-20.93-2.74-31.48-3.36a28.67,28.67,0,0,0-4.59-1c-11.19-.73-22.32-2-33.41-3.66-15.58-1.66-31.17-3.22-46.74-5C213-9.07,194-11.64,174.81-13.59c-5.3-.54-10.57-2-16-1.38a25.15,25.15,0,0,0-4.17.12q-29,5.55-58.07,11.21C79.39-.31,62.19,3.06,45,6.36c-15.06,2.89-30.12,5.77-45.2,8.5-2.69.48-3.89,1.64-3.77,4.31.06,1.4,0,2.8,0,4.19q0,46.72,0,93.44c0,2.39-.19,4.78-.3,7.17-3.18.6-5.93-1.25-8.94-1.58,1.39-.62,2.47-1.44,1.73-3.17s-1.63-3.21-2.22-4.89c-.94-2.68-2.64-3.64-5.45-3.29-3.35.43-6.73.56-10.1.82-1.7-5.09-1.66-5,2.73-8,5-3.32,10-6.64,14.15-11C-7.62,87.77-5,82-7.9,74.94a12.29,12.29,0,0,0-3.43-7.39c-8-8.7-15.09-18.25-23.74-26.38-.74-2.11-2.48-3.46-3.86-5.08q-4.92-5.78-9.83-11.54c5.09-1.66,10.25-3.14,15.25-5,4.8-1.81,9.61-3.73,13.79-7.64C-33,.52-47.65-7.28-64.56-10.74c2.3-2.57,5.32-4.19,8.08-6.15a23.16,23.16,0,0,0,9.56-14,31.73,31.73,0,0,0-1.9-19.35c-2.51-6.22-4.79-6.9-10.26-3C-68.52-46.57-78-39.91-87.3-33a18,18,0,0,1-10.93,3.77c-15.1.44-29.08,4.59-41.27,13.93-4.94,3.78-8.83,8.64-13.52,12.68a12.61,12.61,0,0,0-4,7.88A34.15,34.15,0,0,1-158.46,11a53.34,53.34,0,0,0-1.76,29.5c4.16,17.8,14.24,31.35,29.89,40.76A166.31,166.31,0,0,0-99.67,105.6c2.34,1.42,4.6,3.17,7.54,3.27.51,4,3,7.21,4.61,10.76,2.43,5.35,5.44,10.44,6.79,16.23-1.27,1.26-2.46,2.62-3.83,3.75-2.5,2.06-3,4.28-1.69,7.35,1.62,3.83,2.73,7.88,4.06,11.83C-88.46,168-94.67,177.31-101,186.51q-22.78,33-45.67,66c-6.59,9.51-7.55,19.48-2.5,30-2.79,7.67-4,15.61-2.05,23.55,4.33,17.76,15.43,29.74,32.17,36.9,11,4.7,22.38,3.41,33.7,2.82,16.14-.84,32.25-2.11,48.38-3.19q14.16,36.42,28.31,72.84c5.43,14.09,11.37,28,16.22,42.29q-46.5,0-93,.05c-9.69,0-8.82-1.08-8.82,8.52q0,62.4,0,124.79c0,1.6-.07,3.2,0,4.8.11,2.62-1.25,3.57-3.69,3.47-1.4-.06-2.8,0-4.2,0h-86.39c-8.33,0-7.71.64-7.71-7.84V290.84c0-1.6.07-3.2,0-4.8-.22-3.82-.86-4.48-4.62-4.72-1.59-.1-3.2,0-4.8,0H-371.88q-46.8,0-93.59,0c-6.41,0-6.72.34-6.75,6.81,0,8.8,0,17.6,0,26.4-12.69.09-25.38.24-38.07.24-10.51,0-21-.16-31.52-.25q2-14.14,4.94-28.11c4.44-21,9.57-41.86,15.71-62.42,4.67-15.64,10-31.1,15.59-46.43,4.82-13.08,10.1-26,15.49-38.84,1.84-4.41,3.79-8.78,5.77-13.13q15.18-33.21,33.46-64.83c10.49-18.12,21.34-36,33.25-53.19C-406.2-8.95-394-24.89-381.51-40.63c21.4-27,45.83-51.06,70.53-74.83a423.78,423.78,0,0,1,35.46-30.09c14.5-11.19,29.1-22.2,44.41-32.26a595.62,595.62,0,0,1,75.58-42.38,546.11,546.11,0,0,1,63.91-25.15c11.17-3.57,22.54-6.51,33.85-9.63,1.39-.39,2.8-.4,3.07-2.2,2.41-1.12,5.43.82,7.59-1.54l7.62.15c3.43,2.85,7.61,1.18,11.41,1.86,1.38.25,3.14.24,3.66-1.26C-23.69-260.06-25.84-260.42-27.11-261.23ZM456.33-112.07c-.08-.37,0-.93-.28-1.09-3.47-2.5-6.56-5.65-10.94-6.62a1.61,1.61,0,0,0-2,.9,1.87,1.87,0,0,0,.51,2.15c3,2.94,6.83,4.61,10.63,6.2C455.33-110.09,456.05-111,456.33-112.07Zm-101.8-54c-.07-.38,0-1-.23-1.1-3.84-2.29-7.4-5.28-12.15-5.39-1.33,0-2.42,1.11-1.26,2.35,3.22,3.48,7.78,4.39,12.1,5.63C353.71-164.34,354.35-165.18,354.53-166Zm-42.35-18.45c-.1-.33-.1-.91-.33-1-4-2-7.71-4.83-12.44-4.79a1.42,1.42,0,0,0-1,2.53c3.44,3.23,7.95,4.06,12.38,4.89C311.55-182.74,312.12-183.55,312.18-184.49ZM169.77-232c-1.74-.12-3.26-.09-3.63,1.6-.29,1.38.94,2.22,2,2.51,3.41.9,6.87,1.62,10.33,2.34a1.66,1.66,0,0,0,2.07-1.55,1.85,1.85,0,0,0-1.49-2.19C175.89-230.2,172.68-231.11,169.77-232ZM373-154.73c1.29.23,1.95-.2,2.21-1,.15-.49.15-1.42-.14-1.6-3.6-2.32-7.06-5-11.47-5.68a1.66,1.66,0,0,0-2,1,1.82,1.82,0,0,0,.6,2.12C365.48-157.18,369.59-156.26,373-154.73ZM833.28,296.64c-1.7.09-2.71,1.08-2.09,2.3,1.68,3.34,2.68,7,5,10.05.75,1,1.72,1.78,3,1a2,2,0,0,0,.65-2.63c-1.2-3.61-3.55-6.6-5.34-9.88C834.28,297,833.6,296.84,833.28,296.64ZM416.48-135.48c-.16-.32-.22-.82-.49-1-3.54-2.08-6.65-5-10.8-5.89a2.9,2.9,0,0,0-2.13.64c-.7.59-.42,1.5.17,2.09,3.18,3.14,7.24,4.68,11.39,6C415.58-133.37,416.42-134.26,416.48-135.48Zm86.4,52.87a5.8,5.8,0,0,0-1.51,1c-.54.75-.16,1.51.38,2.13,2.63,3,6.11,4.92,9.59,6.75a1.69,1.69,0,0,0,2.52-.62,2,2,0,0,0-.7-2.6c-2.49-1.92-5-3.83-7.58-5.63A11.61,11.61,0,0,0,502.88-82.61ZM465.15-107.8c-1.13.1-1.94.1-2.35,1a1.78,1.78,0,0,0,.53,2.12c3,3,6.72,4.74,10.49,6.43a1.87,1.87,0,0,0,1.53-.48c.63-.57.86-1.64.25-2.12C472.22-103.52,469.1-106.58,465.15-107.8ZM806.9,247.61c-1.59-3-3.16-5.91-4.78-8.83a4.33,4.33,0,0,0-2.59-2.3c-1.48-.39-2.72.57-2.17,1.76,1.78,3.91,3.24,8.08,6.65,11a1.41,1.41,0,0,0,2.09,0A6.11,6.11,0,0,0,806.9,247.61ZM247.16-207.95c-.11-.37-.11-.94-.35-1.07-3.95-2.2-8-4.26-12.67-4.17a1.52,1.52,0,0,0-1.53,1.51,2.05,2.05,0,0,0,1.24,1.85c3.46,2.05,7.47,2.42,11.25,3.51C246.21-206,246.84-206.93,247.16-207.95Zm21.9,7.32c-.19-.42-.3-1.24-.69-1.4-3.78-1.6-7.36-3.82-11.59-4.13a1.79,1.79,0,0,0-2,.93,1.67,1.67,0,0,0,.51,2.12c3.61,2.61,7.94,3.19,12.13,4.11C268.27-198.82,268.73-199.73,269.06-200.63Zm53.13,18.78c-1.28,0-2.33,0-2.69,1.21a1.87,1.87,0,0,0,.72,2.08c3.38,2.56,7.47,3.46,11.39,4.71.79.26,1.48-.45,1.77-1.23a1.55,1.55,0,0,0-.74-2C329.11-178.78,325.8-181,322.19-181.85ZM64.07-248c1.51-.1,3.22.4,3.44-1.63s-1.54-2-2.86-2.25c-3.14-.54-6.28-1.1-9.43-1.49a2.25,2.25,0,0,0-2.4,1.46,2.13,2.13,0,0,0,2,2.55C57.9-248.8,61.07-248.45,64.07-248Zm61,6.15c-2.15,0-3.5,0-4,1.34s.7,2.14,1.8,2.55c3.53,1.31,7.29,1.51,11,2a1.64,1.64,0,0,0,1.79-1.23,1.69,1.69,0,0,0-1.26-2.27C131-240.43,127.56-241.25,125-241.88Zm-16.48,1.21c2.67.16,4.19.57,4.53-1.45A1.57,1.57,0,0,0,112-244c-3.64-.84-7.29-1.64-11-2.25a2.15,2.15,0,0,0-2.66,1.72c-.14,1.38,1.08,2.12,2.23,2.36C103.63-241.47,106.75-241,108.56-240.67ZM80.12-250c-2.38-.19-4.08-.06-4.46,1.45s1.17,2.5,2.56,2.73c3.34.58,6.71,1,10.08,1.34a1.67,1.67,0,0,0,2-1.66c.09-1.22-.68-1.76-1.75-2Zm111.11,23.85c-1.93-.21-2.7.43-2.93,1.45a1.61,1.61,0,0,0,1,1.94c3.77,1.11,7.55,2.19,11.37,3.12a2,2,0,0,0,2.23-1.52c.26-.86-.41-1.48-1.11-1.86C198.25-224.92,194.28-225.3,191.23-226.15ZM483.81-95.54c-.59.35-1.23.53-1.54,1a1.67,1.67,0,0,0,.35,2.13c2.67,3,6.23,4.75,9.71,6.59a1.74,1.74,0,0,0,2.55-.57,2,2,0,0,0-.65-2.62c-2.7-2-5.45-3.86-8.24-5.71A9.54,9.54,0,0,0,483.81-95.54ZM436.5-123.87a2.89,2.89,0,0,0-.08-.59c-.63-1.83-9.94-7.25-11.93-6.85-1.49.3-2,1.46-1.07,2.58,2.91,3.41,7.11,4.8,11.08,6.45C435.6-121.82,436.22-122.84,436.5-123.87ZM147.32-237.17c-1.83.13-3.21,0-3.64,1.38s.72,2.16,1.82,2.57c3.51,1.33,7.24,1.7,10.93,2.21a1.61,1.61,0,0,0,1.76-1.27,1.73,1.73,0,0,0-1.27-2.27C153.53-235.53,150.12-236.41,147.32-237.17Zm75,23.87c1.11.16,2.32.28,2.7-1.28.19-.78.09-1.71-.77-2-3.72-1.24-7.24-3.11-11.21-3.5a2,2,0,0,0-2.33,1.39c-.28,1.07.47,1.83,1.37,2.35C215.19-214.53,218.84-214.45,222.29-213.3Zm605,503.12c2.17-.38,2.4-1.64,1.87-3.11-1.26-3.55-3.66-6.5-5.54-9.72-.58-1-1.64-.89-2.6-.35a1.5,1.5,0,0,0-.64,2c1.8,3.27,2.86,6.93,5.26,9.87A8.3,8.3,0,0,0,827.24,289.82Zm22.86,38.44c-.75-3.53-3.44-6.79-5.3-10.44a1.68,1.68,0,0,0-2.15-.39,1.55,1.55,0,0,0-1,1.9c1.67,3.73,2.55,7.88,5.42,11a1.7,1.7,0,0,0,2.11.52C850,330.45,850.19,329.72,850.1,328.26ZM279.35-198.6c-1.57,0-2.57.21-2.82,1.4a1.93,1.93,0,0,0,.91,2c3.41,2.24,7.36,3,11.21,4a1.58,1.58,0,0,0,1.91-1.06,1.59,1.59,0,0,0-.64-2.08C286.3-195.94,282.77-197.82,279.35-198.6ZM818.43,267.65c-1.36-4.17-4.11-7.6-6.61-11.14-.23-.32-1.14-.34-1.66-.21a1.43,1.43,0,0,0-1.06,1.84c1.68,3.8,3.07,7.8,6.07,10.85a1.61,1.61,0,0,0,2.18.29A7,7,0,0,0,818.43,267.65ZM38.34-251.45c1.57.09,3.14.22,4.71.24a1.62,1.62,0,0,0,1.65-1.38c.17-.85-.17-1.82-.94-1.93-4.06-.58-8-2.19-12.19-1.56a2,2,0,0,0-1.73,1.43c-.22,1.07.62,1.75,1.55,2.22C33.59-251.31,36-251.62,38.34-251.45ZM-8-255.67v0c1.18.09,2.36.19,3.54.27,1.45.1,3.05,0,3.19-1.75s-1.45-2.37-2.83-2.47c-3.34-.24-6.7-.25-10-.29-1.05,0-2,.37-2.05,1.61a1.82,1.82,0,0,0,1.71,2C-12.3-256-10.12-255.86-8-255.67ZM396-145.93c-.11-.36-.11-.83-.34-1.06-3.36-3.23-7.58-4.8-11.94-6-.35-.1-1.05.5-1.34.93a1.54,1.54,0,0,0,.34,2.14c3.56,2.1,7,4.41,11.09,5.49A1.75,1.75,0,0,0,396-145.93ZM15.51-253.86a4.52,4.52,0,0,0,1,0c1.86-.35,5,1.68,5.18-1.71.12-2.73-3-1.68-4.77-2-2.68-.55-5.38-1.4-8.18-.75-1,.23-1.85.75-1.83,1.94,0,.89.75,1.35,1.44,1.71C10.54-253.58,13-254,15.51-253.86ZM794.86,227.85c-1.35-4.3-4.4-7.5-7-11-.22-.29-1.15-.26-1.65-.08a1.47,1.47,0,0,0-1,1.91c1.85,3.72,3.42,7.64,6.56,10.56a1.69,1.69,0,0,0,2.2.16C794.41,229.13,794.55,228.44,794.86,227.85Z" transform="translate(1202 579.11)"/><path class="cls-3" d="M845.43,1043.21c-4.44,2.15-9.38,1.52-14,2.27-12.73,2-25.57,3.42-38.39,4.82-9.68,1.06-19.44,1.4-29.08,2.68-11,1.46-22.2,1.45-33.2,3.25-5.48.9-11.14.86-16.65,1.1-9,.37-17.94,1-26.81,1.8-10.51,1-21.14-.15-31.54,2a4.81,4.81,0,0,1-1.2,0c-13.39-.74-26.7.91-40,1.38-57.13,2-114.26,1.07-171.38.8-14.73-.07-29.54-.18-44.23-1.22-9.38-.66-18.74-.3-28.07-1-15.89-1.23-31.81-1.55-47.7-2.45-12.71-.72-25.4-1.7-38.11-2.43-11.51-.66-23-1.51-34.51-2.39-9.5-.73-19-1.59-28.51-2.37-13.66-1.13-27.3-2.46-41-3.6-13.84-1.15-27.61-3.1-41.43-4.57-12.64-1.34-25.32-2.34-37.94-3.78-11.43-1.31-22.79-3.32-34.23-4.44-10.49-1-20.89-2.62-31.33-3.93-10.23-1.29-20.41-3-30.62-4.48-9.23-1.33-18.47-2.6-27.71-3.89a4,4,0,0,1,.67-1c16.16-13.39,31.29-27.93,46.41-42.46,1.78-1.71,3.84-3.31,4.61-6.63A631.39,631.39,0,0,0-54,976.21c-27.76,3-55.13,8.13-81.71,18.12.4-2,1.62-2.44,2.52-3.14a188.31,188.31,0,0,0,25.5-24.44C-78.44,933.43-54.51,896.36-32,858.29c.75-1.27,2.1-2.58.75-4.56-11.25-.34-22.57.83-33.88,1.81-10.14.87-20.24,2.15-30.35,3.25a68.62,68.62,0,0,0,2.63-7.22c.63-2.57,3.13-4.59,2.19-7.59l0,.16c1.17.3,1.22-.88,1.79-1.36,1.31-5,4.58-7.74,9.74-8.38A45.34,45.34,0,0,0-73.57,833c.44.66.91,1.31,1.3,2,2.58,4.57,2.58,4.57,7.77,3.23l19.15-4.9c41-10.54,82.47-18.95,123.63-28.78,15.94-3.8,31.73-8.08,46.81-14.64,19.07-8.3,33.37-21.61,42.59-40.32a145.27,145.27,0,0,0,7.93-18.75c3.24-9.84,6.25-19.75,9.36-29.63,1.8,0,3.6.09,5.4.09h175.1c7,0,7,0,7-7.35q0-73.17,0-146.33c0-7.51-.37-7.13,7.24-7.12q65.07,0,130.13,0a27.31,27.31,0,0,0,8.82-1.22c1.23,1.29,2.52,2.52,3.68,3.87q35.5,41.24,71,82.5c9.89,11.47,19.88,22.85,29.83,34.26,1.72,2.65,3.29,5.42,5.2,7.92,9,11.79,20.51,18.43,35.74,17.42,7.32.56,13.73-2.3,20.08-5.37.59,6.2-.43,12.36-.46,18.54a377.11,377.11,0,0,0,4.07,56.06c6.83,47,21.15,91.66,41.94,134.27,23.94,49.06,55.44,92.8,93.36,132C830.44,1028.3,838,1035.71,845.43,1043.21ZM434.86,707.31V568.81c0-1.4,0-2.8,0-4.2-.14-4.81-.15-4.87-5.22-4.91-7.19-.05-14.39,0-21.58,0-8.78,0-8-.65-8,8.15q0,138.81,0,277.61v.6c0,7.93-.68,7.63,7.32,7.62h20.38c7.5,0,7.1.38,7.1-7.25Zm50.39-31.38V568c0-1.4-.09-2.81,0-4.2.24-3.12-1.19-4.21-4.23-4.17-8.39.12-16.79,0-25.18.05-5.3,0-5.3.09-5.4,5.33,0,.8,0,1.59,0,2.39V783.84c0,1.4.05,2.8,0,4.2,0,2.26,1.09,3.23,3.3,3.22q14.09,0,28.17,0c2.21,0,3.33-1,3.3-3.23,0-1.59,0-3.19,0-4.79Z" transform="translate(1202 579.11)"/><path class="cls-4" d="M845.43,1043.21c-7.45-7.5-15-14.91-22.35-22.5-37.92-39.16-69.42-82.9-93.36-132-20.79-42.61-35.11-87.26-41.94-134.27a377.11,377.11,0,0,1-4.07-56.06c0-6.18,1-12.34.46-18.54.92-11.72,1.74-23.46,3.83-35.07,5.74-31.75,17.74-60.77,37.36-86.54,5.81-7.64,12.7-14.32,18.95-21.57.94-.71,2-1.34,2.82-2.13A201.69,201.69,0,0,1,808,496.24c5-2,10-3.94,14.95-5.9A52.13,52.13,0,0,0,834.53,487l27.47-5.6c17.14-2.16,34.36-2.39,51.6-2L941.16,483l30.11,8c9.24,3.75,18.6,7.21,27.58,11.62,12.24,6,23.46,13.61,34.65,21.3,8,7.21,16.21,14.12,23.48,22.1,25.29,27.76,40.49,60.39,47.37,97.09,2.44,13,3.4,26,4,39.23.64,14.77,1,29.5-.32,44.23-.63,7.15-1.29,14.29-1.93,21.44-2.45,14.95-4.89,29.9-8.45,44.65C1079.64,867,1045,932.79,996.05,991.3c-8.7,10.4-18,20.32-27,30.46-14.3,13.89-28.55,27.84-43.94,40.56-8.15,6.73-16.43,13.31-24.72,19.87-4,3.14-4.08,3.12-8.09,0q-22.83-17.48-44.07-36.85C847.37,1044.59,846.37,1043.93,845.43,1043.21ZM812.51,672.15c1,29.29,14.11,54,44.11,67.6,20.94,9.53,42.67,9.89,64.2,2,19.88-7.33,34.43-20.77,42.5-40.58A81,81,0,0,0,969,661.23c-3-27.52-16.14-48.2-41.09-60.6a81.31,81.31,0,0,0-49-7.49c-16.93,2.47-31.89,9-44.12,21C819.39,629.28,812.92,648.13,812.51,672.15Z" transform="translate(1202 579.11)"/><path class="cls-5" d="M-541.85,314.51c10.5.09,21,.26,31.52.25,12.69,0,25.38-.15,38.07-.24,2.19.09,4.38.25,6.57.25q58.8,0,117.58,0c17.54,0,31.65,11.88,34.4,29.07,3.68,23.07,7.12,46.19,10.61,69.3q6.86,45.33,13.63,90.67c4.6,30.41,9.3,60.81,13.89,91.23q7.47,49.47,14.84,99,8.88,59,17.9,117.9c.91,5.86,1,11.9,3.22,17.54-.09,4,.69,7.92,1.28,11.86,1.82,12.19,3.39,24.42,5.23,36.6,1.74,11.59,3.81,23.14,5.55,34.73,2.22,14.74,4.18,29.53,6.38,44.27,2.23,14.94,4.65,29.85,6.93,44.78,1.76,11.59,3.38,23.21,5.17,34.8s3.77,23.14,5.53,34.73c1.82,12,3.11,24.07,5.31,36,1.94,10.51-1.06,18.8-9,25.63-2.46,2.12-5.64,3-8.27,4.79-2,.1-4,.3-5.95.3l-137.49,0c-2.18,0-4.36.19-6.55.3a23.61,23.61,0,0,0-7.17,0,40.53,40.53,0,0,0-10.78,0c-18.27-.09-36.53-.23-54.8-.25-9.73,0-19.46.17-29.19.27-1.58-.1-3.17-.27-4.75-.27q-64.27,0-128.53.06c-1.59,0-3.17.2-4.75.31-9.46-.11-18.92-.19-28.37-.34-2.55,0-5.1-.28-7.65-.42-2.19-1-4.41-1.85-6.55-2.89-11.68-5.66-18.26-14.9-19.92-27.82-.71-5.51-1.74-11-2.53-16.5-2.07-14.54-4.63-29-6.83-43.55-2.22-14.73-4.13-29.51-6.35-44.24-2.19-14.53-4.66-29-6.86-43.55-1.83-12-3.4-24-5.17-36-1.86-12.57-3.62-25.17-5.86-37.67-1-5.81-.73-11.91-3.39-17.41.39-8.07-1.74-15.84-2.89-23.71-4.95-34-10.18-68-15.33-101.93q-8.73-57.46-17.49-114.93c-5.41-35.75-10.7-71.52-16.1-107.27S-767.65,448.7-773.07,413Q-778.36,378-783.51,343c-2.2-15.12,8.59-27.73,23.93-28.1,6.2-.15,12.4,0,18.6,0q96.57,0,193.15-.11C-545.84,314.77-543.85,314.6-541.85,314.51ZM-369,375.66a13.92,13.92,0,0,0-7.33-.16c-1.59-.11-3.18-.31-4.77-.31q-65.68,0-131.37,0c-1.79,0-3.61-.2-5.34.47-2.33-.87-4.75-.49-7.13-.49q-104.88,0-209.78,0c-1.2,0-2.4.07-3.59,0-3-.22-3.68.8-3.19,3.87,2.71,16.93,5.15,33.91,7.7,50.87q4.56,30.17,9.14,60.33c2.59,17.16,5.1,34.33,7.73,51.48,2,12.8,4.09,25.59,6.14,38.39,1.31,9.26,2.56,18.53,3.94,27.78q4.46,29.83,9,59.68c2.17,14.17,4.43,28.32,6.65,42.48.4,3.15.73,6.31,1.2,9.45,2.56,17.08,5.09,34.16,7.75,51.22,2.15,13.71,3.74,27.51,6.48,41.14,1.58,11.25,3.07,22.53,4.75,33.77,3.83,25.64,7.67,51.28,11.69,76.89,1,6.68,1.48,13.48,3.41,20a35.26,35.26,0,0,0,.64,7.1c2.66,17.28,5.11,34.59,7.89,51.84,2.05,12.75,3.37,25.61,6.09,38.24a38.56,38.56,0,0,0,.19,4.17c1.46,9.65,3,19.29,4.47,28.93.73,4.75.7,4.83,5.59,4.85q19.46.06,38.89,0c2.37,0,4.79.51,7.09-.48,8.51.08,17,.28,25.52.22,9.49-.07,19,.44,28.48-.32,2.18.11,4.36.31,6.54.32q50.22,0,100.43,0c3.15,0,6.34.77,9.47-.23a21.23,21.23,0,0,0,2.37.27q84.18,0,168.34,0c1.36,0,2.82.26,4.16-1.14-1.71-11.42-3.44-23-5.19-34.66q-5.1-34-10.24-68c-2.8-18.33-5.71-36.65-8.57-55a9.65,9.65,0,0,0,0-1.78c-4.39-29.15-8.7-58.32-13.27-87.45-1-6.27-1.31-12.67-3.28-18.77-.19-7.62-1.89-15-3-22.52q-5.55-37.91-11.47-75.75c-1.56-10.05-2.59-20.19-4.84-30.13-.07-1.38,0-2.79-.24-4.15q-4.08-27.18-8.23-54.35c-2.13-13.76-4.38-27.5-6.58-41.25-.73-5.53-1.36-11.08-2.19-16.6-4.23-28.22-8.43-56.43-12.81-84.62-1.41-9-2.26-18.18-4.46-27.09-.17-6.6-1.66-13-2.63-19.51-2.9-19.47-6-38.93-9-58.39-.43-.36-.86-1-1.29-1-6.53.05-13.08-.48-19.6.39Zm-180-20.55h30.53c2,0,4,0,6,0,2.82-.05,5.07-1,6-4,.76-2.5-.4-5.5-2.76-7.38-2-1.63-4.43-1.62-6.84-1.62h-70c-.8,0-1.6,0-2.4,0-2.63.05-4.72,1.08-5.6,3.66-1,2.75.07,5.09,2,7.07,2.17,2.21,5,2.24,7.8,2.24Q-566.68,355.09-549,355.11Z" transform="translate(1202 579.11)"/><path class="cls-3" d="M969.06,1021.76c9-10.14,18.29-20.06,27-30.46C1045,932.79,1079.64,867,1097.62,792.62c3.56-14.75,6-29.7,8.45-44.65q36.57,0,73.13.09c5.49,0,5.56-.08,5.56-5.77q0-54.85,0-109.72c0-8.79-.73-8.1,8-8.1h262c.13,6.13-1.16,12-2.51,18l-222.32,0c-1.6,0-3.2-.05-4.8,0-4.15.17-4.34.27-4.39,4.52-.08,7.79,0,15.58,0,23.37,0,8.79-.75,8.1,8,8.1h215.14c-1.43,7.73-4,15.13-6.64,22.51-.23.64-1.1,1.06-1.67,1.59-.8,0-1.6-.09-2.4-.09H1225.79c-.6,0-1.2,0-1.8,0-4.16.2-4.35.27-4.4,4.52-.09,7.79,0,15.59,0,23.38,0,9.28,0,9.29,9.09,9.29l192.45,0a334.49,334.49,0,0,1-17.95,33c-10.23,16.94-22.16,32.63-34.81,47.77a370.67,370.67,0,0,1-35,36.12,496.23,496.23,0,0,1-70.25,53.53c-14.51,9.13-29.42,17.61-44.53,25.76-15.65,8.45-31.8,15.81-48,23.11-15.24,6.89-30.87,12.93-46.58,18.73-16.29,6-32.74,11.49-49.29,16.7-27.72,8.72-55.72,16.43-84.12,22.65C983.43,1018.67,976.39,1020.85,969.06,1021.76Z" transform="translate(1202 579.11)"/><path class="cls-2" d="M-605.46,1138.39c1.58-.11,3.16-.3,4.75-.31q64.26,0,128.53-.06c1.58,0,3.17.17,4.75.27.3,1.73,1.48,2.27,3.05,2.14,9-.77,17.91.84,26.83,1.41,9.1.58,18.26.53,27.33,2,5.27.88,10.72.78,16.05,1.05,7.95.41,15.88,1.17,23.82,1.71,8.1.54,16.26.58,24.33,2,5.47.94,11.11.75,16.64,1.1,7.54.49,15.08,1.21,22.61,1.74,7.7.53,15.47.58,23.14,2,5.46,1,11.11.74,16.64,1.11,7.33.5,14.68,1.27,22,1.78,7.5.52,15.08.46,22.54,1.91,5.06,1,10.32.81,15.44,1.11,7.54.45,15.09,1.21,22.62,1.74,7.7.53,15.46.58,23.13,2,5.46,1,11.11.74,16.64,1.11,7.34.5,14.69,1.26,22,1.78,7.5.54,15.08.49,22.54,1.9,5.45,1,11.11.75,16.65,1.12,7.33.5,14.68,1.26,22,1.78,7.49.54,15.07.49,22.54,1.9,5.44,1,11.11.76,16.64,1.12,7.53.49,15.08,1.22,22.61,1.74,7.7.53,15.47.59,23.13,2,5.47,1,11.12.78,16.65,1.11,7.74.47,15.47,1.29,23.21,1.74,7.9.47,15.91.35,23.73,2a7.93,7.93,0,0,0,2.38.17c8.41-.71,16.69,1,25,1.46,11.09.58,22.2,1.52,33.29,2.34,10.7.78,21.43,1.44,32.09,2.44,13.25,1.25,26.59,1.25,39.78,3.21,5.88.87,11.93.82,17.85,1.06,8.76.34,17.52,1,26.21,1.79,7.9.67,15.94,0,23.73,1.93a5.42,5.42,0,0,0,1.79.16c9.2-.75,18.36.71,27.41,1.57,8.31.8,16.77-.31,24.95,1.89a7.28,7.28,0,0,0,2.38.15c9.8-.76,19.49,1,29.24,1.46,13.1.58,26.2,1.55,39.3,2.34,12.9.79,25.79,1.65,38.69,2.4,13.9.82,27.79,1.68,41.7,2.42,13.7.73,27.39,1.66,41.1,2.37q23,1.2,45.89,2.5c8,.45,16,.13,23.84,1.13,8.37,1.07,16.79.17,25,1.2,9,1.13,18,.08,26.85,1.23,9,1.16,18,0,26.85,1.16,10.18,1.29,20.4,0,30.45,1.23,11,1.32,22-.06,32.85,1.17,13,1.48,26-.09,38.84,1.22,16.18,1.63,32.33.25,48.46,1,51.94,2.58,103.89.71,155.84.91,10.09,0,20.28-.93,30.44-.94,1.09,0,2.29-.42,3.54.66-6.76,2.31-13.72,2.64-20.45,4-14.77,3-29.61,5.7-44.46,8.28-22.29,3.86-44.52,8.06-66.78,12.07-17.18,3.1-34.37,6.16-51.53,9.36-17,3.17-34,5.86-51,8.88-11.53,2-23,4.36-34.53,6.45-12.69,2.3-25.41,4.43-38.09,6.72-11.72,2.11-23.41,4.38-35.13,6.49-7,1.26-13.87,2.08-21.24,1.08-8.61-1.17-17.29-2.4-26-3-8.29-.53-16.5-2.26-24.77-3.18-4.34-.48-8.69-.91-13-1.37-9.87-1-19.69-2.5-29.55-3.44-8.3-.79-16.51-2.25-24.86-2.8s-16.5-2.22-24.77-3.14c-4.54-.51-9.08-1-13.63-1.44-9.66-1-19.28-2.53-28.94-3.38-8.32-.73-16.6-1.78-24.85-2.86-8.85-1.16-17.76-1.71-26.59-3.15-8.4-1.38-17-1.78-25.45-2.72-7.7-.85-15.43-1.54-23-2.9-4.71-.85-9.48-1.14-14.18-1.66-13.8-1.55-27.59-3.15-41.37-4.9-11.81-1.5-23.69-2.41-35.52-3.77-8.27-.95-16.47-2.68-24.76-3.22-8.54-.57-16.94-2.13-25.46-2.82s-16.93-2-25.39-3.11c-4.13-.52-8.25-1.21-12.4-1.56q-14.83-1.25-29.55-3.43c-8.44-1.23-17-1.67-25.47-2.64s-16.91-2.19-25.36-3.3c-4.13-.54-8.29-.67-12.45-1.27-11.77-1.68-23.68-2.49-35.5-3.87-12-1.41-24-3.21-36-4.63-8.68-1-17.4-1.56-26.08-2.56-8.27-1-16.47-2.62-24.76-3.24s-16.17-1.91-24.27-2.75c-9.07-.93-18.08-2.53-27.16-3.24-8.13-.63-16.17-1.91-24.26-2.75-9.07-.94-18.1-2.26-27.16-3.3-8.48-1-17-1.94-25.48-2.59-4.17-.33-8.26-1.13-12.42-1.53-10.06-1-20.1-2.26-30.14-3.5-11.6-1.44-23.23-2.82-34.82-4.34-8.44-1.1-17-1.78-25.45-2.83s-17-1.58-25.38-3.13c-4.27-.79-8.68-1-13-1.42-9.87-1.06-19.71-2.21-29.54-3.52-8.46-1.14-17-1.66-25.48-2.63s-16.89-2.3-25.36-3.25c-4.15-.46-8.3-1.23-12.42-1.37a139.15,139.15,0,0,1-14.81-1.65c-11.79-1.65-23.64-2.86-35.44-4.21-12.21-1.4-24.42-3-36.7-4-11.44-1-22.79-3.05-34.21-4.39-4.33-.5-8.69-.92-13-1.34-9.29-.9-18.5-2.3-27.75-3.41-4.53-.54-9.08-1-13.63-1.48q-14.19-1.5-28.36-3.26c-5.1-.64-10.22-1.62-15.41-1.58C-603.35,1140.47-605,1140.56-605.46,1138.39Z" transform="translate(1202 579.11)"/><path class="cls-2" d="M-365.49,1138.29c2.19-.11,4.37-.3,6.55-.3l137.49,0c2,0,4-.2,5.95-.3,8,.39,15.95-1.26,24-1.17.43.69,1,1.62,1.79,1.36,5.75-2,11.4.27,17.1.27,105.78-.09,211.58-1.09,317.34.23,119.94,1.49,239.87-.54,359.79,1.23,58.75.87,117.48.44,176.22.8s117.6-.76,176.37.27c119.53,2.09,239.07-.52,358.58,1.3,82.15,1.25,164.28.16,246.42.94,1.51,0,3.09-.4,5.35.78-7.24,1.41-13.77,2.76-20.34,3.95-10.15,1.84-20.32,3.55-30.48,5.35q-22.27,3.93-44.53,7.94c-16,2.92-32,6-48,8.88-12.68,2.3-25.4,4.44-38.09,6.71-11.53,2.06-23,4.22-34.56,6.31-15,2.72-30.06,5.38-45.09,8.11-9.57,1.73-19.14,3.44-28.67,5.38a32.87,32.87,0,0,1-6.53.56c-9.8,0-19.65.65-29.38-.18-11.76-1-23.58-.12-35.23-1.29-9.8-1-19.59,0-29.26-1.08-11.36-1.29-22.79-.1-34-1.29-10-1.06-20,0-29.85-1.13-11.37-1.29-22.8,0-34-1.28-10-1.11-20,0-29.86-1.09-11.36-1.2-22.78-.18-34-1.33-8.8-.89-17.56-.19-26.27-1-12.74-1.23-25.57-.22-38.23-1.38-9.79-.89-19.58,0-29.25-1.07-11.37-1.29-22.79-.08-34-1.29-10.39-1.12-20.79,0-31-1.13-11-1.22-22,0-32.84-1.27-10-1.14-20-.06-29.86-1.1-11.36-1.2-22.78-.18-34-1.33-8.79-.89-17.56-.18-26.26-1-12.35-1.2-24.77-.21-37-1.37-10-1-20,0-29.86-1.07-11.56-1.21-23.18-.16-34.63-1.31-10-1-20,0-29.86-1.12-11.17-1.26-22.39-.06-33.44-1.26-10.59-1.14-21.18,0-31.65-1.15-10.77-1.19-21.59,0-32.24-1.25-10.19-1.16-20.38-.06-30.45-1.12-11.57-1.21-23.19-.1-34.64-1.31-9.8-1-19.58,0-29.26-1.09-11-1.23-22-.1-32.84-1.29-10.39-1.13-20.78,0-31-1.13-11.17-1.24-22.39-.07-33.44-1.25-10.39-1.12-20.8,0-31.05-1.18-10.78-1.26-21.59,0-32.24-1.2s-21.59,0-32.25-1.2-21.2,0-31.65-1.21-21.18,0-31.65-1.17c-10.77-1.19-21.59,0-32.24-1.25-10.39-1.19-20.78,0-31-1.14-11.17-1.24-22.39-.06-33.44-1.26-10.59-1.14-21.19,0-31.65-1.15-10.78-1.19-21.6,0-32.24-1.25-10.19-1.16-20.38-.07-30.46-1.12-11.16-1.16-22.39-.11-33.43-1.3-10-1.08-20-.06-29.86-1.09-11.16-1.15-22.38-.18-33.44-1.31-10.19-1-20.37,0-30.45-1.1-11.17-1.16-22.39-.12-33.44-1.3-10-1.08-20-.06-29.86-1.09-11.56-1.2-23.1-1-34.66-1.07C-363.51,1140.44-365.11,1140.42-365.49,1138.29Z" transform="translate(1202 579.11)"/><path class="cls-2" d="M894.57-15.88c3.54-6.8,8.15-12.46,12.36-18.4,7.9-11.15,17.61-20.69,27.64-29.78,11.79-10.68,25.35-19,41.34-21.4a66,66,0,0,1,26.75,1c4.55,1.2,4.51,1.06,5.79-3.11,5.13-16.77,12.95-32,24.57-45.36,14.89-17.19,33.55-28,55-34a108.46,108.46,0,0,1,39-4c20.25,1.77,39.65,6.9,56.83,18.18,15.66,10.29,28.52,23.34,37.38,40.18,6.19,11.75,10.72,23.94,12.65,37.06.36,2.42,1.5,3.1,3.62,2.65a10.3,10.3,0,0,0,2.21-.91c6.26-3,12.85-3.65,19.75-3.83,11.3-.28,21.09,3.35,30.28,9.45,13.76,9.12,22.48,21.73,26.42,37.71.86,3.47.79,7.08,1.55,10.6.71,3.29-.73,4.52-4.38,4.77-1.39.09-2.79,0-4.19,0q-203.62,0-407.23,0C899.66-15.13,897.25-14.65,894.57-15.88Z" transform="translate(1202 579.11)"/><path class="cls-6" d="M-95.53,858.79c10.11-1.1,20.21-2.38,30.35-3.25,11.31-1,22.63-2.15,33.88-1.81,1.35,2,0,3.29-.75,4.56-22.46,38.07-46.39,75.14-75.64,108.46a188.31,188.31,0,0,1-25.5,24.44c-.9.7-2.12,1.13-2.52,3.14,26.58-10,54-15.07,81.71-18.12a631.39,631.39,0,0,1,83.43-3.45c-.77,3.32-2.83,4.92-4.61,6.63-15.12,14.53-30.25,29.07-46.41,42.46a4,4,0,0,0-.67,1c-10.86,8.15-21.17,17-32.26,24.86-14,10-28.36,19.43-43.88,27a6.11,6.11,0,0,0-2.39,1.91c35.06-5.17,69.37-1.9,103.3,6.87-.2,2.16-1.69,2.15-2.66,2.52A1011,1011,0,0,1-126,1124.76a2,2,0,0,1-.6,0c-1.71-2.94-4.88-4-7.47-5.83a113.11,113.11,0,0,1-38.33-44.37c-4.93-10.18-7.14-21.11-9.49-32q-11.52-53.5-23.08-107c-7.2-33.32-14.33-66.66-21.76-99.93-1.29-5.76-1.59-11.85-4.49-17.22a128.16,128.16,0,0,1,18-19.93C-191.22,778.14-166,762.87-139,750.5c1.41-.65,2.77-1.71,4.56-1.14,1.14,1.63.56,3.47.29,5.16-2.3,14.78-4.5,29.59-7.77,44.2-2.71,12.07-5.49,24.13-8.23,36.18-1,1.24-1.94,2.49-2.9,3.75-12.34,16.06-22.21,33.38-26.84,53.29-1.29,5.56-2.76,11.21-1.36,17a20.94,20.94,0,0,0,1,7c3.29,13.3,13.13,18.75,26.3,14.68a57,57,0,0,0,17.86-9.43c10.66-8.16,18.11-18.93,24.84-30.31C-105.13,880.65-100.82,869.48-95.53,858.79Z" transform="translate(1202 579.11)"/><path class="cls-6" d="M-724.85,952.73c-6.28-9-13.09-17.61-18.92-26.93a334.19,334.19,0,0,1-38.74-89.19c-.36-1.31-1-2.64,0-4.2,3.32.38,6.31,2,9.42,3.16a449.32,449.32,0,0,1,55,25c1.57.85,3.05,1.85,4.58,2.79-.31,8.43,1.46,16.66,2.36,25,2,18.82,4.14,37.64,5.92,56.48,1.8,19,3.65,38.11,4.76,57.21,1.15,19.91,2.93,39.81,2.8,59.78-.11,19,.88,37.94-1.22,56.87-.44,4-1.79,7.81-1.36,11.86-35.74-6.57-70.15-17.13-102.34-34.26-23.85-12.69-45.24-28.56-62.63-49.46-1.91-2.3-3.73-4.68-5.56-7.06a16.75,16.75,0,0,1-1.1-2.4,617.38,617.38,0,0,1,67.62,1.66c22.27,1.76,44.41,4.51,66.44,9.91-58.14-35-99.64-83.45-122.64-147.08,1.44-1.33,2.24-1.13,3-.93,36.76,9.63,72.82,21.23,107,38.22,8.58,4.28,16.55,9.6,24.84,14.39a1.36,1.36,0,0,0,1.47.9c.21.36.27,1.4.81.25.12-.25-.51-.45-.9-.14C-723.77,953.71-724.31,953.22-724.85,952.73Z" transform="translate(1202 579.11)"/><path class="cls-2" d="M547.26-167.5c.54-2.56,2.09-3.51,3.5-4.53,16.62-12,35.4-15.8,55.49-14.64,2.69.16,5.6,2.62,8,.32,1.78-1.72,2.48-4.51,3.84-6.71,7.85-12.65,18.81-21.9,32.66-26.9a73.21,73.21,0,0,1,48.67-.65,61.14,61.14,0,0,1,33.22,26c1.11,1.73,1.77,3.67,4.47,2,9.87-6.16,19.45-3.78,28.95,1.1A77.08,77.08,0,0,1,777.56-184c4.69,3.59,4.55,3.7,7.94-.77,3.61-4.76,8.22-8.39,14.08-9.55,10.29-2,20.25-1,29.2,5.12,6,4.13,11.09,9.1,14.09,15.9,2.07,4.7,1.48,5.69-3.51,5.84-1,0-2,0-3,0H547.26Z" transform="translate(1202 579.11)"/><path class="cls-2" d="M1443.93,678.48H1228.79c-8.78,0-8,.69-8-8.1,0-7.79-.06-15.58,0-23.37,0-4.25.24-4.35,4.39-4.52,1.6-.06,3.2,0,4.8,0l222.32,0c-.71,8.84-3.45,17.28-5.23,25.92A37.29,37.29,0,0,1,1443.93,678.48Z" transform="translate(1202 579.11)"/><path class="cls-7" d="M-231.19,818.35c2.9,5.37,3.2,11.46,4.49,17.22,7.43,33.27,14.56,66.61,21.76,99.93q11.56,53.49,23.08,107c2.35,10.92,4.56,21.85,9.49,32A113.11,113.11,0,0,0-134,1118.89c2.59,1.79,5.76,2.89,7.47,5.83a499.46,499.46,0,0,1-60.32,11c-1.57.19-3.2,0-4.65.82-8-.09-15.93,1.56-24,1.17,2.63-1.82,5.81-2.67,8.27-4.79,7.93-6.83,10.93-15.12,9-25.63-2.2-11.92-3.49-24-5.31-36-1.76-11.59-3.75-23.14-5.53-34.73s-3.41-23.21-5.17-34.8c-2.28-14.93-4.7-29.84-6.93-44.78-2.2-14.74-4.16-29.53-6.38-44.27-1.74-11.59-3.81-23.14-5.55-34.73-1.84-12.18-3.41-24.41-5.23-36.6-.59-3.94-1.37-7.85-1.28-11.86C-236.8,825.78-234.53,821.66-231.19,818.35Z" transform="translate(1202 579.11)"/><path class="cls-2" d="M1421.1,739.7l-192.45,0c-9.08,0-9.08,0-9.09-9.29,0-7.79-.06-15.59,0-23.38.05-4.25.24-4.32,4.4-4.52.6,0,1.2,0,1.8,0h207.43c.8,0,1.6,0,2.4.09.23,3.93-1.32,7.53-2.82,10.91C1428.94,722.24,1425.88,731.36,1421.1,739.7Z" transform="translate(1202 579.11)"/><path class="cls-7" d="M-700.23,1130.54c-.43-4,.92-7.91,1.36-11.86,2.1-18.93,1.11-37.91,1.22-56.87.13-20-1.65-39.87-2.8-59.78-1.11-19.1-3-38.16-4.76-57.21-1.78-18.84-3.89-37.66-5.92-56.48-.9-8.31-2.67-16.54-2.36-25l8.55,4.65c2.66,5.5,2.35,11.6,3.39,17.41,2.24,12.5,4,25.1,5.86,37.67,1.77,12,3.34,24,5.17,36,2.2,14.53,4.67,29,6.86,43.55,2.22,14.73,4.13,29.51,6.35,44.24,2.2,14.53,4.76,29,6.83,43.55.79,5.51,1.82,11,2.53,16.5,1.66,12.92,8.24,22.16,19.92,27.82,2.14,1,4.36,1.93,6.55,2.89-15.79-.46-31.41-2.54-47-4.92C-692.41,1132.1-696.31,1131.27-700.23,1130.54Z" transform="translate(1202 579.11)"/><path class="cls-5" d="M586.79-17.12c-.42,1.29-1.24,2.26-2.59,1.44-3.57-2.15-7-4.54-9.42-8-.51-.71-.67-1.51,0-2.1a2,2,0,0,1,1.61-.47c4.58,1.45,7.12,5.4,10.29,8.57C586.8-17.59,586.76-17.32,586.79-17.12Z" transform="translate(1202 579.11)"/><path class="cls-5" d="M-335.4-191.06a5.25,5.25,0,0,1-.82,1.35c-2.94,2.72-6.56,4.33-10.13,6a1.53,1.53,0,0,1-2.06-.59c-.44-.72-.64-1.77,0-2.18,3.44-2.24,6.39-5.35,10.55-6.33C-336.75-193.08-335.36-193.09-335.4-191.06Z" transform="translate(1202 579.11)"/><path class="cls-5" d="M-556.44,81.47c.75-3.46,2.76-6.69,4.12-10.17a1.53,1.53,0,0,1,2-.84c1.07.38,1.73,1.25,1.34,2.28-1.32,3.5-1.83,7.29-3.8,10.54-.52.85-1.28,1.65-2.4,1.36C-556.74,84.23-556.49,82.9-556.44,81.47Z" transform="translate(1202 579.11)"/><path class="cls-5" d="M-591.2,215c.61-2.93,1.26-6.42,2.12-9.85a1.71,1.71,0,0,1,2.39-1.07,1.72,1.72,0,0,1,1.25,1.8c-.49,3.51-1,7-1.62,10.51-.21,1.13-.8,2.47-2.22,2.36C-591.15,218.59-591,217-591.2,215Z" transform="translate(1202 579.11)"/><path class="cls-5" d="M660.28,52.84a8,8,0,0,1,2.25,1.29c2.3,2.46,4.48,5,6.69,7.58a1.64,1.64,0,0,1,.08,2.17,1.78,1.78,0,0,1-2.62.36c-3.51-2.38-5.95-5.81-8.46-9.09C657.35,54,658.4,52.94,660.28,52.84Z" transform="translate(1202 579.11)"/><path class="cls-5" d="M-594.43,237.88c.52-3,1-6.08,1.62-9.18.2-1,.81-1.87,2-1.77,1.43.13,2,1,1.81,2.44-.31,2.94-.5,5.89-.89,8.82-.2,1.53-.48,3.51-2.48,3.45S-594.31,239.57-594.43,237.88Z" transform="translate(1202 579.11)"/><path class="cls-5" d="M-126-254.21c-1.67-.64-4.93,1.63-5.22-1.61-.27-3.07,3.2-2,5-2.48a18.86,18.86,0,0,1,8.19-.45,1.81,1.81,0,0,1,1.54,1.58,1.79,1.79,0,0,1-1.24,1.77C-120.27-254.26-123.08-254.54-126-254.21Z" transform="translate(1202 579.11)"/><path class="cls-5" d="M-581.37,184.17c-.46,2.91-.79,5.86-1.42,8.74-.32,1.48-1,3.46-3,2.94s-1.68-2.51-1.37-4c.6-2.89,1.42-5.73,2.07-8.6.31-1.37,1-2.15,2.43-1.85C-581,181.68-581.21,183-581.37,184.17Z" transform="translate(1202 579.11)"/><path class="cls-5" d="M-366.27-170.85c-.57-.32-1.22-.47-1.51-.88a1.63,1.63,0,0,1,.15-2.18c3.13-2.36,5.92-5.24,9.64-6.73a2.29,2.29,0,0,1,2.72.49c.8,1,.12,1.92-.58,2.6A37.1,37.1,0,0,1-366.27-170.85Z" transform="translate(1202 579.11)"/><path class="cls-5" d="M-326.49-195.26c-1.35.09-2-.35-2.22-1.17-.13-.49-.06-1.39.25-1.58,3.46-2.19,6.61-5,10.72-5.94a2,2,0,0,1,2.47,1.07,1.83,1.83,0,0,1-.74,2.06C-319.2-198.07-323.17-196.83-326.49-195.26Z" transform="translate(1202 579.11)"/><path class="cls-5" d="M-497.88-30.31c-2.32,3.09-3.31,7.55-6.8,10.4a2.14,2.14,0,0,1-1.66.19,1.49,1.49,0,0,1-1-1.91c1-4.41,4.25-7.44,6.7-10.95.19-.27,1.12-.23,1.6-.05C-498.23-32.35-497.75-31.7-497.88-30.31Z" transform="translate(1202 579.11)"/><path class="cls-5" d="M-485.32-50.71c0,.43.11.93-.08,1.2-2.25,3.24-3.67,7-6.63,9.8a2,2,0,0,1-2.67.33,1.61,1.61,0,0,1-.39-2.16c2.19-3.27,3.42-7.21,6.56-9.82C-487.34-52.35-486-52.68-485.32-50.71Z" transform="translate(1202 579.11)"/><path class="cls-5" d="M-466.71-76.34c-1.27-.54-2.18-1.41-1.55-2.34,2.31-3.39,4.2-7.15,7.61-9.66a1.89,1.89,0,0,1,2.68.14,1.63,1.63,0,0,1,.13,2.17c-2.34,2.91-4.15,6.25-7,8.73A8.41,8.41,0,0,1-466.71-76.34Z" transform="translate(1202 579.11)"/><path class="cls-5" d="M-592.3,258.42c0,.57,0,2.37,0,4.16a2.22,2.22,0,0,1-2.17,2.38c-1.56,0-2-1.22-1.89-2.48.18-3.4.45-6.78.69-10.17.1-1.31.59-2.4,2.1-2.37s2,1.15,1.85,2.48C-591.85,254-592,255.6-592.3,258.42Z" transform="translate(1202 579.11)"/><path class="cls-5" d="M-546.55,63.11c-.91,0-1.56-.52-1.53-1.41.14-4.71,2.63-8.53,5-12.28.7-1.09,2.77-.16,2.53,1-.92,4.35-1.9,8.78-5,12.3C-545.7,63-546.19,63-546.55,63.11Z" transform="translate(1202 579.11)"/><path class="cls-5" d="M562.27-33l-6-6.06c.39-1.61,1.34-2.56,3-1.82,3.9,1.74,6.51,5.11,9.56,7.91.29.26.24,1.14.06,1.63a1.43,1.43,0,0,1-1.93.87C565.35-31.23,563.83-32.16,562.27-33Z" transform="translate(1202 579.11)"/><path class="cls-5" d="M653.58,46.4c-.47,1.43-1.5,1.86-2.72,1.07-3.51-2.28-6-5.66-8.61-8.8a1.46,1.46,0,0,1,.47-2.08c.44-.3,1.32-.64,1.59-.43,3.41,2.63,6.87,5.24,9.09,9.06A3.57,3.57,0,0,1,653.58,46.4Z" transform="translate(1202 579.11)"/><path class="cls-5" d="M-562.28,106.51a1.72,1.72,0,0,1-1.83-1.86c.39-4.4,2.29-8.33,4.39-12.08.68-1.22,2.21-.45,2.72.81.59,1.43-2.91,11.65-4.2,12.65A5.05,5.05,0,0,1-562.28,106.51Z" transform="translate(1202 579.11)"/><path class="cls-5" d="M-102.16-256.13c-1.47,0-3.06.07-4.63,0a1.66,1.66,0,0,1-1.63-1.44,1.67,1.67,0,0,1,1.12-1.88c4.22-1.38,8.57-.85,12.88-.64.8,0,1.23,1.05,1,1.87a1.89,1.89,0,0,1-1.58,1.57C-97.31-256.44-99.68-256.31-102.16-256.13Z" transform="translate(1202 579.11)"/><path class="cls-5" d="M-402.9-142.83c-1.31-.28-2.46-1.44-1.57-2.41,2.92-3.16,5.65-6.69,9.85-8.3,1.13-.43,2.54-.07,2.37,1.62C-392.45-149.95-400.74-143-402.9-142.83Z" transform="translate(1202 579.11)"/><path class="cls-5" d="M-570.67,139.62c-1.23,3.11-.89,6.86-2.76,10a2,2,0,0,1-2.43,1.13,1.79,1.79,0,0,1-1.08-1.91c-.07-4.26,2-8,3.24-11.85.28-.85,1.29-.9,2-.59C-570.23,137-570.46,138.23-570.67,139.62Z" transform="translate(1202 579.11)"/><path class="cls-5" d="M-172.48-247.95c-1.63.08-2.22.13-2.8.13a1.58,1.58,0,0,1-1.69-1.29c-.2-.84,0-1.81.78-2,3.79-1,7.54-2.18,11.49-2.31a2.27,2.27,0,0,1,2.36,1.44,2.14,2.14,0,0,1-1.89,2.56C-167.29-248.76-170.4-248.31-172.48-247.95Z" transform="translate(1202 579.11)"/><path class="cls-5" d="M729.08,133.55c-.28,1.56-1.4,2-2.57,1.21-3.68-2.51-5.55-6.57-8.1-10-.2-.26.12-1.21.48-1.53a2.3,2.3,0,0,1,3.22.24c2.85,2.51,4.5,6,6.75,9C729.07,132.65,729,133.13,729.08,133.55Z" transform="translate(1202 579.11)"/><path class="cls-5" d="M734.36,140.73c2,.15,9.09,9.42,8.55,11.38a1.57,1.57,0,0,1-2.73.88c-3.37-2.59-5.26-6.37-7.47-9.85C732,142,733,141,734.36,140.73Z" transform="translate(1202 579.11)"/><path class="cls-5" d="M-480.3-58.13c-1.29,0-2-.76-1.73-1.85,1.21-4.59,4.71-7.62,7.9-10.74.87-.84,2.69.59,2.2,1.69-1.85,4.11-4.16,8-7.86,10.79C-479.92-58.14-480.16-58.16-480.3-58.13Z" transform="translate(1202 579.11)"/><path class="cls-5" d="M593.84-11.45A9.3,9.3,0,0,1,596-10.36q3.76,3.4,7.41,7a1.73,1.73,0,0,1,0,2.64,1.64,1.64,0,0,1-2.17.2,30.32,30.32,0,0,1-8.9-7.9,1.77,1.77,0,0,1-.1-2.21C592.6-11,593.26-11.18,593.84-11.45Z" transform="translate(1202 579.11)"/><path class="cls-5" d="M-522.37,7.29c1.15.42,2.24,1.1,1.69,2.15-1.91,3.65-2.69,7.89-5.66,11a1.67,1.67,0,0,1-2.14.43,1.81,1.81,0,0,1-1-2c1-4.12,3.66-7.38,5.68-11C-523.57,7.52-522.78,7.46-522.37,7.29Z" transform="translate(1202 579.11)"/><path class="cls-5" d="M685.16,80.09c-.67,1.52-1.5,2.27-2.86,1.36-3.54-2.36-5.7-6-8.35-9.18a1.82,1.82,0,0,1,0-1.64,1.77,1.77,0,0,1,2-.75,5.15,5.15,0,0,1,2.91,1.93c1.81,2.1,3.57,4.25,5.28,6.42A10.11,10.11,0,0,1,685.16,80.09Z" transform="translate(1202 579.11)"/><path class="cls-5" d="M-570.82,125.22c.48-3.4,2.22-6.74,3.45-10.25a1.62,1.62,0,0,1,2-.74c.82.22,1.51.9,1.31,1.7-.9,3.61-1.88,7.21-3,10.77-.34,1.08-1.19,2.27-2.58,1.87S-570.82,126.75-570.82,125.22Z" transform="translate(1202 579.11)"/><path class="cls-5" d="M-149-251.62c-1.68-.41-4.51,1.52-5-1.29-.57-3.14,2.66-2.05,4.32-2.56a16.77,16.77,0,0,1,4.68-.89c2,0,5.23-1.37,5.46,1.65.2,2.71-3.21,2.24-5.19,2.74A25.22,25.22,0,0,1-149-251.62Z" transform="translate(1202 579.11)"/><path class="cls-5" d="M-219.52-237.72a2.08,2.08,0,0,1-2.42-1.28,1.71,1.71,0,0,1,1.14-2.34c3.37-1,6.78-2,10.21-2.84,1.13-.27,2.57-.13,3,1.21.58,1.79-1,2.52-2.22,2.88C-213-239.16-216.28-238.49-219.52-237.72Z" transform="translate(1202 579.11)"/><path class="cls-5" d="M-373.93-165.88a8,8,0,0,1-.88,1.43,35.28,35.28,0,0,1-9,6.66,1.91,1.91,0,0,1-2.63-.38,1.5,1.5,0,0,1,.1-2.15c3.11-2.39,5.64-5.59,9.36-7.12C-375.76-167.93-374.15-168.13-373.93-165.88Z" transform="translate(1202 579.11)"/><path class="cls-5" d="M-189.16-249.25c2.33.09,4-.15,4.22,1.72.18,1.38-1.09,2-2.24,2.27-3.45.75-6.92,1.43-10.41,2a1.71,1.71,0,0,1-2-1.61,1.6,1.6,0,0,1,1.15-1.82C-195.09-247.65-191.68-248.56-189.16-249.25Z" transform="translate(1202 579.11)"/><path class="cls-5" d="M-426.46-121.42c.2,1.7-8,10.27-9.94,10.12-1.07-.08-2-1-1.53-2,1.86-4.36,5.77-6.88,9.33-9.64C-427.89-123.5-426.74-122.72-426.46-121.42Z" transform="translate(1202 579.11)"/><path class="cls-5" d="M776.16,197.59c.79,2.57,2.83,4.3,4.23,6.46.86,1.34,2,2.62,2,4.26.07,1.36-.9,2.59-2.21,1.86-3.7-2-4.62-6.34-7.06-9.44-1.09-1.39-.59-2.56.33-3.74Z" transform="translate(1202 579.11)"/><path class="cls-5" d="M619.17,15.43a5,5,0,0,1-1-.37,31.48,31.48,0,0,1-8.6-8,2,2,0,0,1-.31-2.19,1.68,1.68,0,0,1,2.11-.61c4.2,2,6.95,5.6,9.52,9.28C621.41,14.37,620.4,15.33,619.17,15.43Z" transform="translate(1202 579.11)"/><path class="cls-5" d="M756.43,170.6c-.24,1.42-1.36,2-2.5,1.17-3.59-2.64-5.42-6.67-7.6-10.39-.44-.75.3-1.46,1-1.93a1.2,1.2,0,0,1,1.62,0c2.74,3.32,6.09,6.2,7.52,10.45A3.47,3.47,0,0,1,756.43,170.6Z" transform="translate(1202 579.11)"/><path class="cls-5" d="M769.42,190.94c-2.12.7-3.3-.67-4.41-2.08-1-1.23-1.85-2.52-2.77-3.79-.85-1.54-1.73-3-2.51-4.62a1.61,1.61,0,0,1,.7-2,1.53,1.53,0,0,1,2.15.09C765,182.58,770.06,185.21,769.42,190.94Z" transform="translate(1202 579.11)"/><path class="cls-5" d="M-582.49,169.63c.83-3.09,1.7-6.52,2.71-9.9a1.65,1.65,0,0,1,1.92-1,1.65,1.65,0,0,1,1.58,2c-.63,3.48-1.3,6.95-2.12,10.38-.27,1.11-1,2.36-2.45,2.12C-582.66,172.94-582.46,171.34-582.49,169.63Z" transform="translate(1202 579.11)"/><path class="cls-5" d="M706,104.74a7,7,0,0,1,1.8.9c2.82,2.52,4.63,5.84,6.87,8.83a1.56,1.56,0,0,1-.42,2.12,1.7,1.7,0,0,1-2.18.08c-3.47-2.71-5.83-6.36-8.06-10.06C703.39,105.64,704.55,104.94,706,104.74Z" transform="translate(1202 579.11)"/><path class="cls-5" d="M637.52,29.74c-.29,1.36-1.14,2.31-2.47,1.56-3.87-2.17-6.58-5.64-9.2-9.08-.77-1,.28-2.3,1.78-2.22C629.57,20.09,637.4,27.89,637.52,29.74Z" transform="translate(1202 579.11)"/><path class="cls-5" d="M-452-94.27c-1.4-.27-2.3-1.32-1.44-2.46,2.37-3.12,4.4-6.56,7.63-8.94,1-.76,2.31-.91,3.14.25.64.88.17,1.87-.53,2.66-2.08,2.37-4.12,4.76-6.24,7.09A3.48,3.48,0,0,1-452-94.27Z" transform="translate(1202 579.11)"/><path class="cls-5" d="M-27.11-261.23c1.27.81,3.42,1.17,2.69,3.27-.52,1.5-2.28,1.51-3.66,1.26-3.8-.68-8,1-11.41-1.86.26-1.84,1.25-2.55,3.15-2.5C-33.26-261-30.18-261.16-27.11-261.23Z" transform="translate(1202 579.11)"/><path class="cls-5" d="M700,97.46c-.16,1.64-1.33,2.15-2.47,1.43-3.74-2.36-5.95-6.14-8.36-9.71-.48-.71.13-1.59.78-2a1.81,1.81,0,0,1,1.66-.05c2.9,2.91,6.16,5.51,8.18,9.19A3.55,3.55,0,0,1,700,97.46Z" transform="translate(1202 579.11)"/><path class="cls-5" d="M533-61.81c-.09,2-.54,3.84-3.14,2.56a30.66,30.66,0,0,1-8.71-6.19c-.84-.86-1.69-1.94-.63-3.08s2.28-.65,3.28,0c2.31,1.54,4.51,3.23,6.75,4.86Z" transform="translate(1202 579.11)"/><path class="cls-5" d="M-294.46-212.26a5.69,5.69,0,0,1-1,1.51c-3.22,2.46-7.06,3.63-10.83,4.9a1.51,1.51,0,0,1-1.92-1,1.59,1.59,0,0,1,.53-2.12c3.55-1.76,6.74-4.33,10.73-5.13A2,2,0,0,1-294.46-212.26Z" transform="translate(1202 579.11)"/><path class="cls-5" d="M-517.39.52a1.85,1.85,0,0,1-1.41-2.25c1-4.12,3.93-7.22,6-10.73.38-.63,1.39-.63,2.17-.24a1.49,1.49,0,0,1,.9,1.93c-1.92,3.42-3,7.27-5.66,10.3A2.8,2.8,0,0,1-517.39.52Z" transform="translate(1202 579.11)"/><path class="cls-5" d="M-409.79-137.31c.14,2-8.28,10-10.38,9.76-1.39-.15-2.27-1.48-1.31-2.53,2.77-3,5.2-6.49,9-8.39C-411.4-139-410.14-138.86-409.79-137.31Z" transform="translate(1202 579.11)"/><path class="cls-5" d="M-537.51,42a1.74,1.74,0,0,1-1.71-2c.7-4.36,3.13-8,5.49-11.55.64-1,2.85-.49,2.57.86-.9,4.37-2.05,8.76-5.3,12.16A3.52,3.52,0,0,1-537.51,42Z" transform="translate(1202 579.11)"/><path class="cls-5" d="M-287.37-217.3c.21-.38.38-1.17.8-1.33,3.51-1.4,6.62-3.77,10.44-4.41,1-.17,2.11-.21,2.66.81.77,1.44-.37,2.27-1.36,2.87-3.1,1.87-6.58,2.84-10,3.86C-286.13-215.12-287.24-215.47-287.37-217.3Z" transform="translate(1202 579.11)"/><path class="cls-5" d="M-251.61-229.28c0,.77-.75,1.39-1.6,1.87-3.3,1.84-7,2.54-10.59,3.52a1.59,1.59,0,0,1-1.93-.92c-.35-.8-.22-1.89.4-2.15,3.79-1.53,7.3-3.91,11.53-4.19A1.82,1.82,0,0,1-251.61-229.28Z" transform="translate(1202 579.11)"/><path class="cls-5" d="M551.11-45.34c-5.43,0-11.18-4.42-12.66-9.7.94-.2,2-.58,2.82,0C545.09-52.35,549.83-50.6,551.11-45.34Z" transform="translate(1202 579.11)"/><path class="cls-5" d="M-78.34-257.15c-1.58,0-3.15,0-4.73,0-1,0-2.08-.27-2.25-1.44a2,2,0,0,1,2-2.37,39.16,39.16,0,0,1,7.65-.12c1.81.21,5.14-1.55,5.08,2,0,2.78-3.1,1.45-4.85,1.8a15.28,15.28,0,0,1-3,0Z" transform="translate(1202 579.11)"/><path class="cls-5" d="M-241.78-231.25c-1.07,0-1.86-.18-2.19-1.06a1.68,1.68,0,0,1,1-2.42c3.56-1.23,7-3.06,10.77-3.46a1.94,1.94,0,0,1,2.36,1.33,2.1,2.1,0,0,1-1.33,2.38C-234.56-232.57-238.47-232.51-241.78-231.25Z" transform="translate(1202 579.11)"/><path class="cls-5" d="M-47.11-258.71c-2.16,2.36-5.18.42-7.59,1.54-2-.15-3.93-.25-5.88-.5a1.68,1.68,0,0,1-1.51-1.57A1.57,1.57,0,0,1-60.91-261a26.09,26.09,0,0,1,13.27.71C-47.32-260.23-47.28-259.27-47.11-258.71Z" transform="translate(1202 579.11)"/><path class="cls-2" d="M-383.44,1138.27a40.53,40.53,0,0,1,10.78,0A12.93,12.93,0,0,1-383.44,1138.27Z" transform="translate(1202 579.11)"/><path class="cls-8" d="M185,701.18c-3.11,9.88-6.12,19.79-9.36,29.63a145.27,145.27,0,0,1-7.93,18.75c-9.22,18.71-23.52,32-42.59,40.32-15.08,6.56-30.87,10.84-46.81,14.64C37.12,814.35-4.36,822.76-45.35,833.3l-19.15,4.9c-5.19,1.34-5.19,1.34-7.77-3.23-.39-.68-.86-1.33-1.3-2-2.22-6.58-6.2-12.29-9.35-18.4-3-5.94-5.79-12.07-9.8-17.48-2-3.75,1.18-4.84,3.35-6.38,46.15-33,92.25-66,138.58-98.72,5.55-3.92,9.17-7.76,7.95-14.78,1.76-.29,2.12-1.52,2.11-3.07-.09-9.58,2.19-18.94,2.61-28.49.19-4.32.86-8.69,1.32-13,1-9.47,2.5-18.9,3.19-28.39s2-19,2.84-28.47c1-10.46,2-21,3.38-31.37.69-5.13.88-10.29,1.51-15.42.67-5.51,1.62-11,1.88-16.55.24-5.38,1.12-10.69,1.62-16,1-10.87,2.33-21.71,3.38-32.57.54-5.59.57-11.44,6.08-15.44,6.76-4.89,13-10.58,19.67-15.54,14.9-11,29.87-21.88,45.59-31.74,16.9-10.6,34-20.85,51.6-30.2,7-3.73,13.94-7.69,20.91-11.54l1.59-1.25L443,314.7c4.11-.82,8.21-1.69,12.32-2.48,19.89-3.86,35.87,2.34,47.49,19,14.64,21,29.05,42.08,43.57,63.12L637.2,526c1,1.46,2,2.9,3.36,4.78a8.47,8.47,0,0,0,1.78-4.45c1.29-7.07,2.53-14.14,3.92-21.19,2.45-12.39,8.85-22.56,17.75-31.29,1.57-1.54,3.19-3,4.79-4.52,10-7.24,20.92-11.94,33.57-11.47,4.48,1.71,9.63,1.76,13.34,5.37-.44,1.38-1.69,1.54-2.82,1.9a60.71,60.71,0,0,0-11,4.8c-15.88,8.69-26.6,21.61-30.41,39.4s-6.63,35.52-10,53.28c-5,25.94-10.18,51.83-14.91,77.81-2,11.05-.58,21.72,5.69,31.57,3.27,5.12,8.09,8.65,11.8,13.26-15.23,1-26.77-5.63-35.74-17.42-1.91-2.5-3.48-5.27-5.2-7.92a12.59,12.59,0,0,0-.47-4.13,40.39,40.39,0,0,1-.91-20c1.57-8.4,3.32-16.76,4.93-25.15,3.62-18.92,7.14-37.86,10.69-56.79,1.22-6.49,2.41-13,3.64-19.64-1.78.15-2,1.27-2.5,2.07l-31,47.64c-4.78,7.36-9.5,14.76-14.37,22.06-2.28,3.41-3.09,3.33-5.54,0-.83-1.12-1.55-2.32-2.34-3.47Q567.13,575.79,549,549.09q-25.2-37.12-50.34-74.28c-10.06-14.87-19.76-30-30.22-44.56-10-13.87-22.46-20.7-41.51-13.7-8.21,3-15.24,7.86-22.06,13a163.12,163.12,0,0,1-46.15,24.79,184.63,184.63,0,0,1-39,8.43,161.87,161.87,0,0,1-38.12-.63c-14.87-1.82-29.11-6.46-43-12.06-2.32-.94-4.34-2.79-7.15-2.68a60.55,60.55,0,0,0-1.88,9.51c-.75,6.89-2.09,13.73-3.1,20.6-1.37,9.43-2.64,18.88-4,28.31-1.39,9.63-3,19.22-4.21,28.87-1.13,9.06-3.48,18-2.95,27.24-1.73,2.58-1.78,5.65-2.39,8.54-6.78,32.11-13.46,64.24-20.25,96.35C190.24,678.32,187.54,689.74,185,701.18Z" transform="translate(1202 579.11)"/><path class="cls-3" d="M57.16,677.22c1.22,7-2.4,10.86-7.95,14.78C2.88,724.71-43.22,757.76-89.37,790.72c-2.17,1.54-5.35,2.63-3.35,6.38l-8.1,4.92c-3.49-.8-6.71.29-9.85,1.55a66.75,66.75,0,0,0-14.86,8.76c-9,6.67-16.71,14.7-24.58,22.58,2.74-12.06,5.52-24.12,8.23-36.19,3.27-14.61,5.47-29.42,7.77-44.2.27-1.69.85-3.53-.29-5.16-1.79-.57-3.15.49-4.56,1.14-27.06,12.37-52.26,27.64-74.21,47.92a128.16,128.16,0,0,0-18,19.93c-3.34,3.31-5.61,7.43-8.43,11.13-2.2-5.64-2.31-11.68-3.22-17.54Q-252,753-260.74,694q-7.45-49.49-14.84-99c-4.59-30.42-9.29-60.82-13.89-91.23q-6.86-45.33-13.63-90.67c-3.49-23.11-6.93-46.23-10.61-69.3-2.75-17.19-16.86-29-34.4-29.07q-58.78-.09-117.58,0c-2.19,0-4.38-.16-6.57-.25,0-8.8,0-17.6,0-26.4,0-6.47.34-6.81,6.75-6.81q46.79,0,93.59,0h166.17c1.6,0,3.21-.08,4.8,0,3.76.24,4.4.9,4.62,4.72.09,1.6,0,3.2,0,4.8V591.43c0,8.48-.62,7.83,7.71,7.84h86.39c1.4,0,2.8-.06,4.2,0,2.44.1,3.8-.85,3.69-3.47-.07-1.6,0-3.2,0-4.8q0-62.4,0-124.79c0-9.6-.87-8.5,8.82-8.52q46.5-.06,93-.05A135.24,135.24,0,0,1,15,476.88c-8.78,0-17.57-.05-26.35,0-4.73,0-4.87.15-4.91,4.58q-.14,11.67,0,23.35c.05,4.18.24,4.39,4.45,4.42q14.07.13,28.14,0c4.4,0,4.33-.21,4.61-4.94.21-3.53-.9-7.17.78-10.59,1.88,4.62,3.62,9.3,5.68,13.82,1.53,3.35,2,.47,2.71-.65,1.28-.31,2-1,1.69-2.42l-.06.1c4.66-3.23,6.93-8.55,10.89-12.38,1.45-1.41,2.24-3.65,4.81-4.22,1.35,8.81,1,17.41,1.48,26q2.84,54.42,5.48,108.86Q55.77,650,57.16,677.22ZM-252.06,310.1c-6.19,0-12.37,0-18.55,0-2.46,0-3.67.91-3.66,3.5,0,12,.06,23.93,0,35.9,0,2.86,1.21,3.84,4,3.83q17.65-.12,35.31,0c2.73,0,4-.95,4-3.81-.08-12-.06-23.94,0-35.91,0-2.58-1.17-3.54-3.64-3.51C-240.49,310.14-246.28,310.1-252.06,310.1Zm-.19,110.38c5.59,0,11.17.07,16.76,0,4.16-.07,4.36-.25,4.39-4.49q.1-17.06,0-34.11c0-4.29-.22-4.51-4.34-4.54-11.57-.08-23.14,0-34.71-.06-3.12,0-4.18,1.22-4.15,4.25.1,11.57,0,23.14.07,34.71,0,4.06.23,4.18,4.63,4.25C-263.82,420.54-258,420.48-252.25,420.48Zm21.17,112c0-6-.06-12,0-18,0-2.65-.74-4.1-3.7-4.08-12,.08-23.94.06-35.91,0-2.49,0-3.62,1-3.61,3.54,0,12,.06,23.94,0,35.91,0,2.89,1.29,3.8,4,3.78q17.66-.11,35.31,0c2.77,0,4-1,3.93-3.85C-231.16,544.07-231.08,538.28-231.08,532.5Zm-21.12-88c-6,0-12,.06-17.95,0-2.61,0-4.15.65-4.13,3.65.07,11.57,0,23.15,0,34.72,0,2.44.87,3.69,3.47,3.68q18-.08,35.91,0c2.85,0,3.86-1.19,3.84-3.95-.07-11.37-.1-22.74,0-34.11,0-3.29-1.52-4.07-4.4-4C-241,444.56-246.61,444.47-252.2,444.48ZM.55,598.06c5,0,10-.1,15,0,3,.09,4.28-1.05,4.24-4.16q-.18-12.56,0-25.12c0-2.9-.77-4.41-4-4.37-9.77.12-19.53.09-29.3,0-2.77,0-3.95,1-3.92,3.85.08,8.57.11,17.15,0,25.72,0,3.2,1.38,4.15,4.33,4.07C-8.62,598-4,598.06.55,598.06Zm-55.37,0c4.78,0,9.57,0,14.35,0,2.35,0,3.8-.69,3.78-3.36q-.06-13.46,0-26.91c0-2.2-1-3.32-3.21-3.31-10.16,0-20.33,0-30.5,0-2.59,0-3.5,1.21-3.49,3.66,0,8.77.08,17.54,0,26.31,0,3,1.52,3.7,4.13,3.65C-64.79,598-59.81,598.06-54.82,598.06Zm2.49-121.17c-5.19,0-10.37.05-15.55,0-2.49,0-3.63,1-3.61,3.54,0,8.37.07,16.75,0,25.12,0,2.9,1.3,3.8,4,3.77q14.66-.1,29.3,0c2.77,0,4-1,3.93-3.85-.09-8.17-.12-16.35,0-24.52.06-3.2-1.36-4.16-4.32-4.08C-43.16,477-47.75,476.89-52.33,476.89Zm-1.3,44.39c-5,0-10,.07-14.95,0-2.61,0-4.15.65-4.12,3.66.09,8.37.06,16.74,0,25.12,0,2.45.9,3.67,3.49,3.65q15-.07,29.91,0c2.85,0,3.85-1.2,3.82-4-.08-8.18-.12-16.35,0-24.52.05-3.3-1.56-4.06-4.42-4C-44.46,521.36-49,521.28-53.63,521.28Zm55,32.39c4.78,0,9.57-.07,14.35,0,2.7.06,4.05-.86,4-3.76-.08-8.38-.06-16.75,0-25.13,0-2.55-1.11-3.56-3.61-3.54-9.57.05-19.14.07-28.71,0-2.94,0-3.75,1.38-3.72,4q.12,12.27,0,24.53c0,2.82,1.14,3.92,3.92,3.86C-7.82,553.59-3.23,553.67,1.36,553.67Z" transform="translate(1202 579.11)"/><path class="cls-9" d="M316.86,2.82c10.55.62,21,2.12,31.48,3.36,12.07,1.42,24.16,2.59,36.24,4,12.66,1.43,25.31,3,38,4.44,1,.12,2,.2,3,.28,7,.51,7,.51,7,7.19v286c0,1-.06,2,0,3,.15,2.46-.88,3.58-3.43,3.77-9.93.76-19.86,1.59-29.78,2.56-14.27,1.39-28.52,3-42.78,4.4-9.72,1-19.45,1.74-29.17,2.66-11.5,1.1-23,2.29-34.49,3.4-9.32.9-18.65,1.7-28,2.6-11.5,1.11-23,2.32-34.49,3.39-6.75.63-13.51,1.07-20.27,1.59l-20,2c9.36-12.86,15.82-27,18.51-42.71.71-4.15-.58-5.47-4.78-4.58-5,1.08-10.06,2.17-15,3.43-9.86,2.49-19.8,4-30,3.27l0-26.3c0-1.6,0-3.2,0-4.8l0-280.66c5.41-.64,10.68.84,16,1.38C194-11.64,213-9.07,232.12-6.89c15.57,1.79,31.16,3.35,46.74,5,0,2.2.12,4.4.08,6.59-.41,25-.16,49.91-.83,74.87-.89,33.35-.45,66.73-.65,100.1,0,3.58-.66,7.15-.67,10.73,0,3.78.42,4,4.15,3.6,11.08-1.3,22.15-2.68,33.23-3.91,5.36-.59,5.36-.48,5.51-6.24.39-15.36.37-30.73.74-46.09,1-42.33-.19-84.69,1.57-127C322.17,6.43,320.69,4.1,316.86,2.82Z" transform="translate(1202 579.11)"/><path class="cls-10" d="M158.83-15q0,140.32,0,280.66a14.92,14.92,0,0,0-8.59,1.89c-9.07,4.73-17,11.05-24.59,17.74-2.83,2.49-5.56,3.65-9.12,3.14-3.92-.57-7.82-1.23-11.74-1.81q-14.09-2.1-28.19-4.15c-9.6-1.39-19.21-2.68-28.81-4.07C38,277,28.19,275.65,18.43,274c-7.22-1.2-14.57-1.65-21.65-3.65q0-70,0-140c0-2.21,0-4.39-1.13-6.39.11-2.39.3-4.78.3-7.17q0-46.72,0-93.44c0-1.39.06-2.79,0-4.19-.12-2.67,1.08-3.83,3.77-4.31C14.86,12.13,29.92,9.25,45,6.36c17.21-3.3,34.41-6.67,51.61-10q29-5.62,58.07-11.21A25.15,25.15,0,0,1,158.83-15Z" transform="translate(1202 579.11)"/><path class="cls-3" d="M702.37,457.86c-12.65-.47-23.55,4.23-33.57,11.47q0-60.52,0-121c0-8.79-.87-8.19,7.93-8.19H851.15c1.59,3.39,3.12,6.82,4.82,10.16.51,1,1.41,2.13,2.81,1.56s1.34-2,.92-3.05c-1.12-2.93-2.44-5.78-3.69-8.66h170.21c7.34,0,7.36,0,7.36,7v172c0,1.6-.06,3.19-.08,4.79-11.19-7.69-22.41-15.3-34.65-21.3-9-4.41-18.34-7.87-27.58-11.62,1.35-1.22,3-.85,4.57-.87,3.8,0,7.59,0,11.39,0,5.49-.06,5.54-.08,5.55-5.77q0-20.07,0-40.15c0-5.59-.07-5.65-5.65-5.66q-20.08-.06-40.15,0c-5.74,0-5.77.06-5.78,6.14q0,19.17,0,38.35l-27.56-3.59c0-11.79,0-23.58,0-35.38,0-5.42-.09-5.5-5.2-5.52q-20.7-.06-41.38,0c-4.89,0-5,.12-5,5.11,0,12.6,0,25.19,0,37.78L834.53,487c0-14.4-.06-28.79-.14-43.19,0-5.21-.09-5.28-5.43-5.3q-20.4-.06-40.79,0c-5.26,0-5.34.09-5.36,5.38q-.06,20.08,0,40.19c0,6,.05,6,5.93,6l34.18.26c-5,2-10,3.87-14.95,5.9a201.69,201.69,0,0,0-60.84,38.33c-.87.79-1.88,1.42-2.82,2.13.06-1.58,0-3.17.2-4.73a84.64,84.64,0,0,0-4.75-41.9c3.79,0,7.58-.12,11.36,0,3.15.13,4.15-1.26,4.13-4.26q-.13-21.54,0-43.07c0-2.93-.85-4.36-4.06-4.34-15,.1-29.91.08-44.86,0-2.77,0-4,1-3.92,3.85C702.5,447.49,702.39,452.68,702.37,457.86Zm165.22-92.47c-1.53-1.39-1.89-3.43-2.85-5.14a1.89,1.89,0,0,0-2.45-1.05,1.73,1.73,0,0,0-1.15,2.35c.4,1.32.89,2.61,1.33,3.91-1.06,16-.18,31.94-.47,47.91,0,2.58,1.15,3.56,3.63,3.53,4.59-.07,9.19,0,13.78,0a3.34,3.34,0,0,0,3.1-1.41l2.61,1c8,.91,15.93.31,23.89.39,4.41,0,4.55-.18,4.57-4.9q.07-20.94,0-41.88c0-4.62-.13-4.75-4.71-4.76C895.1,365.28,881.34,365.35,867.59,365.39Zm-138.35-.1c-7.39,0-14.77-.06-22.15,0-4.39,0-4.61.19-4.63,4.25-.07,14.37,0,28.74-.06,43.11,0,3,1,4.27,4.16,4.25,14.76-.09,29.53,0,44.3-.06,4.11,0,4.31-.25,4.33-4.55q.09-21.26,0-42.51c0-4.24-.23-4.43-4.4-4.49C743.61,365.22,736.42,365.29,729.24,365.29ZM808,416.88c7.39,0,14.77-.07,22.16,0,3,.05,4.3-1,4.28-4.12q-.15-21.85,0-43.72c0-2.86-1.22-3.83-4-3.82q-21.86.11-43.71,0c-2.74,0-4,.95-4,3.82q.11,21.85,0,43.71c0,3.15,1.27,4.18,4.28,4.13C794,416.8,801,416.88,808,416.88Zm159-51.59c-7,0-14-.06-21,0-4.7.05-4.83.15-4.85,4.64q-.11,21.26,0,42.52c0,4.16.25,4.38,4.48,4.4q21.25.11,42.51,0c4.3,0,4.53-.22,4.55-4.33.07-14.37,0-28.75.07-43.12,0-3.11-1.21-4.21-4.25-4.16C981.4,365.37,974.21,365.29,967,365.29Zm-76.91,71.23c1.21-1.72,3-2.38,2.27-4.37-.94-2.76-1.1-5.85-3.23-8.1-.6-.63-1.46-.37-2.16.1a1.7,1.7,0,0,0-.66,2.09C887.62,429.3,887.75,432.77,890.12,436.52Z" transform="translate(1202 579.11)"/><path class="cls-4" d="M190.13,337.38l20-2c4.56,8.2,10.44,15.45,16.31,22.71l-1.59,1.25a39.5,39.5,0,0,0-4.76.34A285.32,285.32,0,0,0,146,384.41a254.59,254.59,0,0,0-69.52,50.23c-18.73,19.09-31.94,41.71-43.6,65.44-.68,1.4-1.71,2.76-1.14,4.5l.06-.1c-1.44.19-1.2,1.56-1.69,2.42-.7,1.12-1.18,4-2.71.65-2.06-4.52-3.8-9.2-5.68-13.82A117.61,117.61,0,0,0,15,476.88a135.24,135.24,0,0,0-7.46-19.24c-4.85-14.31-10.79-28.2-16.22-42.29Q-22.75,378.9-37,342.51c9.89-.82,19.78-2.15,29.69-2.32,10.56-.18,21-2,31.61-1.42a5.94,5.94,0,0,0,1.79-.1c8.58-2.18,17.43-1.13,26.13-1.9,9.85-.87,19.8-2.2,29.78-1.62,1.63.1,3.27,0,3.79-2A113.41,113.41,0,0,1,105.94,335c7.62,1.41,15.28,2.57,22.91,3.91,12.13,2.14,24.39,3.35,36.64,4.47C174.29,344.19,183.12,344.3,190.13,337.38Z" transform="translate(1202 579.11)"/><path class="cls-4" d="M-4.31,124c1.1,2,1.13,4.18,1.13,6.39q0,70,0,140a51.21,51.21,0,0,1-5.95-.24c-14.53-2.2-29-4.57-43.56-6.74-16.11-2.4-32.25-4.6-48.36-7-21.19-3.11-40.1,7.47-47.39,26a1.42,1.42,0,0,0-.71,0c-5.05-10.47-4.09-20.44,2.5-30q22.86-33,45.67-66c6.35-9.2,12.56-18.48,18.83-27.72A57.24,57.24,0,0,1-67.52,145c16.85-10.51,35.16-17.51,54.26-22.62C-10.24,122.72-7.49,124.57-4.31,124Z" transform="translate(1202 579.11)"/><path class="cls-11" d="M316.86,2.82c3.83,1.28,5.31,3.61,5.13,7.93-1.76,42.33-.54,84.69-1.57,127-.37,15.36-.35,30.73-.74,46.09-.15,5.76-.15,5.65-5.51,6.24-11.08,1.23-22.15,2.61-33.23,3.91-3.73.43-4.17.18-4.15-3.6,0-3.58.65-7.15.67-10.73.2-33.37-.24-66.75.65-100.1.67-25,.42-49.91.83-74.87,0-2.19-.05-4.39-.08-6.59C290-.22,301.08,1.05,312.27,1.78A28.67,28.67,0,0,1,316.86,2.82Z" transform="translate(1202 579.11)"/><path class="cls-4" d="M-130.33,81.27c-15.65-9.41-25.73-23-29.89-40.76A53.34,53.34,0,0,1-158.46,11,34.15,34.15,0,0,0-157,5.24a12.61,12.61,0,0,1,4-7.88c4.69-4,8.58-8.9,13.52-12.68,12.19-9.34,26.17-13.49,41.27-13.93A18,18,0,0,0-87.3-33c9.3-6.89,18.78-13.55,28.22-20.26,5.47-3.88,7.75-3.2,10.26,3a31.73,31.73,0,0,1,1.9,19.35,23.16,23.16,0,0,1-9.56,14c-2.76,2-5.78,3.58-8.08,6.15a22,22,0,0,0-2.65,1.36q-11.33,7.8-22.6,15.69a24.12,24.12,0,0,0-6.28,6.34c-4.2,6.31-8.72,12.42-12.7,18.87C-118.37,47-126.5,63.23-130.33,81.27Z" transform="translate(1202 579.11)"/><path class="cls-12" d="M-80.73,135.86c-1.35-5.79-4.36-10.88-6.79-16.23-1.61-3.55-4.1-6.73-4.61-10.76,2.33-4.62,4.78-9.17,6.94-13.86A20.83,20.83,0,0,0-85,77.62c-1.32-3.1-3.14-6-4.7-9-1.2-2.31-2.56-2.79-5.26-1.77-7.13,2.72-14.2-.72-16.94-7.77-2.22-5.71.52-9.47,6.64-9.29,1.81,0,3.57,1.35,5.81.47l-5.08-7.79c4.79.47,9,2.86,13.76,3.71,7.91,1.44,15.83,1.07,23.76,1.1,11,.05,21.6-2.5,31.94-6.13,8.65,8.13,15.71,17.68,23.74,26.38A12.29,12.29,0,0,1-7.9,74.94c-3.29,4.23-5,9.42-8.53,13.56-3.93,4.62-8.51,8-14.71,7.91-12.17-.13-24.12,2.32-36.24,2.66-3.41.1-6.87,1.06-10.36,1.25.19,2.15,1.67,2.56,2.7,3.41,6.57,5.45,14.19,9.51,20.36,15.47A136.73,136.73,0,0,0-80.73,135.86Zm22-61.31c11.35,3.58,28.53,0,32.62-6.89C-37.59,68.62-48.14,71.57-58.72,74.55Z" transform="translate(1202 579.11)"/><path class="cls-10" d="M-149.19,282.43a1.42,1.42,0,0,1,.71,0,6.24,6.24,0,0,1,3.17,2.64c5.15,7.25,12,12.73,19,18,18.15,13.49,39.12,18.16,61.17,18.9,8.16.27,16.27,1.2,24.41,1.65,5.92.33,12,.1,17.82,1.14,8.08,1.43,16.25,1.18,24.35,1.87,8.69.74,17.45,1.37,26.19,1.79,5.92.29,12,.14,17.83,1.12,8.87,1.49,17.85.71,26.73,2,4.49.65,9.15.21,13.59,1.58-.52,2.06-2.16,2.13-3.79,2-10-.58-19.93.75-29.78,1.62-8.7.77-17.55-.28-26.13,1.9a5.94,5.94,0,0,1-1.79.1c-10.58-.61-21,1.24-31.61,1.42-9.91.17-19.8,1.5-29.69,2.32-16.13,1.08-32.24,2.35-48.38,3.19-11.32.59-22.7,1.88-33.7-2.82-16.74-7.16-27.84-19.14-32.17-36.9C-153.18,298-152,290.1-149.19,282.43Z" transform="translate(1202 579.11)"/><path class="cls-5" d="M-104.53,42.49l5.08,7.79c-2.24.88-4-.42-5.81-.47-6.12-.18-8.86,3.58-6.64,9.29,2.74,7.05,9.81,10.49,16.94,7.77,2.7-1,4.06-.54,5.26,1.77,1.56,3,3.38,5.88,4.7,9A20.83,20.83,0,0,1-85.19,95c-2.16,4.69-4.61,9.24-6.94,13.86-2.94-.1-5.2-1.85-7.54-3.27a166.31,166.31,0,0,1-30.66-24.33c3.83-18,12-34.23,21.54-49.75,4-6.45,8.5-12.56,12.7-18.87a24.12,24.12,0,0,1,6.28-6.34q11.25-7.92,22.6-15.69a22,22,0,0,1,2.65-1.36C-47.65-7.28-33,.52-19.72,11.89c-4.18,3.91-9,5.83-13.79,7.64-5,1.88-10.16,3.36-15.25,5l-23.59,3.87.09,1.17h17.81c-1.44,2.15-3.17,2.08-4.65,2.48a306.15,306.15,0,0,1-41.05,8.2C-101.78,40.48-104.16,39.63-104.53,42.49Z" transform="translate(1202 579.11)"/><path class="cls-5" d="M-80.73,135.86A136.73,136.73,0,0,1-54.68,119.2a158.11,158.11,0,0,1,25.39-7.34c3.37-.26,6.75-.39,10.1-.82,2.81-.35,4.51.61,5.45,3.29.59,1.68,1.51,3.24,2.22,4.89s-.34,2.55-1.73,3.17C-32.36,127.5-50.67,134.5-67.52,145a57.24,57.24,0,0,0-14.67,13.78c-1.33-3.95-2.44-8-4.06-11.83-1.31-3.07-.81-5.29,1.69-7.35C-83.19,138.48-82,137.12-80.73,135.86Z" transform="translate(1202 579.11)"/><path class="cls-10" d="M-29.29,111.86a158.11,158.11,0,0,0-25.39,7.34c-6.17-6-13.79-10-20.36-15.47-1-.85-2.51-1.26-2.7-3.41,3.49-.19,6.95-1.15,10.36-1.25,12.12-.34,24.07-2.79,36.24-2.66,6.2.07,10.78-3.29,14.71-7.91,3.51-4.14,5.24-9.33,8.53-13.56C-5,82-7.62,87.77-12.41,92.87c-4.14,4.4-9.15,7.72-14.15,11C-30.95,106.82-31,106.77-29.29,111.86Z" transform="translate(1202 579.11)"/><path class="cls-10" d="M-104.53,42.49c.37-2.86,2.75-2,4.38-2.22a306.15,306.15,0,0,0,41.05-8.2c1.48-.4,3.21-.33,4.65-2.48H-72.26l-.09-1.17,23.59-3.87q4.92,5.76,9.83,11.54c1.38,1.62,3.12,3,3.86,5.08C-45.41,44.8-56,47.35-67,47.3c-7.93,0-15.85.34-23.76-1.1C-95.5,45.35-99.74,43-104.53,42.49Z" transform="translate(1202 579.11)"/><path class="cls-5" d="M456.33-112.07c-.28,1-1,2-2,1.54-3.8-1.59-7.6-3.26-10.63-6.2a1.87,1.87,0,0,1-.51-2.15,1.61,1.61,0,0,1,2-.9c4.38,1,7.47,4.12,10.94,6.62C456.29-113,456.25-112.44,456.33-112.07Z" transform="translate(1202 579.11)"/><path class="cls-5" d="M354.53-166c-.18.86-.82,1.7-1.54,1.49-4.32-1.24-8.88-2.15-12.1-5.63-1.16-1.24-.07-2.38,1.26-2.35,4.75.11,8.31,3.1,12.15,5.39C354.52-167,354.46-166.42,354.53-166Z" transform="translate(1202 579.11)"/><path class="cls-5" d="M312.18-184.49c-.06.94-.63,1.75-1.41,1.6-4.43-.83-8.94-1.66-12.38-4.89a1.42,1.42,0,0,1,1-2.53c4.73,0,8.46,2.76,12.44,4.79C312.08-185.4,312.08-184.82,312.18-184.49Z" transform="translate(1202 579.11)"/><path class="cls-5" d="M169.77-232c2.91.85,6.12,1.76,9.32,2.71a1.85,1.85,0,0,1,1.49,2.19,1.66,1.66,0,0,1-2.07,1.55c-3.46-.72-6.92-1.44-10.33-2.34-1.1-.29-2.33-1.13-2-2.51C166.51-232,168-232.08,169.77-232Z" transform="translate(1202 579.11)"/><path class="cls-5" d="M373-154.73c-3.41-1.53-7.52-2.45-10.75-5.21a1.82,1.82,0,0,1-.6-2.12,1.66,1.66,0,0,1,2-1c4.41.69,7.87,3.36,11.47,5.68.29.18.29,1.11.14,1.6C375-154.93,374.29-154.5,373-154.73Z" transform="translate(1202 579.11)"/><path class="cls-5" d="M833.28,296.64c.32.2,1,.39,1.24.83,1.79,3.28,4.14,6.27,5.34,9.88a2,2,0,0,1-.65,2.63c-1.29.79-2.26,0-3-1-2.33-3-3.33-6.71-5-10.05C830.57,297.72,831.58,296.73,833.28,296.64Z" transform="translate(1202 579.11)"/><path class="cls-5" d="M416.48-135.48c-.06,1.22-.9,2.11-1.86,1.82-4.15-1.28-8.21-2.82-11.39-6-.59-.59-.87-1.5-.17-2.09a2.9,2.9,0,0,1,2.13-.64c4.15.91,7.26,3.81,10.8,5.89C416.26-136.3,416.32-135.8,416.48-135.48Z" transform="translate(1202 579.11)"/><path class="cls-5" d="M502.88-82.61a11.61,11.61,0,0,1,2.7,1c2.58,1.8,5.09,3.71,7.58,5.63a2,2,0,0,1,.7,2.6,1.69,1.69,0,0,1-2.52.62c-3.48-1.83-7-3.7-9.59-6.75-.54-.62-.92-1.38-.38-2.13A5.8,5.8,0,0,1,502.88-82.61Z" transform="translate(1202 579.11)"/><path class="cls-5" d="M465.15-107.8c4,1.22,7.07,4.28,10.45,6.9.61.48.38,1.55-.25,2.12a1.87,1.87,0,0,1-1.53.48c-3.77-1.69-7.51-3.45-10.49-6.43a1.78,1.78,0,0,1-.53-2.12C463.21-107.7,464-107.7,465.15-107.8Z" transform="translate(1202 579.11)"/><path class="cls-5" d="M806.9,247.61a6.11,6.11,0,0,1-.8,1.64,1.41,1.41,0,0,1-2.09,0c-3.41-2.93-4.87-7.1-6.65-11-.55-1.19.69-2.15,2.17-1.76a4.33,4.33,0,0,1,2.59,2.3C803.74,241.7,805.31,244.66,806.9,247.61Z" transform="translate(1202 579.11)"/><path class="cls-5" d="M247.16-207.95c-.32,1-.95,1.95-2.06,1.63-3.78-1.09-7.79-1.46-11.25-3.51a2.05,2.05,0,0,1-1.24-1.85,1.52,1.52,0,0,1,1.53-1.51c4.7-.09,8.72,2,12.67,4.17C247.05-208.89,247.05-208.32,247.16-207.95Z" transform="translate(1202 579.11)"/><path class="cls-5" d="M269.06-200.63c-.33.9-.79,1.81-1.62,1.63-4.19-.92-8.52-1.5-12.13-4.11a1.67,1.67,0,0,1-.51-2.12,1.79,1.79,0,0,1,2-.93c4.23.31,7.81,2.53,11.59,4.13C268.76-201.87,268.87-201,269.06-200.63Z" transform="translate(1202 579.11)"/><path class="cls-5" d="M322.19-181.85c3.61.86,6.92,3.07,10.45,4.76a1.55,1.55,0,0,1,.74,2c-.29.78-1,1.49-1.77,1.23-3.92-1.25-8-2.15-11.39-4.71a1.87,1.87,0,0,1-.72-2.08C319.86-181.86,320.91-181.8,322.19-181.85Z" transform="translate(1202 579.11)"/><path class="cls-5" d="M64.07-248c-3-.42-6.17-.77-9.3-1.36a2.13,2.13,0,0,1-2-2.55,2.25,2.25,0,0,1,2.4-1.46c3.15.39,6.29,1,9.43,1.49,1.32.24,3.08.24,2.86,2.25S65.58-248.13,64.07-248Z" transform="translate(1202 579.11)"/><path class="cls-5" d="M125-241.88c2.52.63,6,1.45,9.36,2.38a1.69,1.69,0,0,1,1.26,2.27,1.64,1.64,0,0,1-1.79,1.23c-3.69-.48-7.45-.68-11-2-1.1-.41-2.27-1.11-1.8-2.55S122.89-241.86,125-241.88Z" transform="translate(1202 579.11)"/><path class="cls-5" d="M108.56-240.67c-1.81-.32-4.93-.8-8-1.46-1.15-.24-2.37-1-2.23-2.36a2.15,2.15,0,0,1,2.66-1.72c3.68.61,7.33,1.41,11,2.25a1.57,1.57,0,0,1,1.13,1.84C112.75-240.1,111.23-240.51,108.56-240.67Z" transform="translate(1202 579.11)"/><path class="cls-5" d="M80.12-250l8.45,1.87c1.07.23,1.84.77,1.75,2a1.67,1.67,0,0,1-2,1.66c-3.37-.37-6.74-.76-10.08-1.34-1.39-.23-3-1.11-2.56-2.73S77.74-250.19,80.12-250Z" transform="translate(1202 579.11)"/><path class="cls-5" d="M191.23-226.15c3.05.85,7,1.23,10.56,3.13.7.38,1.37,1,1.11,1.86a2,2,0,0,1-2.23,1.52c-3.82-.93-7.6-2-11.37-3.12a1.61,1.61,0,0,1-1-1.94C188.53-225.72,189.3-226.36,191.23-226.15Z" transform="translate(1202 579.11)"/><path class="cls-5" d="M483.81-95.54a9.54,9.54,0,0,1,2.18.77c2.79,1.85,5.54,3.74,8.24,5.71a2,2,0,0,1,.65,2.62,1.74,1.74,0,0,1-2.55.57c-3.48-1.84-7-3.56-9.71-6.59a1.67,1.67,0,0,1-.35-2.13C482.58-95,483.22-95.19,483.81-95.54Z" transform="translate(1202 579.11)"/><path class="cls-5" d="M856,340.09c1.25,2.88,2.57,5.73,3.69,8.66.42,1.08.47,2.49-.92,3.05s-2.3-.55-2.81-1.56c-1.7-3.34-3.23-6.77-4.82-10.16C853.34,337.16,853.34,337.16,856,340.09Z" transform="translate(1202 579.11)"/><path class="cls-5" d="M436.5-123.87c-.28,1-.9,2.05-2,1.59-4-1.65-8.17-3-11.08-6.45-1-1.12-.42-2.28,1.07-2.58,2-.4,11.3,5,11.93,6.85A2.89,2.89,0,0,1,436.5-123.87Z" transform="translate(1202 579.11)"/><path class="cls-5" d="M147.32-237.17c2.8.76,6.21,1.64,9.6,2.62a1.73,1.73,0,0,1,1.27,2.27,1.61,1.61,0,0,1-1.76,1.27c-3.69-.51-7.42-.88-10.93-2.21-1.1-.41-2.25-1.13-1.82-2.57S145.49-237,147.32-237.17Z" transform="translate(1202 579.11)"/><path class="cls-5" d="M222.29-213.3c-3.45-1.15-7.1-1.23-10.24-3-.9-.52-1.65-1.28-1.37-2.35a2,2,0,0,1,2.33-1.39c4,.39,7.49,2.26,11.21,3.5.86.29,1,1.22.77,2C224.61-213,223.4-213.14,222.29-213.3Z" transform="translate(1202 579.11)"/><path class="cls-5" d="M827.24,289.82a8.3,8.3,0,0,1-1.65-1.27c-2.4-2.94-3.46-6.6-5.26-9.87a1.5,1.5,0,0,1,.64-2c1-.54,2-.64,2.6.35,1.88,3.22,4.28,6.17,5.54,9.72C829.64,288.18,829.41,289.44,827.24,289.82Z" transform="translate(1202 579.11)"/><path class="cls-5" d="M850.1,328.26c.09,1.46-.09,2.19-.91,2.6a1.7,1.7,0,0,1-2.11-.52c-2.87-3.13-3.75-7.28-5.42-11a1.55,1.55,0,0,1,1-1.9,1.68,1.68,0,0,1,2.15.39C846.66,321.47,849.35,324.73,850.1,328.26Z" transform="translate(1202 579.11)"/><path class="cls-5" d="M279.35-198.6c3.42.78,6.95,2.66,10.57,4.3a1.59,1.59,0,0,1,.64,2.08,1.58,1.58,0,0,1-1.91,1.06c-3.85-1-7.8-1.75-11.21-4a1.93,1.93,0,0,1-.91-2C276.78-198.39,277.78-198.6,279.35-198.6Z" transform="translate(1202 579.11)"/><path class="cls-5" d="M818.43,267.65a7,7,0,0,1-1.08,1.63,1.61,1.61,0,0,1-2.18-.29c-3-3.05-4.39-7.05-6.07-10.85a1.43,1.43,0,0,1,1.06-1.84c.52-.13,1.43-.11,1.66.21C814.32,260.05,817.07,263.48,818.43,267.65Z" transform="translate(1202 579.11)"/><path class="cls-5" d="M38.34-251.45c-2.34-.17-4.75.14-7-1-.93-.47-1.77-1.15-1.55-2.22a2,2,0,0,1,1.73-1.43c4.2-.63,8.13,1,12.19,1.56.77.11,1.11,1.08.94,1.93a1.62,1.62,0,0,1-1.65,1.38C41.48-251.23,39.91-251.36,38.34-251.45Z" transform="translate(1202 579.11)"/><path class="cls-5" d="M-8-255.67c-2.16-.19-4.34-.32-6.49-.58a1.82,1.82,0,0,1-1.71-2c.06-1.24,1-1.63,2.05-1.61,3.35,0,6.71.05,10.05.29,1.38.1,3,.82,2.83,2.47s-1.74,1.85-3.19,1.75c-1.18-.08-2.36-.18-3.54-.27Z" transform="translate(1202 579.11)"/><path class="cls-5" d="M396-145.93a1.75,1.75,0,0,1-2.19,1.46c-4.05-1.08-7.53-3.39-11.09-5.49a1.54,1.54,0,0,1-.34-2.14c.29-.43,1-1,1.34-.93,4.36,1.24,8.58,2.81,11.94,6C395.9-146.76,395.9-146.29,396-145.93Z" transform="translate(1202 579.11)"/><path class="cls-5" d="M15.51-253.86c-2.55-.15-5,.28-7.19-.86-.69-.36-1.42-.82-1.44-1.71,0-1.19.86-1.71,1.83-1.94,2.8-.65,5.5.2,8.18.75,1.75.36,4.89-.69,4.77,2-.15,3.39-3.32,1.36-5.18,1.71A4.52,4.52,0,0,1,15.51-253.86Z" transform="translate(1202 579.11)"/><path class="cls-5" d="M794.86,227.85c-.31.59-.45,1.28-.87,1.58a1.69,1.69,0,0,1-2.2-.16c-3.14-2.92-4.71-6.84-6.56-10.56a1.47,1.47,0,0,1,1-1.91c.5-.18,1.43-.21,1.65.08C790.46,220.35,793.51,223.55,794.86,227.85Z" transform="translate(1202 579.11)"/><path class="cls-2" d="M185,701.18c2.57-11.44,5.27-22.86,7.7-34.33,6.79-32.11,13.47-64.24,20.25-96.35.61-2.89.66-6,2.39-8.54,2-.88,4-1.71,6-2.65q108.82-52.23,217.62-104.49c5.94-2.85,4.73-3.16,9.2,2q20.75,24.07,41.46,48.2c9.73,11.37,19.38,22.82,29.06,34.24a27.31,27.31,0,0,1-8.82,1.22q-65.06-.07-130.13,0c-7.61,0-7.24-.39-7.24,7.12q0,73.15,0,146.33c0,7.34,0,7.35-7,7.35H190.37C188.57,701.27,186.77,701.21,185,701.18Z" transform="translate(1202 579.11)"/><path class="cls-1" d="M518.65,539.28C509,527.86,499.32,516.41,489.59,505q-20.67-24.15-41.46-48.2c-4.47-5.18-3.26-4.87-9.2-2q-108.8,52.26-217.62,104.49c-2,.94-4,1.77-6,2.65-.53-9.24,1.82-18.18,2.95-27.24,1.2-9.65,2.82-19.24,4.21-28.87,1.35-9.43,2.62-18.88,4-28.31,1-6.87,2.35-13.71,3.1-20.6a60.55,60.55,0,0,1,1.88-9.51c2.81-.11,4.83,1.74,7.15,2.68,13.9,5.6,28.14,10.24,43,12.06a161.87,161.87,0,0,0,38.12.63,184.63,184.63,0,0,0,39-8.43,163.12,163.12,0,0,0,46.15-24.79c6.82-5.17,13.85-10,22.06-13,19.05-7,31.54-.17,41.51,13.7,10.46,14.57,20.16,29.69,30.22,44.56Q523.78,512,549,549.09q18.13,26.71,36.33,53.41c.79,1.15,1.51,2.35,2.34,3.47,2.45,3.3,3.26,3.38,5.54,0,4.87-7.3,9.59-14.7,14.37-22.06l31-47.64c.52-.8.72-1.92,2.5-2.07-1.23,6.64-2.42,13.15-3.64,19.64-3.55,18.93-7.07,37.87-10.69,56.79-1.61,8.39-3.36,16.75-4.93,25.15a40.39,40.39,0,0,0,.91,20,12.59,12.59,0,0,1,.47,4.13c-9.95-11.41-19.94-22.79-29.83-34.26q-35.52-41.22-71-82.5C521.17,541.8,519.88,540.57,518.65,539.28Z" transform="translate(1202 579.11)"/><path class="cls-1" d="M739.76,490.07a84.64,84.64,0,0,1,4.75,41.9c-.21,1.56-.14,3.15-.2,4.73-6.25,7.25-13.14,13.93-18.95,21.57C705.74,584,693.74,613.06,688,644.81c-2.09,11.61-2.91,23.35-3.83,35.07-6.35,3.07-12.76,5.93-20.08,5.37-3.71-4.61-8.53-8.14-11.8-13.26-6.27-9.85-7.71-20.52-5.69-31.57,4.73-26,10-51.87,14.91-77.81,3.38-17.76,6.23-35.62,10-53.28s14.53-30.71,30.41-39.4a60.71,60.71,0,0,1,11-4.8c1.13-.36,2.38-.52,2.82-1.9,1.62.33,2.77,1.45,4,2.39C728.47,472.08,734.77,480.54,739.76,490.07Z" transform="translate(1202 579.11)"/><path class="cls-2" d="M434.86,707.31V846.42c0,7.63.4,7.26-7.1,7.25H407.38c-8,0-7.3.31-7.32-7.62v-.6q0-138.81,0-277.61c0-8.8-.79-8.14,8-8.15,7.19,0,14.39,0,21.58,0,5.07,0,5.08.1,5.22,4.91,0,1.4,0,2.8,0,4.2Z" transform="translate(1202 579.11)"/><path class="cls-2" d="M485.25,675.93V783.24c0,1.6,0,3.2,0,4.79,0,2.26-1.09,3.24-3.3,3.23q-14.08,0-28.17,0c-2.21,0-3.34-1-3.3-3.22,0-1.4,0-2.8,0-4.2V567.42c0-.8,0-1.59,0-2.39.1-5.24.1-5.3,5.4-5.33,8.39-.05,16.79.07,25.18-.05,3,0,4.47,1.05,4.23,4.17-.11,1.39,0,2.8,0,4.2Z" transform="translate(1202 579.11)"/><path class="cls-1" d="M-95.53,858.79c-5.29,10.69-9.6,21.86-15.69,32.17-6.73,11.38-14.18,22.15-24.84,30.31a57,57,0,0,1-17.86,9.43c-13.17,4.07-23-1.38-26.3-14.68a20.94,20.94,0,0,1-1-7c7.5.4,15,1.37,22.52,1.16,7.91-.21,14.14-3.09,18.78-9.55,2.19-3.05,4.69-5.87,7-8.86a460.05,460.05,0,0,0,26.67-37.89c6.66-1,11.2-5.27,15.55-9.86.94,3-1.56,5-2.19,7.59A68.62,68.62,0,0,1-95.53,858.79Z" transform="translate(1202 579.11)"/><path class="cls-12" d="M-90.71,844c-4.35,4.59-8.89,8.9-15.55,9.86-8.38-.79-13.11-5.93-15.67-13.43-4-11.8.21-23.87,10.8-31.39,3.39-2.4,7.21-4.16,10.31-7l8.1-4.92c4,5.41,6.75,11.54,9.8,17.48,3.15,6.11,7.13,11.82,9.35,18.4a45.34,45.34,0,0,1-5.65,1.42c-5.16.64-8.43,3.33-9.74,8.38-.74.26-1.52.47-1.79,1.36Z" transform="translate(1202 579.11)"/><path class="cls-1" d="M-90.75,844.14c.27-.89,1-1.1,1.79-1.36C-89.53,843.26-89.58,844.44-90.75,844.14Z" transform="translate(1202 579.11)"/><path class="cls-8" d="M812.51,672.15c.41-24,6.88-42.87,22.26-58,12.23-12,27.19-18.56,44.12-21a81.31,81.31,0,0,1,49,7.49c24.95,12.4,38.08,33.08,41.09,60.6a81,81,0,0,1-5.63,39.89c-8.07,19.81-22.62,33.25-42.5,40.58-21.53,7.94-43.26,7.58-64.2-2C826.62,726.11,813.55,701.44,812.51,672.15Z" transform="translate(1202 579.11)"/><path class="cls-2" d="M822.92,490.34l-34.18-.26c-5.88-.05-5.92-.06-5.93-6q0-20.1,0-40.19c0-5.29.1-5.36,5.36-5.38q20.4-.06,40.79,0c5.34,0,5.4.09,5.43,5.3.08,14.4.1,28.79.14,43.19A51.63,51.63,0,0,1,822.92,490.34Z" transform="translate(1202 579.11)"/><path class="cls-2" d="M941.16,483q0-19.17,0-38.35c0-6.08,0-6.13,5.78-6.14q20.07-.06,40.15,0c5.58,0,5.64.07,5.65,5.66q.06,20.09,0,40.15c0,5.69-.06,5.71-5.55,5.77-3.8,0-7.59,0-11.39,0-1.56,0-3.22-.35-4.57.87Z" transform="translate(1202 579.11)"/><path class="cls-2" d="M862,481.39c0-12.59,0-25.18,0-37.78,0-5,.1-5.09,5-5.11q20.68-.09,41.38,0c5.11,0,5.18.1,5.2,5.52,0,11.8,0,23.59,0,35.38C896.36,479,879.14,479.23,862,481.39Z" transform="translate(1202 579.11)"/><path class="cls-13" d="M-531,1077c-9.49.76-19,.25-28.48.32-8.51.06-17-.14-25.52-.22a16.9,16.9,0,0,1-1-2.81c-3.29-19.35-6.41-38.74-9.87-58-1.12-6.22-1.39-12.62-3.61-18.63.06-1.18.12-2.36.19-3.55,2.52-.07,3.74-2.1,5.26-3.6,12.44-12.32,24.21-25.25,35.94-38.23,8-8.86,16.63-17.12,24.85-25.77,11.79-12.41,23-25.37,35.51-37.09.58-.55,1.15-1.11,1.69-1.7a17.66,17.66,0,0,0,4.62-7.48c1.12.81,2.29,1.57,3.35,2.45,10.92,9.07,22.23,17.61,33.82,25.8,2.35,1.66,3.93,1.81,6.14-.29,29.92-28.26,49.8-62.08,57.52-102.77,2.16-11.43,2.47-23,3.54-34.52,1.9-.83,3.13-2.47,4.5-3.9,7.3-7.64,14.69-15.21,22-22.82,11.76-12.23,22.9-25.06,35.19-36.79,2.3-2.2,4.21-4.78,6.32-7.14,5.46-6.09,11.46-11.7,17.31-17.44.5-.49,1.48-.49,2.23-.72,2.25,9.94,3.28,20.08,4.84,30.13Q-288.8,750-283.21,788c1.1,7.49,2.8,14.9,3,22.52-2.79,0-4.35,2.14-5.69,4-6.58,9.1-15.56,15.95-22.62,24.65-6.38,7.87-14.05,14.67-21,22.13C-342.25,875-355,888.67-368,902.16c-10.79,11.22-21,23-32.25,33.76-1.54,1.48-3.56,2.74-3.57,5.29-11.75,0-23.48-.15-35.24-.92a188.49,188.49,0,0,0-26.85.68c-14.47,1.13-29.05.13-43.61,1.28-9.91.78-19.75,2.09-29.64,3-3.63.33-7.53.87-10.82,3.09-1.19.8-2.47,1.43-2.52,3.05-.06,1.93,1.32,2.83,2.88,3.38a56.61,56.61,0,0,0,6.83,2.09c14.81,3.18,30,4.19,45,4.53,18.53.42,37,2,55.59,1.49,5.19-.14,10.39,0,15.58,0,.06,1.79-1.08,2.92-2.22,4.06-13,12.93-25.38,26.42-37.67,40-6.14,6.78-12.61,13.3-19,19.88-10.24,10.61-19.86,21.81-30.5,32-4.89,4.7-8.56,10.51-13.71,15A4.11,4.11,0,0,0-531,1077Z" transform="translate(1202 579.11)"/><path class="cls-14" d="M-345.62,376.11c3,19.46,6.06,38.92,9,58.39,1,6.49,2.46,12.91,2.63,19.51-2,0-3.26,1.3-4.54,2.58-2.95,3-5.52,6.3-8.34,9.35-8.4,9.06-17.48,17.48-25.58,26.87-6,6.94-12.89,13-18.93,20-7.69,8.88-16.58,16.68-24.26,25.63-5.58,6.5-12,12.17-17.66,18.7-7.4,8.6-15.59,16.54-23.52,24.68-12.67,13-24.52,26.82-37.78,39.26-1.84,1.74-3.1,3.63-2.94,6.25-17-3-33.42-.43-49.3,5.66-24.55,9.41-39.94,26.89-45.58,52.82-2.94,13.51-2.12,27-.36,40.47-2.2.72-3.51,2.57-5,4.1-8.5,8.37-15.84,17.85-24.69,25.9a70.05,70.05,0,0,0-5.07,5.81c-3,3.34-5.39,7.46-10.14,8.8-.37-.68-1-1.34-1.07-2-.48-8.57-2.69-16.87-4.06-25.29-3.67-22.52-7.8-45-11.74-67.44.47-2.17-1.15-4-1.08-6.05,2.8.46,4.37-1.43,6.08-3.14,11.73-11.67,22.84-23.92,33.9-36.23,6.79-7.55,14.14-14.6,21.07-22,13.3-14.3,27-28.21,40.09-42.74,6-6.67,12.42-12.94,18.54-19.5,13.46-14.42,27.26-28.54,40.51-43.17,6.29-6.94,13-13.46,19.4-20.33,12.73-13.74,25.83-27.15,38.39-41.05,6.69-7.39,13.86-14.32,20.69-21.6,8.86-9.44,17.46-19.17,26.72-28.25a83.78,83.78,0,0,0,11.7-13.53,2.51,2.51,0,0,0,2.38-1.18l7.17,0c2.86-.19,5.85.86,8.53-1Z" transform="translate(1202 579.11)"/><path class="cls-14" d="M-403.83,941.21c0-2.55,2-3.81,3.57-5.29C-389,925.15-378.8,913.38-368,902.16c13-13.49,25.76-27.2,38.5-40.93,6.93-7.46,14.6-14.26,21-22.13,7.06-8.7,16-15.55,22.62-24.65,1.34-1.84,2.9-3.94,5.69-4,2,6.1,2.3,12.5,3.28,18.77,4.57,29.13,8.88,58.3,13.27,87.45a9.65,9.65,0,0,1,0,1.78c-2.5-.25-4.12,1-5.44,3a29.47,29.47,0,0,1-2.91,3.76c-7.09,7.55-14.75,14.52-21.46,22.49s-14.93,14.9-21.79,23-14.92,14.91-21.78,23c-6.69,7.89-14.64,14.63-21.38,22.56s-14.56,15.29-21.85,22.92c-10.47,11-20.61,22.23-31.36,32.92-1.4,1.38-3.11,2.62-2.9,5-3.13,1-6.32.22-9.47.23q-50.2.11-100.43,0c-2.18,0-4.36-.21-6.54-.32a4.11,4.11,0,0,1,1.31-3.23c5.15-4.45,8.82-10.26,13.71-15,10.64-10.23,20.26-21.43,30.5-32,6.35-6.58,12.82-13.1,19-19.88,12.29-13.59,24.68-27.08,37.67-40,1.14-1.14,2.28-2.27,2.22-4.06a10.6,10.6,0,0,1,5.2-1.12,437.85,437.85,0,0,0,62.58-3.65c4.94-.64,9.86-1.35,14.48-3.36,1.5-.66,2.93-1.47,2.82-3.43-.09-1.63-1.3-2.38-2.61-3a32.29,32.29,0,0,0-7.41-2.28C-368.86,942.85-386.35,942.17-403.83,941.21Z" transform="translate(1202 579.11)"/><path class="cls-13" d="M-497.58,627.3c-.16-2.62,1.1-4.51,2.94-6.25,13.26-12.44,25.11-26.25,37.78-39.26,7.93-8.14,16.12-16.08,23.52-24.68,5.62-6.53,12.08-12.2,17.66-18.7,7.68-8.95,16.57-16.75,24.26-25.63,6-7,12.95-13,18.93-20,8.1-9.39,17.18-17.81,25.58-26.87,2.82-3.05,5.39-6.38,8.34-9.35,1.28-1.28,2.53-2.6,4.54-2.58,2.2,8.91,3,18.05,4.46,27.09,4.38,28.19,8.58,56.4,12.81,84.62.83,5.52,1.46,11.07,2.19,16.6-2,.64-3.22,2.31-4.61,3.71-5.76,5.77-11.48,11.55-16.78,17.79-5.77,6.82-12.41,12.86-18.45,19.5-8.42,9.26-17.19,18.24-25.87,27.28-9.8,10.19-18.89,21-29.28,30.66a13.34,13.34,0,0,0-1.68,2.44c-4.64-5.47-8.78-11.33-13.76-16.53C-445,646.29-468.95,632.51-497.58,627.3Z" transform="translate(1202 579.11)"/><path class="cls-13" d="M-414.58,1077.08c-.21-2.34,1.5-3.58,2.9-5,10.75-10.69,20.89-22,31.36-32.92,7.29-7.63,15-14.88,21.85-22.92s14.69-14.67,21.38-22.56c6.86-8.09,15-15,21.78-23s15-14.93,21.79-23,14.37-14.94,21.46-22.49a29.47,29.47,0,0,0,2.91-3.76c1.32-2,2.94-3.25,5.44-3,2.86,18.33,5.77,36.65,8.57,55q5.19,34,10.24,68c1.75,11.62,3.48,23.24,5.19,34.66-1.34,1.4-2.8,1.14-4.16,1.14q-84.17,0-168.34,0A21.23,21.23,0,0,1-414.58,1077.08Z" transform="translate(1202 579.11)"/><path class="cls-15" d="M-710.76,580.07c-2-12.8-4.17-25.59-6.14-38.39-2.63-17.15-5.14-34.32-7.73-51.48q-4.54-30.17-9.14-60.33c-2.55-17-5-33.94-7.7-50.87-.49-3.07.24-4.09,3.19-3.87,1.19.08,2.39,0,3.59,0q104.9,0,209.78,0c2.38,0,4.8-.38,7.13.49-.49.82-1,1.63-1.46,2.46-2.28,4-6.67,6.47-8.26,11a11.5,11.5,0,0,0-4.73,1.34c-.8,0-1.6-.08-2.4,0-15.12.7-30.17,2.14-45.25,3.39-10.9.91-21.83,1.69-32.75,2.5-15.48,1.14-31,2.24-46.43,3.63-12.69,1.15-25.43,1.75-38.14,2.58-4,.26-4.67,1-4,4.69,2.61,13.87,4.91,27.8,7.21,41.73q5.58,33.84,11.85,67.57c1.63,8.79,2.5,17.73,4.83,26.39l-.19,4.77c-.75.22-1.72.22-2.21.7-5.08,5-10.48,9.71-15,15.17A190.08,190.08,0,0,1-710.76,580.07Z" transform="translate(1202 579.11)"/><path class="cls-14" d="M-411.24,683.7a13.34,13.34,0,0,1,1.68-2.44c10.39-9.62,19.48-20.47,29.28-30.66,8.68-9,17.45-18,25.87-27.28,6-6.64,12.68-12.68,18.45-19.5,5.3-6.24,11-12,16.78-17.79,1.39-1.4,2.59-3.07,4.61-3.71,2.2,13.75,4.45,27.49,6.58,41.25q4.2,27.16,8.23,54.35c.2,1.36.17,2.77.24,4.15-.75.23-1.73.23-2.23.72-5.85,5.74-11.85,11.35-17.31,17.44-2.11,2.36-4,4.94-6.32,7.14-12.29,11.73-23.43,24.56-35.19,36.79-7.32,7.61-14.71,15.18-22,22.82-1.37,1.43-2.6,3.07-4.5,3.9-.14-1.39-.35-2.78-.41-4.17a213.11,213.11,0,0,0-6.25-43.17C-397.43,709.23-403.72,696.24-411.24,683.7Z" transform="translate(1202 579.11)"/><path class="cls-16" d="M-655.87,942.49c-1.93-6.53-2.36-13.33-3.41-20-4-25.61-7.86-51.25-11.69-76.89-1.68-11.24-3.17-22.52-4.75-33.77a6.86,6.86,0,0,0,4.2-3.18c2.72-4.25,6.57-7.42,10-11,4.48-4.76,9.28-9.19,13.42-14.33,2.76-3.43,5.53-7.34,10.14-8.87,1.8,2.46,1,5.41,1.57,8.11,3.15,16,5.71,32,8.42,48.1,3.8,22.5,7.87,45,11.82,67.44,0,.87,0,1.74,0,2.61q-9.67,10.49-19.37,21c-4,4.36-8.52,8.27-12.12,13.1A29.34,29.34,0,0,1-655.87,942.49Z" transform="translate(1202 579.11)"/><path class="cls-16" d="M-710.76,580.07a190.08,190.08,0,0,0,16.07-16.53c4.53-5.46,9.93-10.19,15-15.17.49-.48,1.46-.48,2.21-.7,2.5,4,2.15,8.75,3,13.16,2.35,12.69,4.48,25.43,6.67,38.15q3.33,19.38,6.63,38.76,2.76,16.15,5.48,32.31c-.07,2.09,1.55,3.88,1.08,6a5.29,5.29,0,0,0-4.8,1.8c-5.34,5.85-11.32,11.06-16.39,17.22A81.63,81.63,0,0,1-691.15,710c-2.22-14.16-4.48-28.31-6.65-42.48q-4.56-29.84-9-59.68C-708.2,598.6-709.45,589.33-710.76,580.07Z" transform="translate(1202 579.11)"/><path class="cls-15" d="M-655.87,942.49a29.34,29.34,0,0,0,8.16-7.76c3.6-4.83,8.08-8.74,12.12-13.1q9.71-10.47,19.37-21a2.8,2.8,0,0,1,1.08,2c.71,9.12,3,18,4.45,27,2.12,12.91,4.27,25.81,6.53,38.7,1.5,8.59,3.22,17.14,4.84,25.7-.07,1.19-.13,2.37-.19,3.55a3.48,3.48,0,0,0-3,1.65c-1.75,3.23-4.65,5.42-7.13,8-4.71,4.86-9.89,9.32-14.16,14.53a184.09,184.09,0,0,1-17.44,17.88c-2.72-12.63-4-25.49-6.09-38.24-2.78-17.25-5.23-34.56-7.89-51.84A35.26,35.26,0,0,1-655.87,942.49Z" transform="translate(1202 579.11)"/><path class="cls-15" d="M-691.15,710a81.63,81.63,0,0,0,15.32-14.9c5.07-6.16,11.05-11.37,16.39-17.22a5.29,5.29,0,0,1,4.8-1.8c3.94,22.48,8.07,44.93,11.74,67.45,1.37,8.42,3.58,16.72,4.06,25.29,0,.69.7,1.35,1.07,2-.07,1.19-.15,2.37-.22,3.55-4.61,1.53-7.38,5.44-10.14,8.87-4.14,5.14-8.94,9.57-13.42,14.33-3.4,3.61-7.25,6.78-10,11a6.86,6.86,0,0,1-4.2,3.18c-2.74-13.63-4.33-27.43-6.48-41.14-2.66-17.06-5.19-34.14-7.75-51.22C-690.42,716.32-690.75,713.16-691.15,710Z" transform="translate(1202 579.11)"/><path class="cls-16" d="M-641.25,1039.67a184.09,184.09,0,0,0,17.44-17.88c4.27-5.21,9.45-9.67,14.16-14.53,2.48-2.56,5.38-4.75,7.13-8a3.48,3.48,0,0,1,3-1.65c2.22,6,2.49,12.41,3.61,18.63,3.46,19.31,6.58,38.7,9.87,58a16.9,16.9,0,0,0,1,2.81c-2.3,1-4.72.47-7.09.48q-19.44.09-38.89,0c-4.89,0-4.86-.1-5.59-4.85-1.48-9.64-3-19.28-4.47-28.93A38.56,38.56,0,0,1-641.25,1039.67Z" transform="translate(1202 579.11)"/><path class="cls-16" d="M-527.5,389.12c1.59-4.54,6-7,8.26-11,.47-.83,1-1.64,1.46-2.46,1.73-.67,3.55-.47,5.34-.47q65.69,0,131.37,0c1.59,0,3.18.2,4.77.31,0,.59,0,1.19.05,1.78a2.51,2.51,0,0,1-2.38,1.18c-6.8-.68-13.44,1.19-20.2,1.19-7.35,0-14.65,1.05-22,1.58-5.33.39-10.77.15-16,1.1-7.66,1.39-15.41,1.31-23.09,1.92-7.31.57-14.65,1.25-22,1.78-5.52.39-11.09.5-16.62,1.05C-508.12,388.06-517.74,389.61-527.5,389.12Z" transform="translate(1202 579.11)"/><path class="cls-11" d="M-549,355.11q-17.67,0-35.33,0c-2.82,0-5.63,0-7.8-2.24-2-2-3-4.32-2-7.07.88-2.58,3-3.61,5.6-3.66.8,0,1.6,0,2.4,0h70c2.41,0,4.8,0,6.84,1.62,2.36,1.88,3.52,4.88,2.76,7.38-.9,2.95-3.15,3.93-6,4-2,0-4,0-6,0Z" transform="translate(1202 579.11)"/><path class="cls-15" d="M-345.62,376.11l-14.93.16c-2-.48-4.1.41-6-.8,6.52-.87,13.07-.34,19.6-.39C-346.48,375.08-346,375.75-345.62,376.11Z" transform="translate(1202 579.11)"/><path class="cls-15" d="M-376.25,377.28c0-.59,0-1.19-.05-1.78a13.92,13.92,0,0,1,7.33.16c0,.52-.08,1-.11,1.57Z" transform="translate(1202 579.11)"/><path class="cls-16" d="M-369.08,377.23c0-.53.07-1.05.11-1.57l2.46-.19c1.86,1.21,4,.32,6,.8C-363.23,378.09-366.22,377-369.08,377.23Z" transform="translate(1202 579.11)"/><path class="cls-5" d="M-100.82,802c-3.1,2.84-6.92,4.6-10.31,7-10.59,7.52-14.82,19.59-10.8,31.39,2.56,7.5,7.29,12.64,15.67,13.43a460.05,460.05,0,0,1-26.67,37.89c-2.29,3-4.79,5.81-7,8.86-4.64,6.46-10.87,9.34-18.78,9.55-7.56.21-15-.76-22.52-1.16-1.4-5.83.07-11.48,1.36-17,4.63-19.91,14.5-37.23,26.84-53.29,1-1.26,1.94-2.51,2.9-3.75,7.87-7.87,15.59-15.9,24.58-22.57a66.75,66.75,0,0,1,14.86-8.76C-107.53,802.31-104.31,801.22-100.82,802Z" transform="translate(1202 579.11)"/><path class="cls-11" d="M-724.85,952.73c.54.49,1.08,1,.58,1.81l.09-.11a1.36,1.36,0,0,1-1.47-.9C-725.39,953.25-725.13,953-724.85,952.73Z" transform="translate(1202 579.11)"/><path class="cls-11" d="M-724.27,954.54c.39-.31,1-.11.9.14-.54,1.15-.6.11-.81-.25Z" transform="translate(1202 579.11)"/><path class="cls-1" d="M31.74,504.58c-.57-1.74.46-3.1,1.14-4.5,11.66-23.73,24.87-46.35,43.6-65.44A254.59,254.59,0,0,1,146,384.41a285.32,285.32,0,0,1,74.09-24.7,39.5,39.5,0,0,1,4.76-.34c-7,3.85-13.88,7.81-20.91,11.54-17.62,9.35-34.7,19.6-51.6,30.2-15.72,9.86-30.69,20.74-45.59,31.74-6.72,5-12.91,10.65-19.67,15.54-5.51,4-5.54,9.85-6.08,15.44-1,10.86-2.37,21.7-3.38,32.57-.5,5.33-1.38,10.64-1.62,16-.26,5.53-1.21,11-1.88,16.55-.63,5.13-.82,10.29-1.51,15.42-1.39,10.42-2.42,20.91-3.38,31.37-.87,9.5-2.15,19-2.84,28.47s-2.19,18.92-3.19,28.39c-.46,4.35-1.13,8.72-1.32,13-.42,9.55-2.7,18.91-2.61,28.49,0,1.55-.35,2.78-2.11,3.07Q55.78,650,54.4,622.8q-2.73-54.43-5.48-108.86c-.45-8.55-.13-17.15-1.48-26-2.57.57-3.36,2.81-4.81,4.22C38.67,496,36.4,501.35,31.74,504.58Z" transform="translate(1202 579.11)"/><path class="cls-2" d="M739.76,490.07c-5-9.53-11.29-18-20-24.45-1.26-.94-2.41-2.06-4-2.39-3.71-3.61-8.86-3.66-13.34-5.37,0-5.18.13-10.37,0-15.55,0-2.83,1.15-3.87,3.92-3.85,14.95.06,29.91.08,44.86,0,3.21,0,4.07,1.41,4.06,4.34q-.12,21.54,0,43.07c0,3-1,4.39-4.13,4.26C747.34,490,743.55,490.07,739.76,490.07Z" transform="translate(1202 579.11)"/><path class="cls-2" d="M-252.06,310.1c5.78,0,11.57,0,17.35,0,2.47,0,3.65.93,3.64,3.51,0,12-.06,23.94,0,35.91,0,2.86-1.24,3.82-4,3.81q-17.65-.12-35.31,0c-2.75,0-4-1-4-3.83.08-12,.06-23.93,0-35.9,0-2.59,1.2-3.52,3.66-3.5C-264.43,310.14-258.25,310.1-252.06,310.1Z" transform="translate(1202 579.11)"/><path class="cls-2" d="M-252.25,420.48c-5.78,0-11.57.06-17.35,0-4.4-.07-4.6-.19-4.63-4.25-.09-11.57,0-23.14-.07-34.71,0-3,1-4.28,4.15-4.25,11.57.1,23.14,0,34.71.06,4.12,0,4.31.25,4.34,4.54q.1,17.06,0,34.11c0,4.24-.23,4.42-4.39,4.49C-241.08,420.55-246.66,420.48-252.25,420.48Z" transform="translate(1202 579.11)"/><path class="cls-2" d="M-231.08,532.5c0,5.78-.08,11.57,0,17.35.05,2.83-1.16,3.87-3.93,3.85q-17.65-.11-35.31,0c-2.71,0-4-.89-4-3.78.08-12,.06-23.94,0-35.91,0-2.56,1.12-3.54,3.61-3.54,12,0,23.94.07,35.91,0,3,0,3.74,1.43,3.7,4.08C-231.14,520.53-231.08,526.51-231.08,532.5Z" transform="translate(1202 579.11)"/><path class="cls-2" d="M-252.2,444.48c5.59,0,11.17.08,16.76,0,2.88-.06,4.44.72,4.4,4-.11,11.37-.08,22.74,0,34.11,0,2.76-1,4-3.84,3.95q-18-.11-35.91,0c-2.6,0-3.48-1.24-3.47-3.68,0-11.57.06-23.15,0-34.72,0-3,1.52-3.68,4.13-3.65C-264.17,444.54-258.19,444.48-252.2,444.48Z" transform="translate(1202 579.11)"/><path class="cls-2" d="M.55,598.06c-4.58,0-9.17-.09-13.75,0-2.95.08-4.38-.87-4.33-4.07.13-8.57.1-17.15,0-25.72,0-2.83,1.15-3.87,3.92-3.85,9.77.08,19.53.11,29.3,0,3.25,0,4.06,1.47,4,4.37q-.15,12.55,0,25.12c0,3.11-1.2,4.25-4.24,4.16C10.52,598,5.53,598.06.55,598.06Z" transform="translate(1202 579.11)"/><path class="cls-2" d="M-54.82,598.06c-5,0-10-.06-14.95,0-2.61,0-4.16-.64-4.13-3.65.09-8.77.06-17.54,0-26.31,0-2.45.9-3.67,3.49-3.66,10.17.06,20.34,0,30.5,0,2.26,0,3.21,1.11,3.21,3.31q0,13.46,0,26.91c0,2.67-1.43,3.38-3.78,3.36C-45.25,598-50,598.06-54.82,598.06Z" transform="translate(1202 579.11)"/><path class="cls-2" d="M-52.33,476.89c4.58,0,9.17.09,13.75,0,3-.08,4.38.88,4.32,4.08-.13,8.17-.1,16.35,0,24.52,0,2.83-1.16,3.88-3.93,3.85q-14.64-.12-29.3,0c-2.71,0-4-.87-4-3.77.09-8.37.07-16.75,0-25.12,0-2.56,1.12-3.57,3.61-3.54C-62.7,476.94-57.52,476.89-52.33,476.89Z" transform="translate(1202 579.11)"/><path class="cls-2" d="M-53.63,521.28c4.59,0,9.17.08,13.76,0,2.86-.08,4.47.68,4.42,4-.14,8.17-.1,16.34,0,24.52,0,2.75-1,4-3.82,4q-15-.12-29.91,0c-2.59,0-3.51-1.2-3.49-3.65,0-8.38.08-16.75,0-25.12,0-3,1.51-3.7,4.12-3.66C-63.6,521.35-58.61,521.28-53.63,521.28Z" transform="translate(1202 579.11)"/><path class="cls-2" d="M15,476.88a117.61,117.61,0,0,1,6.72,16.85c-1.68,3.42-.57,7.06-.78,10.59-.28,4.73-.21,4.9-4.61,4.94q-14.07.12-28.14,0c-4.21,0-4.4-.24-4.45-4.42q-.14-11.68,0-23.35c0-4.43.18-4.54,4.91-4.58C-2.57,476.83,6.22,476.88,15,476.88Z" transform="translate(1202 579.11)"/><path class="cls-2" d="M1.36,553.67c-4.59,0-9.18-.08-13.76,0-2.78.06-4-1-3.92-3.86q.12-12.27,0-24.53c0-2.67.78-4.08,3.72-4,9.57.08,19.14.06,28.71,0,2.5,0,3.63,1,3.61,3.54,0,8.38-.07,16.75,0,25.13,0,2.9-1.32,3.82-4,3.76C10.93,553.6,6.14,553.67,1.36,553.67Z" transform="translate(1202 579.11)"/><path class="cls-1" d="M30.11,506.9c.49-.86.25-2.23,1.69-2.42C32.08,505.87,31.39,506.59,30.11,506.9Z" transform="translate(1202 579.11)"/><path class="cls-12" d="M85.8,333.12c-4.44-1.37-9.1-.93-13.59-1.58-8.88-1.28-17.86-.5-26.73-2-5.85-1-11.91-.83-17.83-1.12-8.74-.42-17.5-1.05-26.19-1.79-8.1-.69-16.27-.44-24.35-1.87-5.83-1-11.9-.81-17.82-1.14-8.14-.45-16.25-1.38-24.41-1.65-22-.74-43-5.41-61.17-18.9-7-5.24-13.87-10.72-19-18a6.24,6.24,0,0,0-3.17-2.64c7.29-18.57,26.2-29.15,47.39-26,16.11,2.37,32.25,4.57,48.36,7,14.53,2.17,29,4.54,43.56,6.74a51.21,51.21,0,0,0,5.95.24c7.08,2,14.43,2.45,21.65,3.65,9.76,1.62,19.56,3,29.35,4.4,9.6,1.39,19.21,2.68,28.81,4.07q14.1,2,28.19,4.15c3.92.58,7.82,1.24,11.74,1.81,3.56.51,6.29-.65,9.12-3.14,7.59-6.69,15.52-13,24.59-17.74a14.92,14.92,0,0,1,8.59-1.89c0,1.6,0,3.2,0,4.8-.47.36-1.13.61-1.38,1.08-3.25,6.34-7.48,12-11.8,17.63-1.35,1.75-.69,2.9.91,3.84a27.57,27.57,0,0,0,12.29,3.75c10.19.71,20.13-.78,30-3.27,5-1.26,10-2.35,15-3.43,4.2-.89,5.49.43,4.78,4.58-2.69,15.75-9.15,29.85-18.51,42.71-7,6.92-15.84,6.81-24.64,6-12.25-1.12-24.51-2.33-36.64-4.47-7.63-1.34-15.29-2.5-22.91-3.91A113.41,113.41,0,0,0,85.8,333.12Z" transform="translate(1202 579.11)"/><path class="cls-10" d="M158.83,296.79A27.57,27.57,0,0,1,146.54,293c-1.6-.94-2.26-2.09-.91-3.84,4.32-5.61,8.55-11.29,11.8-17.63.25-.47.91-.72,1.38-1.08Q158.81,283.65,158.83,296.79Z" transform="translate(1202 579.11)"/><path class="cls-2" d="M729.24,365.29c7.18,0,14.37-.07,21.55,0,4.17.06,4.38.25,4.4,4.49q.09,21.26,0,42.51c0,4.3-.22,4.53-4.33,4.55-14.77.07-29.54,0-44.3.06-3.13,0-4.18-1.22-4.16-4.25.08-14.37,0-28.74.06-43.11,0-4.06.24-4.21,4.63-4.25C714.47,365.23,721.85,365.29,729.24,365.29Z" transform="translate(1202 579.11)"/><path class="cls-2" d="M808,416.88c-7,0-14-.08-21,0-3,.05-4.31-1-4.28-4.13q.13-21.85,0-43.71c0-2.87,1.23-3.83,4-3.82q21.86.11,43.71,0c2.75,0,4,1,4,3.82q-.1,21.85,0,43.72c0,3.15-1.29,4.17-4.28,4.12C822.77,416.81,815.39,416.88,808,416.88Z" transform="translate(1202 579.11)"/><path class="cls-2" d="M967,365.29c7.18,0,14.37.08,21.55,0,3-.05,4.27,1.05,4.25,4.16-.1,14.37,0,28.75-.07,43.12,0,4.11-.25,4.31-4.55,4.33q-21.26.11-42.51,0c-4.23,0-4.46-.24-4.48-4.4q-.11-21.25,0-42.52c0-4.49.15-4.59,4.85-4.64C953.05,365.23,960,365.29,967,365.29Z" transform="translate(1202 579.11)"/><path class="cls-2" d="M882.51,415.46a3.34,3.34,0,0,1-3.1,1.41c-4.59,0-9.19,0-13.78,0-2.48,0-3.68-.95-3.63-3.53.29-16-.59-31.94.47-47.9,1,2.12,2,4.29,3.16,6.34a2,2,0,0,0,2.45,1.16,1.94,1.94,0,0,0,1.06-2.48c-.4-1.73-1-3.4-1.55-5.1,13.75,0,27.51-.11,41.27-.08,4.58,0,4.69.14,4.71,4.76q.1,20.94,0,41.88c0,4.72-.16,4.94-4.57,4.9-8-.08-15.94.52-23.89-.39,1.52-2,1-4.1.08-6.17s-1.76-4-2.54-6c-.52-1.34-.94-2.88-2.76-2.31s-1.44,2.07-.95,3.45Q880.73,410.44,882.51,415.46Zm-4.58-23.82c-.76-3.6-3-6.93-4.49-10.56a1.58,1.58,0,0,0-2-.69,1.56,1.56,0,0,0-1.21,1.79c1.23,3.92,2.06,8,4.5,11.46a1.8,1.8,0,0,0,2.06.77C877.92,394,877.89,393,877.93,391.64Z" transform="translate(1202 579.11)"/><path class="cls-5" d="M882.51,415.46q-1.77-5-3.56-10c-.49-1.38-.84-2.9.95-3.45s2.24,1,2.76,2.31c.78,2,1.68,4,2.54,6s1.44,4.13-.08,6.17Z" transform="translate(1202 579.11)"/><path class="cls-5" d="M867.59,365.39c.53,1.7,1.15,3.37,1.55,5.1a1.94,1.94,0,0,1-1.06,2.48,2,2,0,0,1-2.45-1.16c-1.16-2.05-2.12-4.22-3.16-6.34-.44-1.31-.93-2.6-1.33-3.92a1.73,1.73,0,0,1,1.15-2.35,1.89,1.89,0,0,1,2.45,1.05C865.7,362,866.06,364,867.59,365.39Z" transform="translate(1202 579.11)"/><path class="cls-5" d="M890.12,436.52c-2.37-3.75-2.5-7.22-3.78-10.28a1.7,1.7,0,0,1,.66-2.09c.7-.47,1.56-.73,2.16-.1,2.13,2.25,2.29,5.34,3.23,8.1C893.07,434.14,891.33,434.8,890.12,436.52Z" transform="translate(1202 579.11)"/><path class="cls-11" d="M-58.72,74.55c10.58-3,21.13-5.93,32.62-6.89C-30.19,74.52-47.37,78.13-58.72,74.55Z" transform="translate(1202 579.11)"/><path class="cls-4" d="M-411.24,683.7c7.52,12.54,13.81,25.53,17.5,39.84a213.11,213.11,0,0,1,6.25,43.17c.06,1.39.27,2.78.41,4.17-1.07,11.52-1.38,23.09-3.54,34.52-7.72,40.69-27.6,74.51-57.52,102.77-2.21,2.1-3.79,2-6.14.29-11.59-8.19-22.9-16.73-33.82-25.8-1.06-.88-2.23-1.64-3.35-2.45-9.92-9.46-20.3-18.43-29.76-28.38-8.36-8.8-16-18.21-24-27.29-.76-1.16-1.44-2.38-2.27-3.48-21.57-28.51-38.27-59.35-45.31-94.81-1.76-13.51-2.58-27,.36-40.47,5.64-25.93,21-43.41,45.58-52.82,15.88-6.09,32.3-8.69,49.3-5.66,28.63,5.21,52.54,19,72.58,39.87C-420,672.37-415.88,678.23-411.24,683.7Zm-77.24,69.12c1.4,0,2.8.08,4.19,0,11.94-.77,21.24-8.35,23.83-19.35a41.13,41.13,0,0,0-1-21.87c-5.85-19.13-28.7-34.19-51.43-30.37-10.31,1.74-17.44,7.89-20,18.28-2.28,9.17-1.77,18.35,2.51,26.88C-521.77,743.54-507,751.31-488.48,752.82Z" transform="translate(1202 579.11)"/><path class="cls-14" d="M-545.24,824.54c8,9.08,15.67,18.49,24,27.29,9.46,9.95,19.84,18.92,29.76,28.38a17.66,17.66,0,0,1-4.62,7.48c-.54.59-1.11,1.15-1.69,1.7-12.5,11.72-23.72,24.68-35.51,37.09-8.22,8.65-16.85,16.91-24.85,25.77-11.73,13-23.5,25.91-35.94,38.23-1.52,1.5-2.74,3.53-5.26,3.6-1.62-8.56-3.34-17.11-4.84-25.7-2.26-12.89-4.41-25.79-6.53-38.7-1.47-9-3.74-17.87-4.45-27a2.8,2.8,0,0,0-1.08-2c0-.86,0-1.73,0-2.6,3.87.46,5.63-2.57,7.62-4.91,1.26-1.5,2.3-3.2,3.68-4.65,6.59-6.88,13.22-13.72,19.79-20.61,10-10.48,19.42-21.54,30-31.5A73.63,73.63,0,0,0-545.24,824.54Z" transform="translate(1202 579.11)"/><path class="cls-11" d="M-403.83,941.21c17.48,1,35,1.64,52.24,4.83a32.29,32.29,0,0,1,7.41,2.28c1.31.58,2.52,1.33,2.61,3,.11,2-1.32,2.77-2.82,3.43-4.62,2-9.54,2.72-14.48,3.36a437.85,437.85,0,0,1-62.58,3.65,10.6,10.6,0,0,0-5.2,1.12c-5.19,0-10.39-.14-15.58,0-18.55.5-37.06-1.07-55.59-1.49-15-.34-30.17-1.35-45-4.53a56.61,56.61,0,0,1-6.83-2.09c-1.56-.55-2.94-1.45-2.88-3.38,0-1.62,1.33-2.25,2.52-3.05,3.29-2.22,7.19-2.76,10.82-3.09,9.89-.87,19.73-2.18,29.64-3,14.56-1.15,29.14-.15,43.61-1.28a188.49,188.49,0,0,1,26.85-.68C-427.31,941.06-415.58,941.26-403.83,941.21Z" transform="translate(1202 579.11)"/><path class="cls-13" d="M-527.5,389.12c9.76.49,19.38-1.06,29-2,5.53-.55,11.1-.66,16.62-1.05,7.31-.53,14.65-1.21,22-1.78,7.68-.61,15.43-.53,23.09-1.92,5.24-.95,10.68-.71,16-1.1,7.31-.53,14.61-1.58,22-1.58,6.76,0,13.4-1.87,20.2-1.19A83.78,83.78,0,0,1-390.33,392c-9.26,9.08-17.86,18.81-26.72,28.25-6.83,7.28-14,14.21-20.69,21.6-12.56,13.9-25.66,27.31-38.39,41.05-6.38,6.87-13.11,13.39-19.4,20.33C-508.78,517.85-522.58,532-536,546.39c-6.12,6.56-12.55,12.83-18.54,19.5-13.07,14.53-26.79,28.44-40.09,42.74-6.93,7.45-14.28,14.5-21.07,22-11.06,12.31-22.17,24.56-33.9,36.23-1.71,1.71-3.28,3.6-6.08,3.14q-2.74-16.15-5.48-32.31-3.3-19.38-6.63-38.76c-2.19-12.72-4.32-25.46-6.67-38.15-.82-4.41-.47-9.12-3-13.16.06-1.59.12-3.18.19-4.77,2.52-.09,3.78-2.1,5.25-3.64,7.7-8.08,16-15.55,23.2-24.16,6.51-7.77,14.3-14.4,21-22.15,7.25-8.45,15.83-15.7,23-24.28,6.14-7.31,13.12-13.93,19.77-20.78,12.09-12.45,23.5-25.55,36-37.58,5.46-5.25,9.66-11.67,15.42-16.66a4.14,4.14,0,0,0,1.4-3.19A11.5,11.5,0,0,1-527.5,389.12Z" transform="translate(1202 579.11)"/><path class="cls-13" d="M-545.24,824.54a73.63,73.63,0,0,1-9.88,11.85c-10.55,10-20,21-30,31.5-6.57,6.89-13.2,13.73-19.79,20.61-1.38,1.45-2.42,3.15-3.68,4.65-2,2.34-3.75,5.37-7.62,4.91-4-22.48-8-44.94-11.82-67.44-2.71-16.06-5.27-32.13-8.42-48.1-.54-2.7.23-5.65-1.57-8.11.07-1.18.15-2.36.22-3.55,4.75-1.34,7.19-5.46,10.14-8.8a70.05,70.05,0,0,1,5.07-5.81c8.85-8,16.19-17.53,24.69-25.9,1.54-1.53,2.85-3.38,5-4.1,7,35.46,23.74,66.3,45.31,94.81C-546.68,822.16-546,823.38-545.24,824.54Z" transform="translate(1202 579.11)"/><path class="cls-14" d="M-532.23,390.46a4.14,4.14,0,0,1-1.4,3.19c-5.76,5-10,11.41-15.42,16.66-12.52,12-23.93,25.13-36,37.58-6.65,6.85-13.63,13.47-19.77,20.78-7.21,8.58-15.79,15.83-23,24.28-6.65,7.75-14.44,14.38-21,22.15-7.2,8.61-15.5,16.08-23.2,24.16-1.47,1.54-2.73,3.55-5.25,3.64-2.33-8.66-3.2-17.6-4.83-26.39q-6.21-33.74-11.85-67.57c-2.3-13.93-4.6-27.86-7.21-41.73-.7-3.72,0-4.43,4-4.69,12.71-.83,25.45-1.43,38.14-2.58,15.47-1.39,30.95-2.49,46.43-3.63,10.92-.81,21.85-1.59,32.75-2.5,15.08-1.25,30.13-2.69,45.25-3.39C-533.83,390.38-533,390.44-532.23,390.46Z" transform="translate(1202 579.11)"/><path class="cls-5" d="M877.93,391.64c0,1.31,0,2.38-1.18,2.77a1.8,1.8,0,0,1-2.06-.77c-2.44-3.45-3.27-7.54-4.5-11.46a1.56,1.56,0,0,1,1.21-1.79,1.58,1.58,0,0,1,2,.69C875,384.71,877.17,388,877.93,391.64Z" transform="translate(1202 579.11)"/><path class="cls-8" d="M-488.48,752.82c-18.57-1.51-33.29-9.28-41.9-26.44-4.28-8.53-4.79-17.71-2.51-26.88,2.6-10.39,9.73-16.54,20-18.28,22.73-3.82,45.58,11.24,51.43,30.37a41.13,41.13,0,0,1,1,21.87c-2.59,11-11.89,18.58-23.83,19.35C-485.68,752.9-487.08,752.82-488.48,752.82Z" transform="translate(1202 579.11)"/></svg>