<svg id="Calque_1" width="12rem" data-name="Calque 1" xmlns="http://www.w3.org/2000/svg" viewBox="0 0 80 80"><defs><style>.cls-1{fill:#fff;}</style></defs><path class="cls-1" d="M60.16,58.23c-1.47-.26-1.59-1-1.56-2.21,0-1.53,0-3.07,0-4.6s-.25-3,2.11-3.15c1.34-.1,2.11-1.46,2.14-2.89a2.83,2.83,0,0,0-2.3-3.15c-1.75-.23-2.1-1-2-2.51.13-1.32-.46-2.83,1.77-3.11a2.94,2.94,0,0,0,2.49-3,2.87,2.87,0,0,0-2.29-3.17c-2.11-.27-2-1.49-2-2.94,0-1.89.06-3.78,0-5.67-.05-1.34.2-2.11,1.77-2.39a2.9,2.9,0,0,0,2.42-3.7A3.24,3.24,0,0,0,59.16,13c-1.29,0-2.59,0-3.89,0-11.22,0-22.44,0-33.65,0-2,0-3.54.72-3.93,2.76a2.89,2.89,0,0,0,2.47,3.66c1.64.27,1.77,1.14,1.72,2.43-.06,1.65-.05,3.31,0,5s.32,3.45-2.32,3.79c-1.31.17-2,1.59-1.94,3a2.76,2.76,0,0,0,2.2,2.87c2.32.26,2,1.73,2.08,3.27s-.3,2.24-2,2.48a2.83,2.83,0,0,0-2.27,3.17c.05,1.43.84,2.78,2.17,2.87,2.43.15,2.08,1.67,2.08,3.17s0,3.07,0,4.6c0,.91.21,1.88-1.23,2.09-2.24.33-3.4,1.79-2.9,4s2.38,2.58,4.45,2.55c6-.06,12,0,18.07,0s12.28,0,18.41,0c2,0,3.61-.53,4.09-2.57A3,3,0,0,0,60.16,58.23Zm-9.95-7c0,1.69-.45,2.22-2.17,2.19-5.19-.11-10.39-.1-15.58,0-1.7,0-2.24-.46-2.19-2.17.12-4,0-8,0-12s.08-8,0-12c-.05-1.69.44-2.22,2.16-2.19q7.79.16,15.58,0c1.7,0,2.2.46,2.19,2.17Q50.08,39.19,50.21,51.23Z"/><path class="cls-1" d="M42.22,48.16c-3.75,1.21-7-.91-8.24-5.39a5.43,5.43,0,0,1,.84-4.32c1.11-3.14,3.57-5.46,5.33-9,2.11,3.38,4.43,6.09,5.76,9.45C47.55,43,46,47,42.22,48.16Z"/></svg>