<svg id="Calque_1" width="12rem" data-name="Calque 1" xmlns="http://www.w3.org/2000/svg" viewBox="0 0 80 80">
<defs><style>.cls-1{fill:#fff;}.cls-2{fill:#020c4d;}</style></defs><path class="cls-1" d="M71.84,52.71,36,59.24V22.1l35.83,6.36Zm-32.93,2.2.9.33c.41-.86,1.23.32,1.24-.54.09-8.08.13-19.62,0-27.7,0-.79-.94-.14-1.38-.93l-.8.4Zm5.22-.21c.46-.42,1.42.82,1.65-.76.75-5.1.76-18.48.3-26.46,0-.82-.72.1-1.08-.69l-.87.27Zm6-26.93-1,0v25.7h1Zm4,.76h-.72V52.7l.72,0Zm2.8,23.63.8-.06V29.19l-.8,0Zm3.67-.56.71,0V29.79h-.71Zm9.56-20.3-.61.06V50h.61Zm-5.65-.87-.61-.08V50.91h.61Zm3,.33H66.9V50.52h.59Z"/><path class="cls-1" d="M33.82,58.91c-.36.2-.47,0-.57,0-4.75-.39-6.67.34-7.75-.46s-.79-3.47-.79-7.24V41.61c.34-1,0-.51,0-2.31,0-5-.11-10.2.15-15.36,2.82-1,5.78-1.18,8.94-1.63Z"/><path class="cls-1" d="M22.61,24.05V57.14c-2.45.3-4.85-.09-7.22,0-.87,0-2.09.34-2.1-.53-.14-8.56,0-20.28.19-28.84,0-.9-.09-3.39.88-3.45C16.55,24.2,19.86,24.27,22.61,24.05Z"/><rect class="cls-2" x="25.8" y="40" width="3.46" height="0.78"/><rect class="cls-2" x="17.99" y="40" width="3.46" height="0.78"/></svg>