<svg id="Calque_1" width="12rem" data-name="Calque 1" xmlns="http://www.w3.org/2000/svg" viewBox="0 0 80 80">
<defs>
<style>
.cls-1{fill:#fff;}.cls-2{fill:#fff; stroke:#fff;}.cls-3{fill:#fff;}
</style></defs>
<path class="cls-1" d="M68.54,27.49c-6.38.08-6.4.08-8.6,5.92-2.09,5.55-4.17,11.1-6.17,16.67a3.12,3.12,0,0,1-3.44,2.41c-11.87-.1-23.74-.07-35.6-.09V51.05c1.16-.92,2.54-.65,3.86-.65,10,0,19.89-.07,29.84,0,2.2,0,3.34-.46,4.11-2.73,2.16-6.33,4.78-12.5,6.94-18.83.85-2.5,1.94-3.78,4.71-3.36a24.35,24.35,0,0,0,4.35-.05Z"/><path class="cls-1" d="M14.73,57.79c1.11-.14,1.12-1.29,1.71-1.91a4.81,4.81,0,0,1,6.89-.41,4.68,4.68,0,0,1,.13,6.87c-2,2-4.75,1.91-6.87-.14-.6-.59-.72-1.72-1.86-1.72Zm8.15,1.27a2.6,2.6,0,0,0-2.62-2.83,2.75,2.75,0,1,0-.17,5.5A2.59,2.59,0,0,0,22.88,59.06Z"/><path class="cls-2" d="M27.48,23.39c.1-8.63-1.27-7.86,7.85-7.88,8.91,0,7.75-.59,7.74,7.66,0,8.84,1.28,8-8,8C26.15,31.22,27.61,31.82,27.48,23.39Zm1.95-.24v4.37c0,1.7.94,2,2.13,1.09,2.48-1.82,4.74-1.91,7.25.06,1.25,1,2.3.49,2.27-1.36,0-2.69,0-5.37,0-8.06,0-.64.15-1.42-.75-1.62a1.5,1.5,0,0,0-1.78.54c-1.63,2.5-4.24,1.41-6,.93-3.22-.86-3.11-1.27-3.11,2.37Z"/><path class="cls-3" d="M42.26,48.61c-8.91-.06-7.84,1-7.87-7.89,0-8.64-.78-7.67,7.78-7.67,9.07,0,8-.95,8,8.1C50.21,49.59,51.15,48.55,42.26,48.61ZM36.41,40.8c0,1.23,0,2.46,0,3.69,0,.85-.29,1.9.91,2.23.88.24,1.2-.7,1.74-1,2.1-1.15,4.51-1.52,6.48.21.68.59,1.09,1,1.9.69s.7-1,.7-1.69c0-2.8,0-5.59,0-8.39,0-.67,0-1.41-.9-1.53a1.62,1.62,0,0,0-1.64.72c-1.81,2.17-4.25,1-6.38.65-.48-.08-.83-1.9-2.1-1.29s-.56,2-.68,3A23.91,23.91,0,0,0,36.41,40.8Z"/><path class="cls-2" d="M24.87,48.56c-9-.07-7.76,1.29-7.77-7.79,0-8.63-1.14-7.73,7.59-7.71,9.06,0,8-1.15,8,8C32.67,49.9,33.61,48.46,24.87,48.56Zm5.92-7.45c0-1.56.06-3.13,0-4.68-.1-2.07-1.39-1.89-2.44-.93-2.38,2.16-4.68,2-7,.08a1.78,1.78,0,0,0-1.75-.51c-.87.23-.72,1-.72,1.65,0,2.78,0,5.57,0,8.36,0,.69,0,1.39.81,1.61A1.53,1.53,0,0,0,21.4,46c1.85-2.17,4.28-.93,6.39-.67.6.07,1.14,2,2.46,1.19,1.12-.7.41-2,.53-3.1A18.26,18.26,0,0,0,30.79,41.11Z"/><path class="cls-1" d="M53.5,59a5,5,0,0,1-5.07,4.76,5.09,5.09,0,0,1-4.62-4.87A4.85,4.85,0,0,1,53.5,59Zm-1.94-.16a2.79,2.79,0,0,0-2.75-2.65,2.63,2.63,0,0,0-3,2.53,2.66,2.66,0,0,0,2.85,3C50.3,61.76,51.33,60.74,51.56,58.87Z"/></svg>