<svg id="Calque_1" width="12rem" data-name="Calque 1" xmlns="http://www.w3.org/2000/svg" viewBox="0 0 80 80">
<defs><style>.cls-1{fill:#020c4d;}.cls-2,.cls-4{fill:#fff;}.cls-3{fill:none;}.cls-3,.cls-4{stroke:#020c4d;stroke-miterlimit:10;stroke-width:2px;}</style>
</defs><rect class="cls-1" width="80" height="80"/><ellipse class="cls-2" cx="30.41" cy="36.78" rx="20.43" ry="21.48"/><line class="cls-3" x1="30.41" y1="10.74" x2="30.41" y2="62.4"/><line class="cls-3" x1="6.38" y1="36.78" x2="56.06" y2="36.57"/><path class="cls-3" d="M57.36,36.57c0-8.27-12.06-15-26.95-15s-27.95,6.7-27.95,15,13.06,15,28,15S57.36,44.84,57.36,36.57Z"/><ellipse class="cls-3" cx="30.41" cy="36.86" rx="13.5" ry="24.3" transform="translate(-0.23 0.19) rotate(-0.36)"/><path class="cls-4" d="M57.29,13.72c1,0,2.11,1.61,3.32,3.56V26l16,8.46s2,.78,1.92,4.86L60,34.5,59.77,49l6.6,5.88s3.36,2.64,1.56,2.64H64.49a10.28,10.28,0,0,1-3.35-.56l-4.4-1.52Z"/><path class="cls-4" d="M57.29,13.72c-1,0-2.24,1.52-3.57,3.53L53.48,26,37.29,34s-2.06.72-2,4.81l18.6-4.35-.16,14.46-6.76,5.7s-3.43,2.54-1.63,2.59l4.05.12a6.6,6.6,0,0,0,2.16-.3l5.24-1.65Z"/><path class="cls-2" d="M55.56,54.72H58l.48-38.85s-1.65-1.26-2.25-.18S55.56,54.72,55.56,54.72Z"/></svg>